<?xml version="1.0" encoding="UTF-8" standalone="no"?>
<!DOCTYPE svg  PUBLIC '-//W3C//DTD SVG 1.1//EN'  'http://www.w3.org/Graphics/SVG/1.1/DTD/svg11.dtd'>
<svg xmlns="http://www.w3.org/2000/svg">
<defs>
<font id="Lato-MediumItalic" horiz-adv-x="1160">
<font-face slope="-7" underline-position="-418" font-weight="500" descent="-400" panose-1="2 15 5 2 2 2 4 3 2 3" units-per-em="2000" unicode-range="U+0020-25CA" bbox="-405 -413 2483 1896" x-height="1016" underline-thickness="92" font-family="Lato" ascent="1600" font-style="italic" cap-height="1436"/>
<missing-glyph horiz-adv-x="2000"/>
<glyph glyph-name=".notdef" horiz-adv-x="2000"/>
<glyph glyph-name="glyph1" horiz-adv-x="0"/>
<glyph glyph-name="glyph1" horiz-adv-x="0"/>
<glyph glyph-name="nonmarkingreturn" horiz-adv-x="666"/>
<glyph glyph-name="space" horiz-adv-x="460" unicode=" "/>
<glyph glyph-name="space" horiz-adv-x="460" unicode=" "/>
<glyph glyph-name="exclam" horiz-adv-x="511" unicode="!" d="M72 117q0 27 10 51t27.5 42t41.5 28.5t52 10.5q27 0 51 -10.5t42 -28.5t28.5 -42t10.5 -51q0 -28 -10.5 -52t-28.5 -42t-42 -28t-51 -10q-28 0 -52 10t-41.5 28t-27.5 42t-10 52zM440 1436l-70 -573q-5 -45 -12 -88t-16 -86.5t-19.5 -89.5t-22.5 -98h-128q1 52 2 98 t3 89.5t5.5 86.5t9.5 88l70 573h178z"/>
<glyph glyph-name="quotedbl" horiz-adv-x="707" unicode='&quot;' d="M378 1435l-36 -289l-35 -156q-9 -34 -25.5 -52.5t-48.5 -18.5q-29 0 -41.5 18.5t-14.5 52.5l1 156l37 289h163zM692 1435l-36 -289l-35 -156q-9 -34 -25.5 -52.5t-48.5 -18.5q-29 0 -41.5 18.5t-14.5 52.5l1 156l37 289h163z"/>
<glyph glyph-name="numbersign" d="M1163 1015l-25 -79q-8 -30 -29 -44.5t-62 -14.5h-133l-101 -318h172q30 0 38.5 -13t8.5 -29q0 -15 -5 -37l-18 -60h-234l-134 -420h-86q-27 0 -41.5 23.5t-3.5 57.5l109 339h-241l-110 -348q-11 -39 -38 -55.5t-57 -16.5h-84l134 420h-140q-29 0 -37.5 13.5t-8.5 29.5 q0 15 5 36l17 60h202l101 318h-228l23 79q9 30 30 44.5t62 14.5h151l113 353q11 32 35.5 49.5t55.5 17.5h86l-135 -420h240l135 420h85q29 0 44.5 -19.5t5.5 -49.5l-113 -351h211zM759 877h-240l-102 -318h241z" unicode="#"/>
<glyph glyph-name="dollar" d="M808 1444q103 -14 175 -55.5t122 -98.5l-53 -70q-24 -31 -52 -31q-14 0 -33 12t-45.5 28.5t-62 32t-82.5 23.5l-92 -474q64 -21 127 -45.5t113 -61.5t81 -91t31 -134q0 -96 -35.5 -182.5t-101.5 -153t-161 -109t-214 -49.5l-33 -171q-2 -19 -18.5 -34t-39.5 -15h-70 l43 223q-118 12 -212 60.5t-157 123.5l67 86q10 12 23.5 19.5t29.5 7.5q19 0 41 -18.5t53.5 -42t76 -46t109.5 -31.5l101 518q-62 19 -122 43.5t-107 63t-76 94.5t-29 139q0 84 33.5 162.5t96.5 139.5t153 99.5t203 42.5l27 140q3 20 19 35.5t39 15.5h70zM556 146 q71 7 126.5 31t93 61.5t57 87t19.5 107.5q0 42 -15.5 72.5t-43 53t-64.5 39.5t-79 32zM659 1288q-70 -7 -121.5 -28.5t-85 -54t-50 -73t-16.5 -85.5q0 -40 14.5 -70t40 -53.5t59.5 -41.5t74 -33z" unicode="$"/>
<glyph glyph-name="percent" horiz-adv-x="1497" unicode="%" d="M1240 395q0 96 -36 138t-91 42q-38 0 -71.5 -16.5t-58.5 -51.5t-39.5 -91t-14.5 -134q0 -93 35.5 -134t90.5 -41q38 0 71.5 15.5t59 50t40 89.5t14.5 133zM1387 396q0 -98 -29.5 -175t-78.5 -130t-111 -80.5t-128 -27.5q-57 0 -104.5 20.5t-81 59.5t-52.5 94.5t-19 124.5 q0 99 27.5 176.5t74.5 131t109.5 82t133.5 28.5q57 0 105 -21t82 -60t53 -95.5t19 -127.5zM1232 1404q11 12 26.5 21.5t40.5 9.5h136l-1147 -1405q-11 -13 -26.5 -21.5t-35.5 -8.5h-139zM594 1144q0 96 -36 139t-91 43q-38 0 -71.5 -16.5t-58.5 -52t-39.5 -91t-14.5 -133.5 q0 -47 9.5 -80t26 -54t40 -31t50.5 -10q38 0 71.5 15.5t59 49.5t40 88.5t14.5 132.5zM741 1146q0 -98 -29.5 -175t-78.5 -130t-111 -81t-128 -28q-57 0 -104.5 21t-81 60t-52.5 94.5t-19 125.5q0 98 27.5 175.5t74.5 131t109.5 82t133.5 28.5q57 0 105 -21t82 -60t53 -95.5 t19 -127.5z"/>
<glyph glyph-name="ampersand" horiz-adv-x="1320" unicode="&amp;" d="M1239 0h-162q-24 0 -40.5 3t-29.5 9.5t-24.5 17t-23.5 26.5l-84 108q-94 -84 -207 -132t-240 -48q-85 0 -154 24.5t-118.5 70.5t-76.5 112t-27 148q0 79 26 148.5t71.5 128t107 104t133.5 77.5q-38 65 -55.5 128.5t-17.5 124.5q0 83 29 156t82 127.5t128.5 86t167.5 31.5 q76 0 135 -24.5t99.5 -66.5t61 -96.5t20.5 -115.5v-6l-111 -21q-25 -5 -37.5 2t-19.5 31q-5 27 -17 54t-32 48.5t-49 34.5t-67 13q-48 0 -87.5 -18.5t-67.5 -51t-43 -76t-15 -94.5q0 -108 92 -231l315 -402q39 64 65.5 133.5t40.5 139.5q4 19 14 30.5t30 11.5h131 q-16 -120 -62 -233t-118 -210zM460 697q-109 -62 -161.5 -147.5t-52.5 -185.5q0 -54 16.5 -96t46 -71.5t70.5 -44.5t89 -15q90 0 169.5 39t146.5 105z"/>
<glyph glyph-name="quotesingle" horiz-adv-x="393" unicode="&apos;" d="M378 1435l-36 -289l-35 -156q-9 -34 -25.5 -52.5t-48.5 -18.5q-29 0 -41.5 18.5t-14.5 52.5l1 156l37 289h163z"/>
<glyph glyph-name="parenleft" horiz-adv-x="521" unicode="(" d="M246 439q0 -72 6.5 -151.5t20 -158.5t33.5 -155t46 -142q13 -33 2 -50.5t-28 -27.5l-89 -51q-41 86 -70.5 177.5t-48.5 184t-28 183t-9 174.5q0 143 16.5 277.5t59.5 271t117 280t189 303.5l78 -51q7 -5 13 -12t7.5 -13.5t1.5 -10.5q0 -6 -2.5 -16t-12.5 -26 q-72 -113 -128 -226.5t-94.5 -233.5t-59 -250t-20.5 -276z"/>
<glyph glyph-name="parenright" horiz-adv-x="520" unicode=")" d="M279 818q0 72 -7 151.5t-20.5 158.5t-33 155t-45.5 142q-6 16 -6 28.5t4.5 21.5t11.5 16t16 12l90 51q41 -86 70.5 -178t48 -184t27.5 -182.5t9 -174.5q0 -143 -16.5 -277.5t-59 -271t-117 -280t-189.5 -303.5l-77 51q-15 10 -18.5 21t-3.5 15q0 16 15 42q72 113 128 229 t94.5 237.5t58.5 250.5t20 269z"/>
<glyph glyph-name="asterisk" horiz-adv-x="790" unicode="*" d="M597 1208q-19 -10 -37 -16.5t-35 -8.5q36 -3 65 -25l142 -100l-54 -78l-142 98q-15 10 -27 19.5t-20 22.5q6 -19 6 -41q0 -12 -2 -25l-25 -196h-92l25 195q2 19 6.5 35.5t12.5 32.5q-12 -13 -26 -23t-31 -20l-165 -98l-35 79l165 99q38 22 77 25q-39 3 -71 25l-142 100 l55 79l142 -99q33 -20 48 -48q-7 22 -7 46q0 13 2 26l24 195h92l-24 -194q-3 -19 -8 -36.5t-13 -33.5q12 14 27 24.5t32 20.5l165 98l35 -79z"/>
<glyph glyph-name="plus" d="M1060 600h-405l-52 -426h-154l52 426h-402l17 143h403l52 424h154l-52 -424h405z" unicode="+"/>
<glyph glyph-name="comma" horiz-adv-x="455" unicode="," d="M163 0q-27 0 -49.5 10t-39 27.5t-25.5 41.5t-9 52q0 24 9 45.5t25.5 37.5t39.5 25.5t51 9.5q32 0 56.5 -11.5t41 -32t24.5 -47.5t8 -58q0 -45 -13 -95t-38 -99t-62 -95t-84 -85l-34 32q-14 13 -14 29q0 12 16.5 31t37.5 45.5t41 60.5t28 76h-10z"/>
<glyph glyph-name="period" horiz-adv-x="470" unicode="." d="M47 117q0 27 10 51t27.5 42t41.5 28.5t52 10.5q27 0 51 -10.5t42 -28.5t28.5 -42t10.5 -51q0 -28 -10.5 -52t-28.5 -42t-42 -28t-51 -10q-28 0 -52 10t-41.5 28t-27.5 42t-10 52z"/>
<glyph glyph-name="slash" horiz-adv-x="842" unicode="/" d="M167 -20q-18 -36 -49.5 -54t-60.5 -18h-80l719 1475q17 32 44 50.5t62 18.5h80z"/>
<glyph glyph-name="zero" d="M893 885q0 111 -18 188.5t-49.5 126t-73.5 70.5t-90 22q-70 0 -136.5 -39t-118.5 -127t-83.5 -230t-31.5 -347q0 -111 18 -188t49 -125t73 -70t89 -22q70 0 136.5 38.5t119 126t84.5 229t32 347.5zM1087 875q0 -226 -47 -393.5t-127 -277.5t-186.5 -164.5t-224.5 -54.5 q-89 0 -163 36t-127 108t-83 180t-30 252q0 225 46.5 392.5t126.5 278.5t185.5 165.5t224.5 54.5q88 0 162.5 -36t128.5 -108t84 -180.5t30 -252.5z" unicode="0"/>
<glyph glyph-name="one" d="M937 144l-18 -144h-719l18 144h279l117 956l6 44t8 45l-244 -209q-15 -11 -29 -14t-25.5 -1t-20.5 8t-13 13l-49 82l443 371h154l-158 -1295h251z" unicode="1"/>
<glyph glyph-name="two" d="M902 178q30 0 46 -17.5t12 -46.5l-14 -114h-892l8 64q2 20 13 42t31 39l471 457q67 66 119.5 124t89 115.5t55.5 117t19 128.5q0 50 -14.5 88t-40 63.5t-61 38.5t-77.5 13q-47 0 -88 -15.5t-74.5 -43t-59 -65t-40.5 -82.5q-17 -37 -39.5 -49.5t-60.5 -6.5l-97 17 q25 99 72.5 175t111 127.5t141.5 78t164 26.5q79 0 145 -24t113.5 -69t73.5 -109.5t26 -145.5q0 -92 -27 -167.5t-73.5 -143t-108 -131t-130.5 -130.5l-388 -381q44 12 88.5 19.5t82.5 7.5h403z" unicode="2"/>
<glyph glyph-name="three" d="M211 1045q26 99 73.5 175t111 127.5t141.5 78t164 26.5q80 0 144.5 -23.5t109.5 -66.5t69.5 -102t24.5 -131q0 -80 -19 -141.5t-54 -107t-85.5 -76.5t-113.5 -49q110 -35 164.5 -109.5t54.5 -182.5q0 -111 -41.5 -200t-110.5 -151t-159.5 -95t-189.5 -33q-103 0 -174 28 t-118 77.5t-74 118.5t-41 151l86 35q23 10 44 10q10 0 29 -4.5t28 -32.5q11 -29 25 -67t39.5 -72.5t66.5 -58.5t106 -24q70 0 125 27.5t93 72t58 101t20 115.5q0 44 -14 82t-48.5 65.5t-91.5 43t-144 15.5l16 137q175 3 255.5 78.5t80.5 209.5q0 49 -14 86t-39 62 t-60.5 37.5t-77.5 12.5q-47 0 -88 -15.5t-75 -43t-59.5 -65t-40.5 -82.5q-17 -37 -39.5 -49.5t-60.5 -6.5z" unicode="3"/>
<glyph glyph-name="four" d="M1054 522l-13 -109q-2 -17 -14 -28.5t-32 -11.5h-147l-46 -373h-164l46 373h-577q-20 0 -33 12t-15 30l-8 97l751 924h177l-113 -914h188zM702 522l70 572q3 24 8 51.5t12 57.5l-541 -681h451z" unicode="4"/>
<glyph glyph-name="five" d="M1056 1436l-10 -82q-5 -41 -33.5 -67t-88.5 -26h-393l-102 -362q98 22 183 22q93 0 163.5 -29t117.5 -79.5t70.5 -119t23.5 -147.5q0 -127 -43.5 -230.5t-118.5 -177t-175 -114t-212 -40.5q-60 0 -112.5 12.5t-97.5 34t-82 49.5t-65 58l68 81q22 27 53 27 q20 0 41.5 -15.5t51.5 -34.5t71.5 -34.5t102.5 -15.5q76 0 136.5 28.5t102.5 79t64.5 119.5t22.5 150q0 54 -15 98.5t-45 76t-75.5 49t-106.5 17.5q-97 0 -211 -38l-114 34l191 676h637z" unicode="5"/>
<glyph glyph-name="six" horiz-adv-x="1067" unicode="6" d="M536 901q-17 -20 -33 -39l-32 -38q47 28 100 43.5t113 15.5q71 0 133.5 -24.5t109 -71.5t73.5 -115.5t27 -156.5q0 -112 -39.5 -209t-109.5 -168.5t-165.5 -112.5t-207.5 -41q-92 0 -164 30t-122.5 85t-77 132.5t-26.5 171.5q0 64 13 124.5t40 121.5t68 124.5t96 132.5 l388 484q17 20 45 33t61 13h168zM521 141q67 0 125 26t100 72t66 109t24 138q0 58 -16.5 104.5t-46.5 79.5t-73 50.5t-97 17.5q-67 0 -123.5 -27t-97.5 -74t-64 -109.5t-23 -132.5q0 -56 14.5 -102.5t43 -80t70.5 -52.5t98 -19z"/>
<glyph glyph-name="seven" d="M1141 1436l-10 -84q-5 -36 -15.5 -59.5t-20.5 -39.5l-675 -1187q-17 -28 -43 -47t-67 -19h-136l682 1170q17 27 34 49t37 42h-667q-18 0 -29.5 14t-9.5 32l15 129h905z" unicode="7"/>
<glyph glyph-name="eight" d="M793 748q107 -35 161.5 -111.5t54.5 -189.5q0 -107 -38 -192.5t-105.5 -145.5t-160.5 -92.5t-202 -32.5q-92 0 -167 25.5t-128 72.5t-81.5 113.5t-28.5 148.5q0 158 77 261.5t226 145.5q-87 38 -130.5 109t-43.5 167q0 90 34.5 167.5t95.5 134.5t144.5 90t181.5 33 q84 0 151 -26t114 -72t72 -107.5t25 -131.5q0 -132 -63.5 -227t-188.5 -140zM665 1306q-63 0 -110.5 -22t-79.5 -60.5t-48 -89.5t-16 -108q0 -40 10.5 -77t33.5 -65.5t60 -46t90 -17.5q64 0 112 22.5t80 61.5t48 90.5t16 109.5q0 41 -12 78t-36.5 64.5t-61.5 43.5t-86 16z M521 134q69 0 123.5 23t92.5 64.5t58 99t20 127.5q0 58 -18 100t-49.5 69t-73 39.5t-87.5 12.5q-56 0 -108.5 -16.5t-93.5 -53.5t-66 -96.5t-25 -144.5q0 -49 15 -90t43.5 -71t71 -46.5t97.5 -16.5z" unicode="8"/>
<glyph glyph-name="nine" d="M670 570q22 26 41.5 50.5t36.5 47.5q-54 -39 -117 -60t-131 -21q-66 0 -124.5 23.5t-102.5 69t-69.5 111.5t-25.5 150q0 106 38.5 199.5t106.5 162.5t159.5 109t198.5 40q88 0 158 -29.5t119 -82.5t74.5 -126.5t25.5 -161.5q0 -74 -14.5 -138.5t-41.5 -124.5t-66.5 -120 t-89.5 -125l-376 -500q-16 -19 -43 -31.5t-59 -12.5h-174zM369 964q0 -109 55.5 -170.5t158.5 -61.5q67 0 122 26t93 70t59 101.5t21 121.5q0 55 -15.5 100.5t-44 77t-69 49t-89.5 17.5q-63 0 -116.5 -24.5t-92.5 -68t-60.5 -104.5t-21.5 -134z" unicode="9"/>
<glyph glyph-name="colon" horiz-adv-x="502" unicode=":" d="M64 117q0 27 10 51t27.5 42t41.5 28.5t52 10.5q27 0 51 -10.5t42 -28.5t28.5 -42t10.5 -51q0 -28 -10.5 -52t-28.5 -42t-42 -28t-51 -10q-28 0 -52 10t-41.5 28t-27.5 42t-10 52zM147 857q0 27 10 51t27.5 42t41.5 28.5t52 10.5q27 0 51 -10.5t42 -28.5t28.5 -42 t10.5 -51q0 -28 -10.5 -52t-28.5 -42t-42 -28t-51 -10q-28 0 -52 10t-41.5 28t-27.5 42t-10 52z"/>
<glyph glyph-name="semicolon" horiz-adv-x="525" unicode=";" d="M201 0q-27 0 -49.5 10t-39 27.5t-25.5 41.5t-9 52q0 24 9 45.5t25.5 37.5t39.5 25.5t51 9.5q32 0 56.5 -11.5t41 -32t24.5 -47.5t8 -58q0 -45 -13 -95t-38 -99t-62 -95t-84 -85l-34 32q-14 13 -14 29q0 12 16.5 31t37.5 45.5t41 60.5t28 76h-10zM157 857q0 27 10 51 t27.5 42t41.5 28.5t52 10.5q27 0 51 -10.5t42 -28.5t28.5 -42t10.5 -51q0 -28 -10.5 -52t-28.5 -42t-42 -28t-51 -10q-28 0 -52 10t-41.5 28t-27.5 42t-10 52z"/>
<glyph glyph-name="less" d="M1001 1118l-16 -140q-2 -17 -12.5 -31t-32.5 -25l-455 -216q-44 -21 -96 -33q49 -12 88 -33l402 -216q19 -11 26 -25t5 -31l-18 -140l-728 405l7 60h1l2 20z" unicode="&lt;"/>
<glyph glyph-name="equal" d="M184 914h862l-16 -143h-864zM142 576h863l-17 -143h-864z" unicode="="/>
<glyph glyph-name="greater" d="M1001 633l-828 -405l17 140q2 17 12 31t33 25l454 216q43 21 97 33q-49 12 -89 33l-401 216q-20 11 -26.5 25t-4.5 31l17 140l729 -405z" unicode="&gt;"/>
<glyph glyph-name="question" horiz-adv-x="843" unicode="?" d="M210 117q0 27 10 51t27.5 42t41.5 28.5t52 10.5q27 0 51 -10.5t42 -28.5t28.5 -42t10.5 -51q0 -28 -10.5 -52t-28.5 -42t-42 -28t-51 -10q-28 0 -52 10t-41.5 28t-27.5 42t-10 52zM156 1306q33 29 71.5 55.5t83 46.5t94.5 31.5t107 11.5q72 0 129.5 -21.5t97.5 -59 t61 -88.5t21 -111q0 -84 -23 -143t-58.5 -102t-78.5 -74.5t-82.5 -61t-70 -61.5t-41.5 -75l-38 -153h-130l9 166q2 49 28 86t63.5 69.5t80.5 63t80 66.5t61.5 80t24.5 103q0 75 -45 118t-123 43q-55 0 -95 -14.5t-69 -32t-48.5 -32t-33.5 -14.5t-21 5.5t-15 19.5z"/>
<glyph glyph-name="at" horiz-adv-x="1538" unicode="@" d="M1026 544q-26 -74 -30 -106t-4 -46q0 -25 8 -46.5t29.5 -31t48.5 -9.5q50 0 96.5 35t82.5 97.5t58 149t22 189.5q0 114 -33 200.5t-93 145t-143.5 88t-183.5 29.5q-90 0 -173.5 -26.5t-157 -75.5t-134 -118.5t-104 -156t-67.5 -188t-24 -213.5q0 -140 39.5 -247t110 -180 t168.5 -110.5t215 -37.5q141 0 248 31t176 75q18 10 31 11.5t22.5 -2.5t15 -12.5t8.5 -18.5l14 -56q-106 -70 -237 -112t-292 -42q-147 0 -268 48t-208 138t-134.5 218.5t-47.5 289.5q0 126 30 242.5t84 217.5t129 184t165.5 141.5t193 91t212.5 32.5q118 0 222 -40 t182 -116t123.5 -184.5t45.5 -246.5q0 -127 -35 -235t-94.5 -187t-138.5 -124t-167 -45q-68 0 -110 35.5t-48 110.5q-63 -76 -129.5 -109.5t-138.5 -33.5q-49 0 -85 17.5t-59.5 48t-35 72t-11.5 89.5q0 60 16 123t47.5 122.5t77.5 111.5t105.5 91t132.5 61.5t158 22.5 q66 0 112.5 -10t88.5 -30zM985 819q-35 8 -72 8q-70 0 -132.5 -34t-109.5 -89.5t-74.5 -125.5t-27.5 -142q0 -56 23.5 -89.5t71.5 -33.5q26 0 54.5 9.5t56.5 33.5t54.5 65.5t48.5 104.5z"/>
<glyph glyph-name="A" horiz-adv-x="1272" unicode="A" d="M1191 0h-159q-27 0 -42 13.5t-21 35.5l-73 337h-574l-156 -337q-9 -20 -29 -34.5t-46 -14.5h-160l702 1436h208zM863 534l-123 567q-5 29 -12 66.5t-14 81.5q-16 -44 -32 -82t-28 -67l-263 -566h472z"/>
<glyph glyph-name="B" horiz-adv-x="1210" unicode="B" d="M704 1436q114 0 195.5 -22.5t134.5 -64.5t78 -101.5t25 -133.5q0 -63 -18 -121t-54.5 -107t-91.5 -86.5t-129 -61.5q128 -29 191 -100.5t63 -182.5q0 -99 -36 -182.5t-103.5 -144t-165 -94.5t-220.5 -34h-480l176 1436h435zM455 1275l-59 -480h221q77 0 135.5 20 t97.5 56.5t59 89t20 117.5q0 100 -59.5 148.5t-184.5 48.5h-230zM590 163q77 0 134 20.5t95 58t57 90.5t19 119q0 46 -15 82.5t-45 62.5t-76.5 40t-109.5 14h-271l-60 -487h272z"/>
<glyph glyph-name="C" horiz-adv-x="1247" unicode="C" d="M679 161q65 0 114.5 10.5t87 26.5t64.5 34t46.5 34t33.5 26.5t26 10.5q10 0 16.5 -3.5t10.5 -8.5l72 -90q-94 -103 -218 -160t-287 -57q-130 0 -232.5 46.5t-173.5 129t-108.5 197t-37.5 251.5q0 124 26.5 235t75.5 205t117.5 169t152.5 127t181 80t203 28 q77 0 140 -13.5t114 -38.5t93 -60.5t77 -79.5l-70 -85q-9 -11 -19.5 -18t-27.5 -7q-19 0 -39 19.5t-53.5 42.5t-86.5 42.5t-138 19.5q-113 0 -211 -45.5t-170 -130t-113.5 -204.5t-41.5 -269q0 -108 28 -194t78 -146t119 -92t151 -32z"/>
<glyph glyph-name="D" horiz-adv-x="1415" unicode="D" d="M1136 813q0 105 -26.5 190t-76.5 144t-122 91t-163 32h-292l-137 -1104h292q117 0 213.5 44.5t166 128t107.5 203.5t38 271zM1347 818q0 -182 -57 -332.5t-157.5 -258.5t-239.5 -167.5t-302 -59.5h-498l176 1436h499q133 0 240.5 -45.5t182.5 -127t115.5 -195.5 t40.5 -250z"/>
<glyph glyph-name="E" horiz-adv-x="1075" unicode="E" d="M455 1269l-57 -464h495l-21 -161h-494l-58 -477h617l-21 -167h-823l176 1436h823l-21 -167h-616z"/>
<glyph glyph-name="F" horiz-adv-x="1061" unicode="F" d="M455 1269l-60 -491h525l-22 -167h-524l-75 -611h-206l176 1436h823l-21 -167h-616z"/>
<glyph glyph-name="G" horiz-adv-x="1359" unicode="G" d="M841 695h420l-68 -556q-55 -39 -112.5 -68t-121.5 -48.5t-135 -29t-153 -9.5q-131 0 -237.5 47t-182 131t-116.5 200.5t-41 254.5q0 123 26 232.5t74.5 202.5t117.5 167t154 126t184 79.5t209 27.5q85 0 153.5 -14.5t124.5 -39.5t101 -60t82 -75l-66 -85 q-16 -23 -38.5 -28.5t-47.5 9.5q-24 15 -51 35t-64 37.5t-87.5 30t-121.5 12.5q-119 0 -218.5 -46t-171 -131t-111 -205t-39.5 -268q0 -110 28.5 -198t81 -149.5t126.5 -94t165 -32.5q49 0 91.5 5.5t80.5 15.5t72.5 24.5t68.5 32.5l38 311h-189q-20 0 -30.5 11t-8.5 28z"/>
<glyph glyph-name="H" horiz-adv-x="1424" unicode="H" d="M1359 1436l-177 -1436h-207l80 649h-676l-80 -649h-206l176 1436h207l-79 -638h676l79 638h207z"/>
<glyph glyph-name="I" horiz-adv-x="541" unicode="I" d="M299 0h-206l175 1436h207z"/>
<glyph glyph-name="J" horiz-adv-x="805" unicode="J" d="M635 482q-15 -119 -53 -212t-98 -156.5t-141.5 -96.5t-182.5 -33q-54 0 -101 7t-95 21l15 120q2 17 12 29t32 12q11 0 23.5 -2.5t29 -6t37.5 -6t48 -2.5q50 0 94.5 17t79.5 55t59.5 99t35.5 150l117 959h205z"/>
<glyph glyph-name="K" horiz-adv-x="1248" unicode="K" d="M396 811h63q35 0 58 9.5t44 32.5l477 536q22 28 46.5 37.5t56.5 9.5h175l-557 -616q-20 -25 -39.5 -40.5t-40.5 -25.5q50 -19 79 -76l416 -678h-178q-40 0 -56.5 11.5t-27.5 31.5l-356 563q-14 26 -35 36.5t-64 10.5h-80l-80 -653h-204l175 1437h205z"/>
<glyph glyph-name="L" horiz-adv-x="955" unicode="L" d="M875 173l-21 -173h-761l176 1436h206l-156 -1263h556z"/>
<glyph glyph-name="M" horiz-adv-x="1734" unicode="M" d="M1668 1436l-177 -1436h-179l127 1028q3 22 8 48t11 53l-544 -881q-28 -47 -79 -47h-28q-52 0 -69 47l-333 881q-1 -26 -2.5 -51.5t-3.5 -46.5l-126 -1031h-180l176 1436h152q27 0 40 -6t27 -28l335 -881q8 -21 14 -43t11 -45q10 23 21 45t24 43l548 881q10 11 17.5 17.5 t15.5 10.5t17.5 5t23.5 1h153z"/>
<glyph glyph-name="N" horiz-adv-x="1424" unicode="N" d="M1359 1436l-177 -1436h-104q-24 0 -39.5 9t-29.5 29l-604 1066q-2 -43 -6 -75l-126 -1029h-180l176 1436h107q27 0 39 -6t26 -28l604 -1066q2 25 4 47t4 42l125 1011h181z"/>
<glyph glyph-name="O" horiz-adv-x="1495" unicode="O" d="M1218 814q0 106 -27 192t-77.5 147t-123 94t-163.5 33q-116 0 -212 -46.5t-165 -132.5t-107.5 -207.5t-38.5 -271.5q0 -106 26.5 -192t77 -146.5t122.5 -93.5t163 -33q117 0 213.5 46.5t166 132t107.5 207t38 271.5zM1429 819q0 -182 -57.5 -335t-159 -264t-240 -173 t-301.5 -62q-134 0 -240.5 47.5t-181.5 131.5t-115 199.5t-40 252.5q0 121 26 230.5t74 202.5t116.5 167.5t152.5 127t182.5 80.5t206.5 28q133 0 240 -47.5t182 -132t115 -200.5t40 -253z"/>
<glyph glyph-name="P" horiz-adv-x="1133" unicode="P" d="M674 1436q116 0 201 -28t140.5 -78.5t82.5 -121t27 -156.5q0 -114 -36.5 -209.5t-108 -164.5t-176.5 -108t-241 -39h-201l-65 -531h-204l175 1436h406zM583 694q82 0 145 25.5t105.5 70.5t64 107t21.5 136q0 111 -65.5 176.5t-199.5 65.5h-201l-71 -581h201z"/>
<glyph glyph-name="Q" horiz-adv-x="1495" unicode="Q" d="M891 17q-105 -32 -220 -32q-134 0 -240.5 47.5t-181.5 131.5t-115 199.5t-40 252.5q0 121 26 230.5t74 202.5t116.5 167.5t152.5 127t182.5 80.5t206.5 28q133 0 240 -47.5t182 -132t115 -200.5t40 -253q0 -119 -25 -226.5t-71.5 -199.5t-113 -166t-148.5 -127l289 -393 h-166q-38 0 -66 10.5t-49 36.5zM304 622q0 -106 26.5 -192t77 -146.5t122.5 -93.5t163 -33q117 0 213.5 46.5t166 132t107.5 207t38 271.5q0 106 -27 192t-77.5 147t-123 94t-163.5 33q-116 0 -212 -46.5t-165 -132.5t-107.5 -207.5t-38.5 -271.5z"/>
<glyph glyph-name="R" horiz-adv-x="1175" unicode="R" d="M653 1436q117 0 202 -24.5t140 -70t81.5 -109.5t26.5 -142q0 -86 -25.5 -160.5t-72.5 -134t-115 -102t-153 -64.5q36 -24 58 -66l296 -563h-183q-55 0 -74 43l-256 504q-13 25 -30 35.5t-54 10.5h-124l-73 -593h-204l175 1436h385zM563 742q83 0 146 24t105 66t63.5 100 t21.5 126q0 105 -65.5 161t-198.5 56h-181l-66 -533h175z"/>
<glyph glyph-name="S" horiz-adv-x="1020" unicode="S" d="M931 1204q-11 -16 -22.5 -23.5t-27.5 -7.5q-17 0 -36.5 17t-49 37t-71 37t-102.5 17q-62 0 -110 -19t-81 -51.5t-50 -76.5t-17 -94t24 -84.5t63 -59t88.5 -43.5t101.5 -39.5t101.5 -46t88.5 -62.5t63 -89.5t24 -127.5q0 -103 -35.5 -194.5t-101.5 -160.5t-160 -109 t-211 -40q-64 0 -122.5 13.5t-109.5 38t-93.5 59t-75.5 77.5l72 98q10 11 23 19t28 8q13 0 27.5 -10.5t32 -26.5t39.5 -34t51 -34t67 -26.5t87 -10.5q66 0 118.5 20.5t89.5 57.5t56.5 89t19.5 115q0 54 -23.5 89t-62.5 59.5t-88.5 42.5t-101 37t-101 43t-88.5 61.5t-62.5 92 t-23.5 134.5q0 89 32.5 171.5t93.5 145.5t148.5 100.5t197.5 37.5q112 0 202.5 -43.5t147.5 -116.5z"/>
<glyph glyph-name="T" horiz-adv-x="1097" unicode="T" d="M1147 1264h-415l-156 -1264h-204l154 1264h-417l20 172h1040z"/>
<glyph glyph-name="U" horiz-adv-x="1373" unicode="U" d="M632 163q78 0 143 29.5t114 83t80.5 127t42.5 162.5l106 871h206l-107 -871q-16 -125 -66 -231.5t-129 -184.5t-183.5 -122t-228.5 -44t-218 44t-154 122q-59 79 -83 185q-15 66 -15 138q0 45 6 93l106 871h205l-107 -871q-5 -40 -5 -76q-1 -45 7 -86q14 -74 50 -127 t94 -83t136 -30z"/>
<glyph glyph-name="V" horiz-adv-x="1269" unicode="V" d="M1365 1436l-712 -1436h-186l-361 1436h164q27 0 43 -14t20 -34l228 -991q9 -35 17 -76.5t13 -86.5q14 45 31 86.5t34 76.5l469 991q8 18 29 33t47 15h164z"/>
<glyph glyph-name="W" horiz-adv-x="1916" unicode="W" d="M1992 1436l-588 -1436h-186l-186 1076q-3 17 -5.5 36.5t-4.5 42.5q-15 -44 -29 -79l-451 -1076h-184l-236 1436h161q27 0 43.5 -13t18.5 -35l148 -981q2 -28 4.5 -59.5t4.5 -66.5q11 35 22.5 67t22.5 59l412 981q8 18 28 33t46 15h47q27 0 42.5 -13.5t21.5 -34.5 l170 -981q5 -27 8.5 -58t6.5 -65q19 67 38 123l388 981q6 19 28 33.5t48 14.5h161z"/>
<glyph glyph-name="X" horiz-adv-x="1228" unicode="X" d="M778 776l374 -776h-184q-22 0 -33.5 12t-18.5 26l-281 615q-9 -17 -19 -32l-417 -583q-14 -20 -30.5 -29t-36.5 -9h-204l566 767l-333 669h185q22 0 31.5 -6.5t17.5 -22.5l247 -530q5 10 10.5 19.5t12.5 20.5l349 489q21 30 50 30h213z"/>
<glyph glyph-name="Y" horiz-adv-x="1177" unicode="Y" d="M687 570l-71 -570h-205l71 568l-378 868h182q27 0 42 -13t23 -35l224 -554q11 -31 18.5 -59.5t13.5 -56.5q13 28 28.5 56t33.5 60l363 554q11 18 29.5 33t44.5 15h170z"/>
<glyph glyph-name="Z" horiz-adv-x="1114" unicode="Z" d="M1149 1371q-2 -15 -8.5 -27t-15.5 -26l-856 -1151h720l-21 -167h-997l8 64q3 15 9.5 27t14.5 25l858 1153h-696l21 167h973z"/>
<glyph glyph-name="bracketleft" horiz-adv-x="584" unicode="[" d="M631 1461q-2 -20 -18 -34.5t-39 -14.5h-143l-196 -1579h146q22 0 34.5 -14.5t9.5 -36.5l-9 -74h-353l224 1828h353z"/>
<glyph glyph-name="backslash" horiz-adv-x="835" unicode="\" d="M163 1452h80q35 0 58 -18.5t32 -50.5l356 -1475h-79q-30 0 -57.5 18t-35.5 54z"/>
<glyph glyph-name="bracketright" horiz-adv-x="585" unicode="]" d="M300 -292h-353l9 74q2 22 18 36.5t39 14.5h145l194 1579h-145q-23 0 -35 14.5t-10 34.5l9 75h354z"/>
<glyph glyph-name="asciicircum" d="M1056 784h-143q-19 0 -31.5 10.5t-20.5 25.5l-187 336q-14 24 -23.5 46.5t-17.5 45.5q-13 -43 -39 -92l-184 -336q-8 -14 -21 -25t-34 -11h-149l362 652h126z" unicode="^"/>
<glyph glyph-name="underscore" horiz-adv-x="888" unicode="_" d="M714 -160l-16 -126h-725l15 126h726z"/>
<glyph glyph-name="grave" horiz-adv-x="736" unicode="`" d="M442 1452q32 0 46.5 -11.5t24.5 -34.5l108 -242h-102q-20 0 -33 6.5t-25 23.5l-189 258h170z"/>
<glyph glyph-name="a" horiz-adv-x="1027" unicode="a" d="M677 254q-35 -61 -75.5 -110.5t-86 -84.5t-96 -54t-104.5 -19q-60 0 -109.5 23.5t-85 69t-55 112.5t-19.5 154q0 90 22.5 176.5t64.5 162.5t100.5 140t130.5 110t155.5 71.5t174.5 25.5q66 0 129.5 -10.5t125.5 -36.5l-122 -984h-102q-38 0 -51 19.5t-13 47.5zM745 883 q-39 6 -77 6q-89 0 -167 -41.5t-135.5 -111.5t-91 -162.5t-33.5 -193.5q0 -117 38 -174.5t110 -57.5q47 0 92.5 30.5t86 84t75 126.5t60.5 159z"/>
<glyph glyph-name="b" horiz-adv-x="1062" unicode="b" d="M338 774q37 59 80 106.5t90.5 81t98 51.5t103.5 18q129 0 202.5 -94t73.5 -278q0 -83 -17.5 -165.5t-49 -157.5t-76.5 -139t-100 -111t-118.5 -73.5t-133.5 -26.5q-80 0 -144.5 33.5t-106.5 93.5l-13 -57q-8 -29 -22 -42.5t-46 -13.5h-105l179 1476h191zM271 226 q38 -49 88.5 -69t102.5 -20q50 0 94 21t81 57.5t65.5 85.5t48.5 104.5t30.5 115.5t10.5 119q0 116 -40.5 175.5t-115.5 59.5q-46 0 -93.5 -29.5t-91.5 -82t-82.5 -124t-65.5 -155.5z"/>
<glyph glyph-name="c" horiz-adv-x="908" unicode="c" d="M821 182q-51 -57 -98 -95t-94.5 -60.5t-98 -31.5t-110.5 -9q-88 0 -156.5 30t-115 85t-70.5 132t-24 171q0 82 17.5 160.5t50.5 148t80 128t105 101t126.5 66t145.5 23.5q101 0 169.5 -36t120.5 -105l-61 -74q-8 -8 -17.5 -14t-20.5 -6q-14 0 -28 12t-35 26.5t-52.5 26.5 t-80.5 12q-66 0 -125 -35.5t-103 -98.5t-70 -149t-26 -187q0 -60 14 -109t40.5 -83t66 -52.5t90.5 -18.5q43 0 76.5 9t59 22t45.5 29t36 29t30 22t28 9q20 0 36 -18z"/>
<glyph glyph-name="d" horiz-adv-x="1063" unicode="d" d="M1042 1476l-182 -1476h-102q-38 0 -51 19.5t-13 47.5l17 195q-38 -63 -82.5 -114t-93 -87t-101 -55.5t-107.5 -19.5q-128 0 -201.5 94t-73.5 279q0 83 17.5 165.5t49 157t76 138.5t99.5 111t118.5 73.5t133.5 26.5q74 0 134.5 -28t102.5 -79l68 552h191zM766 791 q-37 49 -88 69t-102 20q-50 0 -94.5 -21t-81 -57t-65.5 -85t-49 -105t-30.5 -116t-10.5 -118q0 -116 41 -176t116 -60q46 0 93.5 29.5t91 81.5t81.5 123t66 155z"/>
<glyph glyph-name="e" horiz-adv-x="961" unicode="e" d="M864 188q-52 -53 -101 -91t-100.5 -63t-107.5 -36.5t-122 -11.5q-87 0 -157.5 29.5t-119.5 83.5t-75.5 130.5t-26.5 171.5q0 79 16.5 156.5t48.5 147t78 129.5t105 103.5t130 68t153 24.5q78 0 135 -22t94.5 -56.5t55.5 -76.5t18 -82q0 -66 -27 -121.5t-98.5 -100 t-196.5 -77.5t-321 -53q-1 -9 -1 -18v-18q0 -131 56.5 -198t170.5 -67q47 0 84 9.5t65.5 23.5t50.5 30.5t40.5 30.5t34.5 23.5t33 9.5q11 0 19.5 -5.5t16.5 -13.5zM574 891q-60 0 -110 -24.5t-90 -68t-68 -102t-44 -127.5q147 19 235.5 42t136.5 50.5t63.5 58.5t15.5 66 q0 17 -7.5 35.5t-24 34t-43 25.5t-64.5 10z"/>
<glyph glyph-name="f" horiz-adv-x="646" unicode="f" d="M408 858l-100 -823l-47 -201q-13 -40 -36 -61t-65 -21h-77l133 1104l-94 14q-20 5 -30.5 15t-10.5 26q0 4 1 9l9 80h143l11 92q11 87 44.5 155t84 115.5t116 72t141.5 24.5q62 0 114 -20l-18 -102q-5 -21 -28 -22t-56 -1q-42 0 -77.5 -12t-63.5 -39t-46.5 -70.5 t-26.5 -106.5l-10 -86h247l-18 -142h-240z"/>
<glyph glyph-name="g" horiz-adv-x="977" unicode="g" d="M991 980l-9 -65q-5 -40 -42 -52l-120 -24q8 -23 12 -50t4 -57q-1 -49 -12 -88.5t-27.5 -72.5t-35.5 -62.5t-35.5 -59t-27.5 -61t-11 -68.5q0 -41 19.5 -75.5t43 -71t43 -78.5t19.5 -99q-1 -72 -34 -137t-94.5 -114.5t-150 -78.5t-199.5 -29q-89 0 -161.5 18.5t-123.5 52 t-79 80.5t-28 103q0 65 27.5 115t74.5 85.5t109 58t129.5 33t135.5 10.5q3 0 40.5 -0.5t104.5 -10.5q-8 17 -12.5 36t-4.5 42q0 30 9 63.5t29 72.5q-38 -26 -85 -40t-109 -14q-58 0 -109 19t-89.5 56.5t-61 93.5t-22.5 131q0 73 27 143t79 124.5t129 88t177 33.5 q54 0 103 -12.5t89 -38.5h279zM444 463q51 0 91 23t67 60t41 83.5t15 94.5q0 85 -42.5 129t-117.5 44q-51 0 -90.5 -21.5t-66.5 -57t-41 -82t-14 -95.5q0 -86 41.5 -132t116.5 -46zM634 -19q0 23 -3.5 43t-9.5 37q-105 18 -186 18q-18 0 -73.5 -3t-116 -25.5t-89 -58.5 t-28.5 -77q0 -69 57 -105t166 -36q63 0 115.5 16.5t89.5 44.5t57.5 66t20.5 80z"/>
<glyph glyph-name="h" horiz-adv-x="1065" unicode="h" d="M347 805q78 112 172 169t192 57q65 0 114.5 -25.5t80.5 -74.5t39.5 -103t8.5 -96q0 -40 -5 -85l-76 -647h-195l76 647q5 39 5 71q0 63 -23 107.5t-98 44.5q-44 0 -89.5 -24t-89 -67.5t-81 -106t-64.5 -138.5l-65 -534h-195l179 1476h195z"/>
<glyph glyph-name="i" horiz-adv-x="468" unicode="i" d="M445 1330q0 -27 -11.5 -51.5t-30 -43t-42.5 -29t-49 -10.5t-48 10.5t-40.5 29t-28 43t-10.5 51.5t10.5 51.5t28.5 43t41.5 29.5t48.5 11t49 -10.5t42 -29t29 -43t11 -52.5zM379 1016l-123 -1016h-192l122 1016h193z"/>
<glyph glyph-name="j" horiz-adv-x="466" unicode="j" d="M439 1330q0 -27 -11 -51.5t-29.5 -43t-42.5 -29t-49 -10.5t-48 10.5t-41 29t-28.5 43t-10.5 51.5t11 51.5t29 43t41 29.5t48 11t49 -10.5t42 -29t29 -43t11 -52.5zM378 1016l-132 -1080q-8 -63 -31 -117.5t-62 -95t-94 -63.5t-125 -23q-36 0 -61.5 5t-51.5 14l20 106 q3 10 7.5 14.5t12 6.5t19 2h28.5q70 0 103 35.5t44 115.5l132 1080h191z"/>
<glyph glyph-name="k" horiz-adv-x="961" unicode="k" d="M426 1476l-106 -863h29q22 0 35.5 6.5t28.5 23.5l320 335q14 19 31 28.5t42 9.5h173l-378 -393q-31 -36 -64 -56q17 -13 28.5 -30t21.5 -38l291 -499h-168q-23 0 -38.5 8t-24.5 29l-244 408q-11 23 -24 29.5t-41 6.5h-34l-59 -481h-192l180 1476h193z"/>
<glyph glyph-name="l" horiz-adv-x="457" unicode="l" d="M59 0l179 1476h192l-179 -1476h-192z"/>
<glyph glyph-name="m" horiz-adv-x="1577" unicode="m" d="M54 0l123 1018h98q32 0 49 -16t17 -50l-12 -163q73 120 160 181t184 61q100 0 150.5 -68t52.5 -197q75 136 167.5 200.5t197.5 64.5q131 0 187 -99q40 -70 40 -184q0 -47 -7 -101l-76 -647h-192l76 647q6 46 6 82q0 54 -13 86q-21 54 -91 54q-42 0 -83 -21t-79 -62.5 t-71 -101.5t-58 -138l-65 -546h-192l76 647q7 53 7 93v6q0 42 -11 69t-32.5 40.5t-56.5 13.5q-46 0 -88.5 -23.5t-80 -67.5t-70 -106.5t-58.5 -141.5l-64 -530h-191z"/>
<glyph glyph-name="n" horiz-adv-x="1065" unicode="n" d="M327 773q81 128 181 193t206 65q64 0 113.5 -25.5t80.5 -74.5q30 -49 42 -121q6 -35 6 -74q0 -42 -6 -89l-76 -647h-195l77 647q5 39 5 71q-1 62 -19 98q-28 54 -101 53q-46 0 -94 -25.5t-92.5 -72t-83 -112.5t-64.5 -147l-57 -512h-195l121 1018h98q32 0 49 -16t17 -50z "/>
<glyph glyph-name="o" horiz-adv-x="1040" unicode="o" d="M437 -14q-83 0 -153 28.5t-120.5 82.5t-79 132.5t-28.5 179.5q0 129 40.5 242.5t111 198t166 133t205.5 48.5q83 0 153 -28.5t120.5 -82.5t79 -132.5t28.5 -178.5q0 -128 -40.5 -241.5t-111 -198.5t-166 -134t-205.5 -49zM455 138q70 0 127.5 38.5t98 103.5t62.5 150 t22 178q0 137 -52 204t-152 67q-71 0 -128 -38.5t-97.5 -103t-62.5 -149.5t-22 -178q0 -135 52 -203.5t152 -68.5z"/>
<glyph glyph-name="p" horiz-adv-x="1062" unicode="p" d="M327 756q38 63 82 113.5t92.5 86.5t101.5 55.5t108 19.5q128 0 201.5 -94t73.5 -278q0 -83 -17.5 -165.5t-49 -157.5t-76.5 -139t-100 -111t-118.5 -73.5t-133.5 -26.5q-73 0 -133 28.5t-103 79.5l-53 -435h-190l165 1359h98q32 0 49 -16t17 -50zM272 227 q37 -49 88 -69.5t102 -20.5q50 0 94.5 21t81 57.5t65.5 85.5t49 104.5t30.5 115.5t10.5 119q0 116 -41 175.5t-116 59.5q-46 0 -93.5 -29.5t-91 -81t-81.5 -122.5t-66 -155z"/>
<glyph glyph-name="q" horiz-adv-x="1028" unicode="q" d="M662 229q-69 -112 -156.5 -177.5t-190.5 -65.5q-60 0 -109.5 23.5t-85 69t-55 112.5t-19.5 154q0 90 23 176.5t64.5 162.5t100.5 140t131 110t155.5 71.5t174.5 25.5q66 0 129.5 -10.5t124.5 -36.5l-164 -1325h-124q-20 0 -32.5 7t-19.5 18.5t-9 25.5t0 29zM745 883 q-39 6 -77 6q-89 0 -166.5 -41.5t-135 -111.5t-91 -162.5t-33.5 -193.5q0 -117 38 -174.5t110 -57.5q46 0 91 30t85.5 82.5t75 124.5t60.5 156z"/>
<glyph glyph-name="r" horiz-adv-x="690" unicode="r" d="M326 742q40 83 86 143.5t96 95t83 39t46 4.5q41 0 82 -18l-35 -188q-48 19 -92 19q-73 0 -152 -70.5t-139 -305.5l-56 -461h-191l123 1018h98q32 0 49 -16t17 -50z"/>
<glyph glyph-name="s" horiz-adv-x="803" unicode="s" d="M715 846q-9 -13 -17.5 -18.5t-21.5 -5.5q-15 0 -31.5 11t-40 24t-56.5 24t-80 11q-44 0 -79 -12t-60.5 -32.5t-39 -48.5t-13.5 -59q0 -34 18 -57t47 -40.5t66.5 -31.5t76.5 -29.5t76.5 -34.5t66.5 -46.5t47 -66.5t18 -93q0 -71 -28 -135.5t-80.5 -114t-126.5 -78.5 t-166 -29q-97 0 -173 35t-123 89l48 75q19 29 51 29q17 0 33.5 -14t40.5 -30.5t59 -30.5t90 -14q47 0 84.5 14t63.5 37.5t39.5 54.5t13.5 66q0 37 -18 62.5t-47 43t-66.5 31t-76 28t-76 32t-66.5 44.5t-47 65.5t-18 93.5q0 65 26 125.5t74.5 107.5t118 75t157.5 28 q94 0 164.5 -30.5t121.5 -83.5z"/>
<glyph glyph-name="t" horiz-adv-x="715" unicode="t" d="M136 196v15.5t1.5 27.5t5 48t9.5 77l61 494h-109q-15 0 -23.5 9t-8.5 24q0 4 1 9l9 79l155 23l78 303q5 17 16.5 26.5t28.5 9.5h104l-43 -341h261l-16 -142h-262l-60 -484q-5 -41 -8 -66t-4.5 -39.5t-2 -20.5t-0.5 -9q0 -47 23 -71t61 -24q25 0 43.5 7t32.5 15.5 t23.5 15.5t17.5 7q9 0 14 -4.5t10 -14.5l41 -94q-51 -44 -114 -68t-127 -24q-100 0 -158 54.5t-60 157.5z"/>
<glyph glyph-name="u" horiz-adv-x="1065" unicode="u" d="M986 1016l-123 -1016h-97q-71 0 -71 70l12 166q-79 -124 -177.5 -187t-202.5 -63q-64 0 -113.5 25.5t-80.5 74.5q-31 48 -43 120q-6 37 -5 79q0 40 5 85l77 646h194l-76 -646q-5 -39 -5 -71q0 -62 18 -97q27 -54 102 -54q45 0 92 24.5t91 69.5t81.5 109t64.5 142l62 523 h195z"/>
<glyph glyph-name="v" horiz-adv-x="964" unicode="v" d="M998 1016l-507 -1016h-164l-260 1016h159q22 0 34.5 -11t16.5 -28l140 -624q7 -42 11 -81.5t6 -79.5q13 40 27 79.5t31 81.5l297 624q8 17 23 28t34 11h152z"/>
<glyph glyph-name="w" horiz-adv-x="1453" unicode="w" d="M1474 1016l-425 -1016h-149q-27 0 -31 37l-117 662q-3 17 -4.5 33.5t-3.5 33.5q-5 -17 -11.5 -34.5t-13.5 -34.5l-280 -660q-15 -37 -44 -37h-143l-177 1016h146q21 0 34.5 -11t16.5 -28l85 -624q3 -38 4.5 -73t2.5 -70q13 35 27 70t28 73l264 628q6 17 21 27.5t33 10.5 h82q20 0 32.5 -10.5t14.5 -27.5l107 -628q5 -37 9.5 -73t7.5 -71q10 35 21 70.5t24 73.5l242 624q6 17 21 28t34 11h142z"/>
<glyph glyph-name="x" horiz-adv-x="940" unicode="x" d="M587 547l268 -547h-175q-21 0 -33 10.5t-19 27.5l-182 395q-5 -12 -10.5 -22.5t-11.5 -19.5l-264 -354q-11 -14 -24 -25.5t-33 -11.5h-170l409 548l-242 468h175q21 0 30.5 -6t16.5 -20l162 -338q5 11 11.5 22.5t14.5 22.5l217 289q17 30 45 30h177z"/>
<glyph glyph-name="y" horiz-adv-x="965" unicode="y" d="M1002 1016l-682 -1313q-23 -44 -67 -44h-144l222 406l-262 951h162q23 0 34 -11t16 -28l154 -610q5 -22 8.5 -43.5t5.5 -44.5q9 23 18.5 45t20.5 44l303 610q8 17 23.5 27.5t31.5 10.5h156z"/>
<glyph glyph-name="z" horiz-adv-x="853" unicode="z" d="M841 1016l-10 -82q-2 -21 -11.5 -40.5t-21.5 -34.5l-566 -706h487l-17 -153h-722l10 82q1 14 10 33.5t23 36.5l570 711h-479l18 153h709z"/>
<glyph glyph-name="braceleft" horiz-adv-x="571" unicode="{" d="M623 1536l-10 -85q-2 -21 -18.5 -30t-27.5 -9h-15q-72 0 -118 -55t-51 -156q-4 -48 -4.5 -78.5t-0.5 -45.5q0 -30 1 -66t1 -78t-3 -83q-3 -45 -17 -82.5t-36.5 -67t-52 -49.5t-63.5 -29q54 -17 86 -64.5t32 -110.5q0 -59 -14.5 -116t-31.5 -113.5t-31.5 -115 t-14.5 -120.5q0 -67 32 -108t92 -41h15q12 0 25.5 -10t11.5 -30l-11 -85h-49q-71 0 -124 20.5t-88 56.5t-52 86t-17 109q0 66 15.5 125.5t34 116.5t34 113t15.5 115q0 51 -26.5 83.5t-78.5 32.5l14 113q74 0 108.5 60t34.5 185q0 20 -1.5 45t-3 51t-2.5 51t-1 46 q0 199 91.5 309t270.5 110h49z"/>
<glyph glyph-name="bar" horiz-adv-x="522" unicode="|" d="M184 1537h152v-1878h-152v1878z"/>
<glyph glyph-name="braceright" horiz-adv-x="572" unicode="}" d="M226 1536q71 0 123.5 -20t87 -56t51.5 -86t17 -110q0 -66 -15 -126t-33.5 -117t-33.5 -113t-15 -114q0 -51 26 -83t78 -32l-13 -113q-74 0 -109 -60.5t-35 -185.5q0 -20 1 -45t2.5 -51t2.5 -51t1 -46q0 -99 -23 -177t-68.5 -131.5t-113 -82t-156.5 -28.5h-50l12 85 q2 20 17.5 30t28.5 10h14q72 0 118 54.5t52 156.5q4 47 4 92.5t-0.5 89t-0.5 85t3 82.5q3 45 16.5 82.5t36 67t52 50t63.5 29.5q-55 17 -87 64t-32 111q0 59 14.5 115.5t32.5 113.5t32.5 115.5t14.5 120.5q0 67 -32 108.5t-92 41.5h-15q-6 0 -13 2t-13 7t-9 12t-1 18l9 85 h50z"/>
<glyph glyph-name="asciitilde" d="M756 622q63 0 97.5 41t35.5 110h158q0 -70 -19 -127.5t-54.5 -99t-87.5 -64t-118 -22.5q-53 0 -103 15.5t-96.5 34.5t-88.5 34.5t-77 15.5q-63 0 -98 -40.5t-36 -109.5h-158q0 70 19 127.5t55 98.5t88 64t118 23q52 0 102 -16t96.5 -34.5t88.5 -34.5t78 -16z" unicode="~"/>
<glyph glyph-name="exclamdown" horiz-adv-x="478" unicode="¡" d="M141 900q0 27 10 51t27.5 42t41.5 28.5t52 10.5t52 -10.5t42 -28.5t28 -42t10 -51q0 -28 -10 -52t-28 -42t-42 -28t-52 -10t-52 10t-41.5 28t-27.5 42t-10 52zM44 -342l66 540q5 45 12 88t15.5 86.5t18 89.5t20.5 98h117q-2 -52 -3.5 -98t-4.5 -89.5t-6.5 -86.5t-9.5 -88 l-66 -540h-159z"/>
<glyph glyph-name="cent" d="M801 1023q81 -12 142.5 -44t108.5 -81l-56 -67q-9 -11 -18.5 -16.5t-23.5 -5.5q-12 0 -27 8.5t-36 20t-49.5 23t-68.5 18.5l-145 -748q62 4 105.5 19.5t74 32t51 29.5t37.5 13q24 0 34 -16l43 -66q-35 -36 -77 -63.5t-90 -47t-100 -30.5t-106 -14l-33 -170 q-5 -20 -20.5 -35.5t-38.5 -15.5h-70l43 223q-81 10 -148 45t-114.5 91.5t-74 134t-26.5 172.5q0 126 38.5 233.5t111.5 187t178 126t237 50.5l34 174q5 20 20.5 35.5t38.5 15.5h70zM655 884q-86 -7 -152 -41t-110 -91t-66.5 -135.5t-22.5 -174.5q0 -125 54 -202.5 t152 -100.5z" unicode="¢"/>
<glyph glyph-name="sterling" d="M880 661q-2 -19 -19 -34t-42 -15h-413l-29 -243q-9 -73 -35 -125.5t-72 -94.5q65 14 128 14h663l-9 -80q-2 -14 -9.5 -29t-20 -27t-28.5 -19.5t-34 -7.5h-964l15 122q35 10 63.5 25t49.5 38t34 55.5t19 77.5l36 294h-162l10 77q2 19 18.5 34t41.5 15h107l32 259 q12 94 52 177t105.5 144.5t155 97t199.5 35.5q84 0 146 -19t106.5 -53t74 -79.5t47.5 -99.5l-82 -49q-28 -14 -52 -11.5t-42 26.5q-17 27 -34.5 50t-41.5 39.5t-58 25.5t-83 9q-62 0 -113 -20.5t-90 -58.5t-64 -92t-33 -121l-32 -260h467z" unicode="£"/>
<glyph glyph-name="currency" d="M938 222l-152 152q-43 -29 -94 -45.5t-108 -16.5q-56 0 -106 15.5t-93 43.5l-153 -152l-98 100l151 151q-29 44 -45 94.5t-16 107.5q0 56 15.5 106t43.5 93l-153 153l100 98l151 -151q44 29 95 45.5t108 16.5q55 0 105.5 -15.5t93.5 -43.5l152 152l98 -100l-151 -151 q29 -44 45.5 -95t16.5 -108q0 -55 -15.5 -105t-43.5 -93l152 -152zM368 672q0 -44 17 -82.5t46.5 -68t68.5 -46.5t84 -17t84.5 17t69 46.5t46.5 68t17 82.5q0 45 -17 84.5t-46.5 69t-69 46.5t-84.5 17t-84 -17t-68.5 -46.5t-46.5 -69t-17 -84.5z" unicode="¤"/>
<glyph glyph-name="yen" d="M707 626h302l-12 -108h-337l-13 -103h336l-13 -108h-337l-38 -307h-188l37 307h-337l14 108h336l13 103h-337l13 108h302l-307 809h158q26 0 41.5 -13t21.5 -35l200 -553q11 -36 17.5 -66.5t9.5 -60.5q11 30 24 61t32 66l335 553q11 19 30 33.5t45 14.5h159z" unicode="¥"/>
<glyph glyph-name="brokenbar" horiz-adv-x="521" unicode="¦" d="M183 458h152v-799h-152v799zM183 1537h152v-798h-152v798z"/>
<glyph glyph-name="section" horiz-adv-x="929" unicode="§" d="M832 1262q-16 -24 -41 -24q-16 0 -33 11t-40 24.5t-55.5 24.5t-78.5 11q-45 0 -81.5 -13t-62 -35t-39 -51t-13.5 -62t19.5 -58.5t51.5 -47.5t73 -42t84 -41.5t84 -47t73 -58t51.5 -73.5t19.5 -95q0 -90 -44 -162t-139 -114q35 -33 57 -75.5t22 -99.5q0 -75 -27.5 -140 t-79 -113.5t-126.5 -76.5t-171 -28q-97 0 -175.5 34.5t-126.5 88.5l53 72q9 14 21 21t31 7t36 -14t41 -30.5t59.5 -30t92.5 -13.5q48 0 85.5 13.5t63.5 37t39.5 56t13.5 71.5q0 40 -20 69t-53 52.5t-75 43t-86 40t-86 44.5t-75 55.5t-53 73t-20 97.5q0 90 48.5 160 t148.5 110q-36 33 -58.5 77.5t-22.5 106.5q0 66 26 126t75 106t119.5 73t160.5 27q94 0 165 -32t118 -87zM572 473q54 28 77.5 68t23.5 89q0 46 -26 79t-67 59.5t-91.5 50t-98.5 50.5q-64 -32 -90 -70t-26 -87q0 -44 27.5 -76t71 -58.5t96.5 -51t103 -53.5z"/>
<glyph glyph-name="dieresis" horiz-adv-x="736" unicode="¨" d="M816 1290q0 -24 -9.5 -45.5t-25.5 -37.5t-38 -25t-46 -9t-46 9t-38 25t-25.5 37.5t-9.5 45.5q0 25 9.5 47t25.5 38.5t38 26t46 9.5t46 -9.5t38 -26t25.5 -38.5t9.5 -47zM450 1290q0 -24 -10 -45.5t-26.5 -37.5t-38.5 -25t-46 -9t-45 9t-37 25t-25.5 37.5t-9.5 45.5 q0 25 9.5 47t25.5 38.5t37 26t45 9.5t46 -9.5t38.5 -26t26.5 -38.5t10 -47z"/>
<glyph glyph-name="copyright" horiz-adv-x="1659" unicode="©" d="M220 718q0 -88 22 -169.5t62 -152t96.5 -128t125.5 -98.5t149 -63.5t167 -22.5q131 0 245.5 49.5t199.5 135t134 201t49 248.5t-49 250t-134 203t-199.5 136t-245.5 50q-87 0 -167 -22.5t-149 -64t-125.5 -99.5t-96.5 -129t-62 -153t-22 -171zM110 718q0 101 26 195 t74 175t115 148t148 115t174.5 74t194.5 26q152 0 285.5 -57.5t233.5 -157t157.5 -233t57.5 -285.5t-57.5 -285t-157.5 -232.5t-233.5 -157t-285.5 -57.5q-101 0 -194.5 26t-174.5 74t-148 114.5t-115 148t-74 175t-26 194.5zM1091 484q8 1 16 -3t13 -9l66 -71 q-57 -67 -140.5 -103.5t-199.5 -36.5q-98 0 -178.5 34.5t-138 96t-89 145.5t-31.5 184q0 101 34.5 185.5t95.5 145t144.5 94.5t181.5 34q109 0 186 -35t133 -91l-50 -72q-5 -6 -13.5 -12.5t-22.5 -6.5t-29.5 11t-39.5 24t-60.5 24t-93.5 11q-68 0 -122 -22t-92 -62.5 t-58 -98t-20 -129.5q0 -75 20.5 -133t57 -98t86.5 -60.5t109 -20.5q51 0 85 8t59.5 19.5t46 24.5t44.5 23z"/>
<glyph glyph-name="ordfeminine" horiz-adv-x="685" unicode="ª" d="M209 1357q55 50 116 73t130 23q49 0 86.5 -19t61.5 -50.5t32 -65.5t8 -62q0 -17 -2 -34l-47 -382h-63q-20 0 -28 6t-15 24l-6 46q-24 -21 -47 -36.5t-46.5 -26t-49.5 -16t-57 -5.5q-66 0 -107 35t-41 104q0 39 18 76.5t60.5 67.5t113.5 49.5t177 22.5l4 35q1 12 1 23 q0 38 -15.5 67t-67.5 29q-33 0 -56.5 -8.5t-41 -18.5t-32 -18.5t-30.5 -8.5q-15 0 -23.5 8t-13.5 17zM493 1100q-63 -2 -106 -11t-69.5 -23.5t-38.5 -34t-12 -43.5q0 -32 19 -46t51 -14q43 0 76 18t68 51z"/>
<glyph glyph-name="guillemotleft" horiz-adv-x="800" unicode="«" d="M257 568q-16 -25 -33 -37q7 -6 12.5 -15.5t10.5 -21.5l108 -257q11 -25 4 -46t-32 -33l-66 -30l-184 391l3 24l280 390l58 -30q25 -12 25 -35q0 -20 -16 -43zM536 568q-16 -25 -33 -37q7 -6 12.5 -15.5t10.5 -21.5l108 -257q11 -25 4 -46t-32 -33l-66 -30l-184 391l3 24 l280 390l58 -30q25 -12 25 -35q0 -20 -16 -43z"/>
<glyph glyph-name="logicalnot" d="M1009 600h-1l-35 -287h-160l35 287h-702l16 143h864z" unicode="¬"/>
<glyph glyph-name="registered" horiz-adv-x="1659" unicode="®" d="M842 1451q152 0 285.5 -57.5t233.5 -157t157.5 -233t57.5 -285.5t-57.5 -285t-157.5 -232.5t-233.5 -157t-285.5 -57.5q-101 0 -194.5 26t-174.5 74t-148 114.5t-115 148t-74 175t-26 194.5t26 195t74 175t115 148t148 115t174.5 74t194.5 26zM842 84q131 0 245.5 49.5 t199.5 135t134 201t49 248.5t-49 250t-134 203t-199.5 136t-245.5 50q-87 0 -167 -22.5t-149 -64t-125.5 -99.5t-96.5 -129t-62 -153t-22 -171q0 -88 22 -169.5t62 -152t96.5 -128t125.5 -98.5t149 -63.5t167 -22.5zM832 1167q175 0 259.5 -64t84.5 -187q0 -92 -51 -158.5 t-155 -92.5q18 -11 31 -27.5t25 -37.5l216 -327h-162q-37 0 -52 28l-188 291q-8 14 -21 21t-39 7h-73v-347h-171v894h296zM816 744q54 0 91 10t59.5 29t32 47.5t9.5 64.5t-8.5 62t-29 43.5t-54 26t-84.5 8.5h-125v-291h109z"/>
<glyph glyph-name="macron" horiz-adv-x="736" unicode="¯" d="M254 1354h534l-15 -127h-534z"/>
<glyph glyph-name="macron" horiz-adv-x="736" unicode="ˉ" d="M254 1354h534l-15 -127h-534z"/>
<glyph glyph-name="degree" horiz-adv-x="822" unicode="°" d="M277 1126q0 -41 15 -76.5t41 -61.5t61.5 -41t76.5 -15t76 15t61 41t40.5 61.5t14.5 76.5t-14.5 76.5t-40.5 62t-61 41.5t-76 15t-76.5 -15t-61.5 -41.5t-41 -62t-15 -76.5zM141 1127q0 68 25.5 127.5t70.5 103.5t105 69.5t129 25.5q70 0 130.5 -25.5t105 -69.5t70 -103.5 t25.5 -127.5q0 -67 -25.5 -126.5t-70 -104t-105 -70.5t-130.5 -26q-69 0 -129 26t-105 70.5t-70.5 104t-25.5 126.5z"/>
<glyph glyph-name="plusminus" d="M1092 836l-18 -143h-404l-45 -364h-154l45 364h-402l16 143h403l46 373h154l-46 -373h405zM55 223h961l-17 -143h-961z" unicode="±"/>
<glyph glyph-name="uni00B2" horiz-adv-x="668" unicode="²" d="M594 1025q41 0 41 -34q0 -4 -1 -9l-9 -82h-516l6 45q2 14 8.5 29t20.5 27l247 217q30 27 56 54t45.5 55t31 56t11.5 57q0 42 -25 64.5t-64 22.5q-44 0 -74.5 -22.5t-48.5 -63.5q-13 -19 -27 -26t-41 -3l-74 13q29 108 105 161t181 53q49 0 87.5 -13.5t65 -38t40.5 -58.5 t14 -75q0 -45 -15.5 -83t-41 -72t-58.5 -65t-69 -64l-176 -159q51 14 94 14h186z"/>
<glyph glyph-name="uni00B3" horiz-adv-x="668" unicode="³" d="M188 1425q15 54 42 94t63.5 66.5t80.5 40t93 13.5q48 0 86 -13.5t64.5 -36.5t40.5 -54t14 -67q0 -138 -134 -184q108 -35 108 -139q0 -62 -24.5 -109.5t-64.5 -79.5t-90 -48t-102 -16q-56 0 -96.5 12t-69 36t-46 60.5t-27.5 85.5l63 26q24 9 44 4.5t26 -22.5q3 -10 9 -25 t18.5 -28.5t33 -23.5t52.5 -10t57 10.5t42.5 27.5t27 40t9.5 48q0 46 -34.5 69t-117.5 23l12 97q89 2 129 30.5t40 88.5q0 41 -24.5 62.5t-66.5 21.5q-47 0 -76.5 -22.5t-46.5 -60.5q-13 -21 -26 -27.5t-39 -2.5z"/>
<glyph glyph-name="acute" horiz-adv-x="736" unicode="´" d="M812 1452l-247 -258q-16 -17 -30 -23.5t-34 -6.5h-108l162 242q15 23 32.5 34.5t49.5 11.5h175z"/>
<glyph glyph-name="uni00B5" horiz-adv-x="1219" unicode="µ" d="M1099 136l-9 -78q-4 -26 -39.5 -47t-95.5 -21q-39 0 -73.5 12t-61 36.5t-43.5 62t-21 88.5q-63 -86 -136 -133.5t-158 -47.5q-119 0 -179 74v-22q0 -28 -2 -63t-6 -69l-33 -269h-97q-42 0 -60 19.5t-18 48.5q0 7 1 16l157 1273h196l-79 -643q-1 -11 -1 -22 q0 -79 35 -130.5t118 -51.5q79 0 142 48t111 133l82 666h196l-91 -734q-2 -18 -2 -33q0 -50 25.5 -81.5t81.5 -31.5h60z"/>
<glyph glyph-name="paragraph" horiz-adv-x="1410" unicode="¶" d="M1423 1269h-218l-181 -1472h-172l181 1472h-266l-181 -1472h-172l105 855q-93 0 -168 25.5t-128 71.5t-81.5 110t-28.5 141q0 91 36 170.5t102 138.5t158.5 93t205.5 34h828z"/>
<glyph glyph-name="cedilla" horiz-adv-x="736" unicode="¸" d="M395 -72q76 -18 109.5 -50t33.5 -78q0 -37 -17 -66t-48 -49.5t-73 -31t-92 -10.5q-38 0 -70.5 7.5t-60.5 21.5l26 61q4 9 9.5 14t16.5 5q6 0 12.5 -3.5t15.5 -7t21 -7t29 -3.5q38 0 57.5 18t19.5 44q0 32 -34 46t-99 23l72 166h110z"/>
<glyph glyph-name="uni00B9" horiz-adv-x="668" unicode="¹" d="M607 1001l-12 -101h-399l13 101h145l51 415l10 45l-112 -84q-20 -14 -37 -8.5t-24 14.5l-35 59l247 191h115l-78 -632h116z"/>
<glyph glyph-name="ordmasculine" horiz-adv-x="750" unicode="º" d="M417 941q85 0 127 66t42 180q0 72 -30.5 112t-90.5 40q-48 0 -80.5 -18t-53 -50.5t-29.5 -78t-9 -100.5q0 -72 30.5 -111.5t93.5 -39.5zM478 1452q59 0 106 -19t80 -53.5t50.5 -83.5t17.5 -109q0 -82 -24.5 -148.5t-68 -113t-104 -72t-132.5 -25.5q-60 0 -108 19 t-81 53.5t-51 84t-18 110.5q0 82 24.5 148t69 112.5t105.5 71.5t134 25z"/>
<glyph glyph-name="guillemotright" horiz-adv-x="800" unicode="»" d="M424 543l-3 -24l-279 -391l-57 30q-26 13 -26 37q0 20 15 42l171 257q15 22 32 37q-13 13 -23 37l-108 257q-10 25 -3 46t33 32l65 30zM704 543l-3 -24l-279 -391l-57 30q-26 13 -26 37q0 20 15 42l171 257q15 22 32 37q-13 13 -23 37l-108 257q-10 25 -3 46t33 32l65 30 z"/>
<glyph glyph-name="onequarter" horiz-adv-x="1400" unicode="¼" d="M330 58q-24 -34 -49 -46t-56 -12h-77l927 1369q23 31 49.5 48.5t61.5 17.5h78zM556 805l-12 -101h-399l13 101h145l51 415l10 45l-112 -84q-20 -14 -37 -8.5t-24 14.5l-35 59l247 191h115l-78 -632h116zM1289 281l-8 -80q-3 -11 -10.5 -19.5t-21.5 -8.5h-79l-21 -173 h-116l21 173h-302q-19 0 -28.5 8.5t-10.5 22.5l-5 67l400 460h131l-55 -450h105zM1068 281l27 218q3 20 7 43.5t11 49.5l-265 -311h220z"/>
<glyph glyph-name="onehalf" horiz-adv-x="1380" unicode="½" d="M293 58q-24 -34 -49 -46t-56 -12h-77l927 1369q23 31 49.5 48.5t61.5 17.5h78zM559 805l-12 -101h-399l13 101h145l51 415l10 45l-112 -84q-20 -14 -37 -8.5t-24 14.5l-35 59l247 191h115l-78 -632h116zM1197 125q41 0 41 -34q0 -4 -1 -9l-9 -82h-516l6 45q2 14 8.5 29 t20.5 27l247 217q30 27 56 54t45.5 55t31 56t11.5 57q0 42 -25 64.5t-64 22.5q-44 0 -74.5 -22.5t-48.5 -63.5q-13 -19 -27 -26t-41 -3l-74 13q29 108 105 161t181 53q49 0 87.5 -13.5t65 -38t40.5 -58.5t14 -75q0 -45 -15.5 -83t-41 -72t-58.5 -65t-69 -64l-176 -159 q51 14 94 14h186z"/>
<glyph glyph-name="threequarters" horiz-adv-x="1417" unicode="¾" d="M354 58q-24 -34 -49 -46t-56 -12h-77l927 1369q23 31 49.5 48.5t61.5 17.5h78zM176 1229q15 54 42 94t63.5 66.5t80.5 40t93 13.5q48 0 86 -13.5t64.5 -36.5t40.5 -54t14 -67q0 -138 -134 -184q108 -35 108 -139q0 -62 -24.5 -109.5t-64.5 -79.5t-90 -48t-102 -16 q-56 0 -96.5 12t-69 36t-46 60.5t-27.5 85.5l63 26q24 9 44 4.5t26 -22.5q3 -10 9 -25t18.5 -28.5t33 -23.5t52.5 -10t57 10.5t42.5 27.5t27 40t9.5 48q0 46 -34.5 69t-117.5 23l12 97q89 2 129 30.5t40 88.5q0 41 -24.5 62.5t-66.5 21.5q-47 0 -76.5 -22.5t-46.5 -60.5 q-13 -21 -26 -27.5t-39 -2.5zM1309 281l-8 -80q-3 -11 -10.5 -19.5t-21.5 -8.5h-79l-21 -173h-116l21 173h-302q-19 0 -28.5 8.5t-10.5 22.5l-5 67l400 460h131l-55 -450h105zM1088 281l27 218q3 20 7 43.5t11 49.5l-265 -311h220z"/>
<glyph glyph-name="questiondown" horiz-adv-x="823" unicode="¿" d="M369 900q0 27 10 51t27.5 42t41.5 28.5t52 10.5q27 0 51 -10.5t42 -28.5t28.5 -42t10.5 -51q0 -28 -10.5 -52t-28.5 -42t-42 -28t-51 -10q-28 0 -52 10t-41.5 28t-27.5 42t-10 52zM657 -211q-33 -29 -71.5 -55t-83 -46t-94.5 -32t-107 -12q-69 0 -126 19.5t-97.5 56.5 t-63 89.5t-22.5 117.5q0 81 23.5 138t59.5 98.5t79 71.5t82 56.5t68 53t38 62.5l38 153h128l-8 -167q-2 -45 -26.5 -79t-60 -63t-76 -56.5t-75.5 -60.5t-58 -74.5t-23 -98.5q0 -39 12.5 -69.5t33.5 -50.5t49 -30.5t60 -10.5q54 0 94.5 14.5t70 32t48.5 32t31 14.5 q27 0 36 -24z"/>
<glyph glyph-name="Agrave" horiz-adv-x="1272" unicode="À" d="M1191 0h-159q-27 0 -42 13.5t-21 35.5l-73 337h-574l-156 -337q-9 -20 -29 -34.5t-46 -14.5h-160l702 1436h208zM863 534l-123 567q-5 29 -12 66.5t-14 81.5q-16 -44 -32 -82t-28 -67l-263 -566h472zM595 1854q32 0 48 -5.5t30 -28.5l176 -274h-129q-21 0 -33.5 3 t-25.5 18l-256 287h190z"/>
<glyph glyph-name="Aacute" horiz-adv-x="1272" unicode="Á" d="M1191 0h-159q-27 0 -42 13.5t-21 35.5l-73 337h-574l-156 -337q-9 -20 -29 -34.5t-46 -14.5h-160l702 1436h208zM863 534l-123 567q-5 29 -12 66.5t-14 81.5q-16 -44 -32 -82t-28 -67l-263 -566h472zM1146 1854l-331 -286q-17 -14 -31 -18t-35 -4h-129l239 274 q10 12 18.5 18.5t18 10t21 4.5t27.5 1h202z"/>
<glyph glyph-name="Acircumflex" horiz-adv-x="1272" unicode="Â" d="M1191 0h-159q-27 0 -42 13.5t-21 35.5l-73 337h-574l-156 -337q-9 -20 -29 -34.5t-46 -14.5h-160l702 1436h208zM863 534l-123 567q-5 29 -12 66.5t-14 81.5q-16 -44 -32 -82t-28 -67l-263 -566h472zM1063 1546h-131q-12 0 -28 4.5t-30 27.5l-85 132l-9 18q-3 -5 -6 -9 t-7 -9l-115 -132q-20 -23 -37 -27.5t-28 -4.5h-126l251 273h161z"/>
<glyph glyph-name="Atilde" horiz-adv-x="1272" unicode="Ã" d="M1191 0h-159q-27 0 -42 13.5t-21 35.5l-73 337h-574l-156 -337q-9 -20 -29 -34.5t-46 -14.5h-160l702 1436h208zM863 534l-123 567q-5 29 -12 66.5t-14 81.5q-16 -44 -32 -82t-28 -67l-263 -566h472zM889 1673q21 0 37.5 8.5t28.5 22.5t19.5 31.5t9.5 35.5h110 q-5 -45 -21 -86t-41.5 -72.5t-60 -50.5t-76.5 -19t-73.5 16t-57 35.5t-48.5 36t-48 16.5q-21 0 -38 -9t-29 -23.5t-19 -32.5t-9 -35h-112q5 45 21.5 86.5t42 73.5t60 51t76.5 19q43 0 74.5 -16.5t57.5 -36t48.5 -35.5t47.5 -16z"/>
<glyph glyph-name="Adieresis" horiz-adv-x="1272" unicode="Ä" d="M1191 0h-159q-27 0 -42 13.5t-21 35.5l-73 337h-574l-156 -337q-9 -20 -29 -34.5t-46 -14.5h-160l702 1436h208zM863 534l-123 567q-5 29 -12 66.5t-14 81.5q-16 -44 -32 -82t-28 -67l-263 -566h472zM1069 1664q0 -24 -9.5 -45.5t-26 -37.5t-38 -25t-46.5 -9 q-24 0 -45.5 9t-37.5 25t-25.5 37.5t-9.5 45.5q0 25 9.5 47t25.5 38.5t37.5 26t45.5 9.5q25 0 46.5 -9.5t38 -26t26 -38.5t9.5 -47zM684 1664q0 -24 -9.5 -45.5t-26 -37.5t-38.5 -25t-47 -9q-23 0 -44.5 9t-37.5 25t-25.5 37.5t-9.5 45.5q0 25 9.5 47t25.5 38.5t37.5 26 t44.5 9.5q25 0 47 -9.5t38.5 -26t26 -38.5t9.5 -47z"/>
<glyph glyph-name="Aring" horiz-adv-x="1272" unicode="Å" d="M1191 0h-159q-27 0 -42 13.5t-21 35.5l-73 337h-574l-156 -337q-9 -20 -29 -34.5t-46 -14.5h-160l702 1436h208zM863 534l-123 567q-5 29 -12 66.5t-14 81.5q-16 -44 -32 -82t-28 -67l-263 -566h472zM681 1699q-1 -8 -1 -16q0 -31 17 -53q21 -28 64 -28q39 0 67 27.5 t33 69.5q1 8 1 16q0 34 -18 56q-22 27 -62 27q-42 0 -69 -27t-32 -72zM591 1699q5 40 23.5 73.5t45.5 57.5t60.5 37.5t68.5 13.5q37 0 68 -13.5t53 -37.5q23 -24 33 -58q8 -24 7 -51q0 -11 -1 -22q-5 -39 -23 -72t-45 -56t-61.5 -36t-70.5 -13q-35 0 -66 13t-53 36t-33 56 q-8 23 -8 48q0 12 2 24z"/>
<glyph glyph-name="AE" horiz-adv-x="1737" unicode="Æ" d="M1053 1269v-465h501l-20 -161h-481v-476h545l-22 -167h-716v386h-495l-195 -337q-11 -20 -32 -34.5t-47 -14.5h-160l855 1436h967l-20 -167h-680zM860 534v734q-15 -38 -31 -72.5t-33 -63.5l-346 -598h410z"/>
<glyph glyph-name="Ccedilla" horiz-adv-x="1247" unicode="Ç" d="M590 -14q-117 10 -209.5 60t-156.5 132t-97.5 191.5t-33.5 238.5q0 124 26.5 235t75.5 205t117.5 169t152.5 127t181 80t203 28q77 0 140 -13.5t114 -38.5t93 -60.5t77 -79.5l-70 -85q-9 -11 -19.5 -18t-27.5 -7q-19 0 -39 19.5t-53.5 42.5t-86.5 42.5t-138 19.5 q-113 0 -211 -45.5t-170 -130t-113.5 -204.5t-41.5 -269q0 -108 28 -194t78 -146t119 -92t151 -32q65 0 114.5 10.5t87 26.5t64.5 34t46.5 34t33.5 26.5t26 10.5q10 0 16.5 -3.5t10.5 -8.5l72 -90q-86 -94 -196 -149.5t-252 -65.5l-22 -58q76 -18 109.5 -50t33.5 -78 q0 -37 -17 -66t-48 -49.5t-73 -31t-92 -10.5q-38 0 -70.5 7.5t-60.5 21.5l26 61q4 9 9.5 14t16.5 5q6 0 12.5 -3.5t15.5 -7t21 -7t29 -3.5q38 0 57.5 18t19.5 44q0 32 -34 46t-99 23z"/>
<glyph glyph-name="Egrave" horiz-adv-x="1075" unicode="È" d="M455 1269l-57 -464h495l-21 -161h-494l-58 -477h617l-21 -167h-823l176 1436h823l-21 -167h-616zM586 1854q32 0 48 -5.5t30 -28.5l176 -274h-129q-21 0 -33.5 3t-25.5 18l-256 287h190z"/>
<glyph glyph-name="Eacute" horiz-adv-x="1075" unicode="É" d="M455 1269l-57 -464h495l-21 -161h-494l-58 -477h617l-21 -167h-823l176 1436h823l-21 -167h-616zM1112 1854l-331 -286q-17 -14 -31 -18t-35 -4h-129l239 274q10 12 18.5 18.5t18 10t21 4.5t27.5 1h202z"/>
<glyph glyph-name="Ecircumflex" horiz-adv-x="1075" unicode="Ê" d="M455 1269l-57 -464h495l-21 -161h-494l-58 -477h617l-21 -167h-823l176 1436h823l-21 -167h-616zM1000 1546h-131q-12 0 -28 4.5t-30 27.5l-85 132l-9 18q-3 -5 -6 -9t-7 -9l-115 -132q-20 -23 -37 -27.5t-28 -4.5h-126l251 273h161z"/>
<glyph glyph-name="Edieresis" horiz-adv-x="1075" unicode="Ë" d="M455 1269l-57 -464h495l-21 -161h-494l-58 -477h617l-21 -167h-823l176 1436h823l-21 -167h-616zM1022 1664q0 -24 -9.5 -45.5t-26 -37.5t-38 -25t-46.5 -9q-24 0 -45.5 9t-37.5 25t-25.5 37.5t-9.5 45.5q0 25 9.5 47t25.5 38.5t37.5 26t45.5 9.5q25 0 46.5 -9.5t38 -26 t26 -38.5t9.5 -47zM637 1664q0 -24 -9.5 -45.5t-26 -37.5t-38.5 -25t-47 -9q-23 0 -44.5 9t-37.5 25t-25.5 37.5t-9.5 45.5q0 25 9.5 47t25.5 38.5t37.5 26t44.5 9.5q25 0 47 -9.5t38.5 -26t26 -38.5t9.5 -47z"/>
<glyph glyph-name="Igrave" horiz-adv-x="541" unicode="Ì" d="M299 0h-206l175 1436h207zM243 1854q32 0 48 -5.5t30 -28.5l176 -274h-129q-21 0 -33.5 3t-25.5 18l-256 287h190z"/>
<glyph glyph-name="Iacute" horiz-adv-x="541" unicode="Í" d="M299 0h-206l175 1436h207zM793 1854l-331 -286q-17 -14 -31 -18t-35 -4h-129l239 274q10 12 18.5 18.5t18 10t21 4.5t27.5 1h202z"/>
<glyph glyph-name="Icircumflex" horiz-adv-x="541" unicode="Î" d="M299 0h-206l175 1436h207zM689 1546h-131q-12 0 -28 4.5t-30 27.5l-85 132l-9 18q-3 -5 -6 -9t-7 -9l-115 -132q-20 -23 -37 -27.5t-28 -4.5h-126l251 273h161z"/>
<glyph glyph-name="Idieresis" horiz-adv-x="541" unicode="Ï" d="M299 0h-206l175 1436h207zM712 1664q0 -24 -9.5 -45.5t-26 -37.5t-38 -25t-46.5 -9q-24 0 -45.5 9t-37.5 25t-25.5 37.5t-9.5 45.5q0 25 9.5 47t25.5 38.5t37.5 26t45.5 9.5q25 0 46.5 -9.5t38 -26t26 -38.5t9.5 -47zM327 1664q0 -24 -9.5 -45.5t-26 -37.5t-38.5 -25 t-47 -9q-23 0 -44.5 9t-37.5 25t-25.5 37.5t-9.5 45.5q0 25 9.5 47t25.5 38.5t37.5 26t44.5 9.5q25 0 47 -9.5t38.5 -26t26 -38.5t9.5 -47z"/>
<glyph glyph-name="Eth" horiz-adv-x="1427" unicode="Ð" d="M781 1436q133 0 240 -45.5t182 -127t115.5 -195.5t40.5 -250q0 -182 -57 -332.5t-157.5 -258.5t-238.5 -167.5t-301 -59.5h-498l81 663h-176l15 121h176l79 652h499zM625 166q117 0 213.5 44.5t165 128t106.5 203.5t38 271q0 105 -26.5 190t-76.5 144t-121.5 91 t-162.5 32h-293l-59 -486h342l-14 -121h-343l-61 -497h292z"/>
<glyph glyph-name="Ntilde" horiz-adv-x="1424" unicode="Ñ" d="M1359 1436l-177 -1436h-104q-24 0 -39.5 9t-29.5 29l-604 1066q-2 -43 -6 -75l-126 -1029h-180l176 1436h107q27 0 39 -6t26 -28l604 -1066q2 25 4 47t4 42l125 1011h181zM959 1672q21 0 37.5 8.5t28.5 22.5t19.5 31.5t9.5 35.5h110q-5 -45 -21 -86t-41.5 -72.5 t-60 -50.5t-76.5 -19t-73.5 16t-57 35.5t-48.5 36t-48 16.5q-21 0 -38 -9t-29 -23.5t-19 -32.5t-9 -35h-112q5 45 21.5 86.5t42 73.5t60 51t76.5 19q43 0 74.5 -16.5t57.5 -36t48.5 -35.5t47.5 -16z"/>
<glyph glyph-name="Ograve" horiz-adv-x="1495" unicode="Ò" d="M1218 814q0 106 -27 192t-77.5 147t-123 94t-163.5 33q-116 0 -212 -46.5t-165 -132.5t-107.5 -207.5t-38.5 -271.5q0 -106 26.5 -192t77 -146.5t122.5 -93.5t163 -33q117 0 213.5 46.5t166 132t107.5 207t38 271.5zM1429 819q0 -182 -57.5 -335t-159 -264t-240 -173 t-301.5 -62q-134 0 -240.5 47.5t-181.5 131.5t-115 199.5t-40 252.5q0 121 26 230.5t74 202.5t116.5 167.5t152.5 127t182.5 80.5t206.5 28q133 0 240 -47.5t182 -132t115 -200.5t40 -253zM741 1854q32 0 48 -5.5t30 -28.5l176 -274h-129q-21 0 -33.5 3t-25.5 18l-256 287 h190z"/>
<glyph glyph-name="Oacute" horiz-adv-x="1495" unicode="Ó" d="M1218 814q0 106 -27 192t-77.5 147t-123 94t-163.5 33q-116 0 -212 -46.5t-165 -132.5t-107.5 -207.5t-38.5 -271.5q0 -106 26.5 -192t77 -146.5t122.5 -93.5t163 -33q117 0 213.5 46.5t166 132t107.5 207t38 271.5zM1429 819q0 -182 -57.5 -335t-159 -264t-240 -173 t-301.5 -62q-134 0 -240.5 47.5t-181.5 131.5t-115 199.5t-40 252.5q0 121 26 230.5t74 202.5t116.5 167.5t152.5 127t182.5 80.5t206.5 28q133 0 240 -47.5t182 -132t115 -200.5t40 -253zM1254 1854l-331 -286q-17 -14 -31 -18t-35 -4h-129l239 274q10 12 18.5 18.5t18 10 t21 4.5t27.5 1h202z"/>
<glyph glyph-name="Ocircumflex" horiz-adv-x="1495" unicode="Ô" d="M1218 814q0 106 -27 192t-77.5 147t-123 94t-163.5 33q-116 0 -212 -46.5t-165 -132.5t-107.5 -207.5t-38.5 -271.5q0 -106 26.5 -192t77 -146.5t122.5 -93.5t163 -33q117 0 213.5 46.5t166 132t107.5 207t38 271.5zM1429 819q0 -182 -57.5 -335t-159 -264t-240 -173 t-301.5 -62q-134 0 -240.5 47.5t-181.5 131.5t-115 199.5t-40 252.5q0 121 26 230.5t74 202.5t116.5 167.5t152.5 127t182.5 80.5t206.5 28q133 0 240 -47.5t182 -132t115 -200.5t40 -253zM1163 1546h-131q-12 0 -28 4.5t-30 27.5l-85 132l-9 18q-3 -5 -6 -9t-7 -9 l-115 -132q-20 -23 -37 -27.5t-28 -4.5h-126l251 273h161z"/>
<glyph glyph-name="Otilde" horiz-adv-x="1495" unicode="Õ" d="M1218 814q0 106 -27 192t-77.5 147t-123 94t-163.5 33q-116 0 -212 -46.5t-165 -132.5t-107.5 -207.5t-38.5 -271.5q0 -106 26.5 -192t77 -146.5t122.5 -93.5t163 -33q117 0 213.5 46.5t166 132t107.5 207t38 271.5zM1429 819q0 -182 -57.5 -335t-159 -264t-240 -173 t-301.5 -62q-134 0 -240.5 47.5t-181.5 131.5t-115 199.5t-40 252.5q0 121 26 230.5t74 202.5t116.5 167.5t152.5 127t182.5 80.5t206.5 28q133 0 240 -47.5t182 -132t115 -200.5t40 -253zM989 1673q21 0 37.5 8.5t28.5 22.5t19.5 31.5t9.5 35.5h110q-5 -45 -21 -86 t-41.5 -72.5t-60 -50.5t-76.5 -19t-73.5 16t-57 35.5t-48.5 36t-48 16.5q-21 0 -38 -9t-29 -23.5t-19 -32.5t-9 -35h-112q5 45 21.5 86.5t42 73.5t60 51t76.5 19q43 0 74.5 -16.5t57.5 -36t48.5 -35.5t47.5 -16z"/>
<glyph glyph-name="Odieresis" horiz-adv-x="1495" unicode="Ö" d="M1218 814q0 106 -27 192t-77.5 147t-123 94t-163.5 33q-116 0 -212 -46.5t-165 -132.5t-107.5 -207.5t-38.5 -271.5q0 -106 26.5 -192t77 -146.5t122.5 -93.5t163 -33q117 0 213.5 46.5t166 132t107.5 207t38 271.5zM1429 819q0 -182 -57.5 -335t-159 -264t-240 -173 t-301.5 -62q-134 0 -240.5 47.5t-181.5 131.5t-115 199.5t-40 252.5q0 121 26 230.5t74 202.5t116.5 167.5t152.5 127t182.5 80.5t206.5 28q133 0 240 -47.5t182 -132t115 -200.5t40 -253zM1207 1664q0 -24 -9.5 -45.5t-26 -37.5t-38 -25t-46.5 -9q-24 0 -45.5 9t-37.5 25 t-25.5 37.5t-9.5 45.5q0 25 9.5 47t25.5 38.5t37.5 26t45.5 9.5q25 0 46.5 -9.5t38 -26t26 -38.5t9.5 -47zM822 1664q0 -24 -9.5 -45.5t-26 -37.5t-38.5 -25t-47 -9q-23 0 -44.5 9t-37.5 25t-25.5 37.5t-9.5 45.5q0 25 9.5 47t25.5 38.5t37.5 26t44.5 9.5q25 0 47 -9.5 t38.5 -26t26 -38.5t9.5 -47z"/>
<glyph glyph-name="multiply" d="M689 671l308 -352l-111 -101l-310 352l-398 -354l-88 101l397 354l-300 342l113 102l300 -343l383 341l88 -102z" unicode="×"/>
<glyph glyph-name="Oslash" horiz-adv-x="1495" unicode="Ø" d="M1286 1258q69 -85 106 -196t37 -243q0 -182 -57.5 -335t-159 -264t-240 -173t-301.5 -62q-95 0 -176 24t-148 69l-102 -129q-27 -32 -59.5 -45t-62.5 -13h-81l212 267q-78 85 -119 201.5t-41 256.5q0 121 26 230.5t74 202.5t116.5 167.5t152.5 127t182.5 80.5t206.5 28 q103 0 189.5 -28.5t155.5 -80.5l83 104q12 14 22 24t20 16.5t22.5 9.5t29.5 3h105zM1076 1191q-48 43 -110.5 66t-138.5 23q-116 0 -212 -46.5t-165 -132.5t-107.5 -207.5t-38.5 -271.5q0 -185 78 -304zM466 227q46 -34 103 -52t124 -18q117 0 213.5 46.5t166 132t107.5 207 t38 271.5q0 82 -16 152t-47 126z"/>
<glyph glyph-name="Ugrave" horiz-adv-x="1373" unicode="Ù" d="M632 163q78 0 143 29.5t114 83t80.5 127t42.5 162.5l106 871h206l-107 -871q-16 -125 -66 -231.5t-129 -184.5t-183.5 -122t-228.5 -44t-218 44t-154 122q-59 79 -83 185q-15 66 -15 138q0 45 6 93l106 871h205l-107 -871q-5 -40 -5 -76q-1 -45 7 -86q14 -74 50 -127 t94 -83t136 -30zM665 1854q32 0 48 -5.5t30 -28.5l176 -274h-129q-21 0 -33.5 3t-25.5 18l-256 287h190z"/>
<glyph glyph-name="Uacute" horiz-adv-x="1373" unicode="Ú" d="M632 163q78 0 143 29.5t114 83t80.5 127t42.5 162.5l106 871h206l-107 -871q-16 -125 -66 -231.5t-129 -184.5t-183.5 -122t-228.5 -44t-218 44t-154 122q-59 79 -83 185q-15 66 -15 138q0 45 6 93l106 871h205l-107 -871q-5 -40 -5 -76q-1 -45 7 -86q14 -74 50 -127 t94 -83t136 -30zM1192 1854l-331 -286q-17 -14 -31 -18t-35 -4h-129l239 274q10 12 18.5 18.5t18 10t21 4.5t27.5 1h202z"/>
<glyph glyph-name="Ucircumflex" horiz-adv-x="1373" unicode="Û" d="M632 163q78 0 143 29.5t114 83t80.5 127t42.5 162.5l106 871h206l-107 -871q-16 -125 -66 -231.5t-129 -184.5t-183.5 -122t-228.5 -44t-218 44t-154 122q-59 79 -83 185q-15 66 -15 138q0 45 6 93l106 871h205l-107 -871q-5 -40 -5 -76q-1 -45 7 -86q14 -74 50 -127 t94 -83t136 -30zM1105 1546h-131q-12 0 -28 4.5t-30 27.5l-85 132l-9 18q-3 -5 -6 -9t-7 -9l-115 -132q-20 -23 -37 -27.5t-28 -4.5h-126l251 273h161z"/>
<glyph glyph-name="Udieresis" horiz-adv-x="1373" unicode="Ü" d="M632 163q78 0 143 29.5t114 83t80.5 127t42.5 162.5l106 871h206l-107 -871q-16 -125 -66 -231.5t-129 -184.5t-183.5 -122t-228.5 -44t-218 44t-154 122q-59 79 -83 185q-15 66 -15 138q0 45 6 93l106 871h205l-107 -871q-5 -40 -5 -76q-1 -45 7 -86q14 -74 50 -127 t94 -83t136 -30zM1135 1664q0 -24 -9.5 -45.5t-26 -37.5t-38 -25t-46.5 -9q-24 0 -45.5 9t-37.5 25t-25.5 37.5t-9.5 45.5q0 25 9.5 47t25.5 38.5t37.5 26t45.5 9.5q25 0 46.5 -9.5t38 -26t26 -38.5t9.5 -47zM750 1664q0 -24 -9.5 -45.5t-26 -37.5t-38.5 -25t-47 -9 q-23 0 -44.5 9t-37.5 25t-25.5 37.5t-9.5 45.5q0 25 9.5 47t25.5 38.5t37.5 26t44.5 9.5q25 0 47 -9.5t38.5 -26t26 -38.5t9.5 -47z"/>
<glyph glyph-name="Yacute" horiz-adv-x="1177" unicode="Ý" d="M687 570l-71 -570h-205l71 568l-378 868h182q27 0 42 -13t23 -35l224 -554q11 -31 18.5 -59.5t13.5 -56.5q13 28 28.5 56t33.5 60l363 554q11 18 29.5 33t44.5 15h170zM1094 1854l-331 -286q-17 -14 -31 -18t-35 -4h-129l239 274q10 12 18.5 18.5t18 10t21 4.5t27.5 1 h202z"/>
<glyph glyph-name="Thorn" horiz-adv-x="1130" unicode="Þ" d="M643 1173q115 0 200 -27.5t141 -78t83 -121t27 -155.5q0 -114 -37 -209.5t-108.5 -165t-176 -108t-240.5 -38.5h-202l-33 -270h-204l175 1436h205l-32 -263h202zM552 433q82 0 145 25.5t105 70.5t63.5 107t21.5 136q0 112 -65 176t-200 64h-201l-71 -579h202z"/>
<glyph glyph-name="germandbls" horiz-adv-x="1172" unicode="ß" d="M248 997q24 91 72 174.5t115 147t149.5 101t177.5 37.5q92 0 157 -28t106 -70.5t60 -94t19 -98.5q0 -67 -23 -115t-57 -83t-74 -61.5t-74 -51t-57 -52t-23 -63.5q0 -34 21 -57t53 -44t68.5 -43t68.5 -53t53 -75.5t21 -109.5q0 -89 -31.5 -158.5t-85.5 -117.5t-125 -73 t-150 -25q-88 0 -158.5 35t-119.5 89l53 72q9 14 21.5 21t30.5 7t35.5 -14t40 -30.5t53 -30.5t76.5 -14q39 0 72 14.5t56.5 40t37 60t13.5 73.5q0 46 -22.5 76.5t-56.5 54t-74 44t-74 46.5t-56.5 63t-22.5 93q0 64 24.5 108.5t60.5 79t79 63.5t79 60.5t60.5 70t24.5 93.5 q0 28 -10 56.5t-32 51.5t-57.5 37t-85.5 14q-62 0 -115 -34t-94 -91t-68.5 -132.5t-37.5 -158.5l-106 -867l-48 -201q-12 -40 -35.5 -61t-65.5 -21h-77l135 1105l-105 14q-23 5 -34 15t-11 25q0 4 1 8l9 78h163z"/>
<glyph glyph-name="agrave" horiz-adv-x="1027" unicode="à" d="M677 254q-35 -61 -75.5 -110.5t-86 -84.5t-96 -54t-104.5 -19q-60 0 -109.5 23.5t-85 69t-55 112.5t-19.5 154q0 90 22.5 176.5t64.5 162.5t100.5 140t130.5 110t155.5 71.5t174.5 25.5q66 0 129.5 -10.5t125.5 -36.5l-122 -984h-102q-38 0 -51 19.5t-13 47.5zM745 883 q-39 6 -77 6q-89 0 -167 -41.5t-135.5 -111.5t-91 -162.5t-33.5 -193.5q0 -117 38 -174.5t110 -57.5q47 0 92.5 30.5t86 84t75 126.5t60.5 159zM622 1452q32 0 46.5 -11.5t24.5 -34.5l108 -242h-102q-20 0 -33 6.5t-25 23.5l-189 258h170z"/>
<glyph glyph-name="aacute" horiz-adv-x="1027" unicode="á" d="M677 254q-35 -61 -75.5 -110.5t-86 -84.5t-96 -54t-104.5 -19q-60 0 -109.5 23.5t-85 69t-55 112.5t-19.5 154q0 90 22.5 176.5t64.5 162.5t100.5 140t130.5 110t155.5 71.5t174.5 25.5q66 0 129.5 -10.5t125.5 -36.5l-122 -984h-102q-38 0 -51 19.5t-13 47.5zM745 883 q-39 6 -77 6q-89 0 -167 -41.5t-135.5 -111.5t-91 -162.5t-33.5 -193.5q0 -117 38 -174.5t110 -57.5q47 0 92.5 30.5t86 84t75 126.5t60.5 159zM1025 1452l-247 -258q-16 -17 -30 -23.5t-34 -6.5h-108l162 242q15 23 32.5 34.5t49.5 11.5h175z"/>
<glyph glyph-name="acircumflex" horiz-adv-x="1027" unicode="â" d="M677 254q-35 -61 -75.5 -110.5t-86 -84.5t-96 -54t-104.5 -19q-60 0 -109.5 23.5t-85 69t-55 112.5t-19.5 154q0 90 22.5 176.5t64.5 162.5t100.5 140t130.5 110t155.5 71.5t174.5 25.5q66 0 129.5 -10.5t125.5 -36.5l-122 -984h-102q-38 0 -51 19.5t-13 47.5zM745 883 q-39 6 -77 6q-89 0 -167 -41.5t-135.5 -111.5t-91 -162.5t-33.5 -193.5q0 -117 38 -174.5t110 -57.5q47 0 92.5 30.5t86 84t75 126.5t60.5 159zM956 1169h-120q-11 0 -21.5 4t-20.5 16l-93 125q-4 5 -7 10t-7 11q-9 -12 -18 -21l-124 -125q-20 -20 -45 -20h-125l237 267h167 z"/>
<glyph glyph-name="atilde" horiz-adv-x="1027" unicode="ã" d="M677 254q-35 -61 -75.5 -110.5t-86 -84.5t-96 -54t-104.5 -19q-60 0 -109.5 23.5t-85 69t-55 112.5t-19.5 154q0 90 22.5 176.5t64.5 162.5t100.5 140t130.5 110t155.5 71.5t174.5 25.5q66 0 129.5 -10.5t125.5 -36.5l-122 -984h-102q-38 0 -51 19.5t-13 47.5zM745 883 q-39 6 -77 6q-89 0 -167 -41.5t-135.5 -111.5t-91 -162.5t-33.5 -193.5q0 -117 38 -174.5t110 -57.5q47 0 92.5 30.5t86 84t75 126.5t60.5 159zM796 1334q32 0 51.5 20t24.5 64h110q-6 -50 -23 -91t-42.5 -70.5t-58.5 -45.5t-71 -16q-32 0 -58.5 14t-50 31t-44 31t-40.5 14 q-63 0 -75 -85h-111q6 49 23 90.5t43 70.5t59 45.5t71 16.5q33 0 59.5 -14t49 -30.5t43 -30.5t40.5 -14z"/>
<glyph glyph-name="adieresis" horiz-adv-x="1027" unicode="ä" d="M677 254q-35 -61 -75.5 -110.5t-86 -84.5t-96 -54t-104.5 -19q-60 0 -109.5 23.5t-85 69t-55 112.5t-19.5 154q0 90 22.5 176.5t64.5 162.5t100.5 140t130.5 110t155.5 71.5t174.5 25.5q66 0 129.5 -10.5t125.5 -36.5l-122 -984h-102q-38 0 -51 19.5t-13 47.5zM745 883 q-39 6 -77 6q-89 0 -167 -41.5t-135.5 -111.5t-91 -162.5t-33.5 -193.5q0 -117 38 -174.5t110 -57.5q47 0 92.5 30.5t86 84t75 126.5t60.5 159zM1008 1290q0 -24 -9.5 -45.5t-25.5 -37.5t-38 -25t-46 -9t-46 9t-38 25t-25.5 37.5t-9.5 45.5q0 25 9.5 47t25.5 38.5t38 26 t46 9.5t46 -9.5t38 -26t25.5 -38.5t9.5 -47zM642 1290q0 -24 -10 -45.5t-26.5 -37.5t-38.5 -25t-46 -9t-45 9t-37 25t-25.5 37.5t-9.5 45.5q0 25 9.5 47t25.5 38.5t37 26t45 9.5t46 -9.5t38.5 -26t26.5 -38.5t10 -47z"/>
<glyph glyph-name="aring" horiz-adv-x="1027" unicode="å" d="M677 254q-35 -61 -75.5 -110.5t-86 -84.5t-96 -54t-104.5 -19q-60 0 -109.5 23.5t-85 69t-55 112.5t-19.5 154q0 90 22.5 176.5t64.5 162.5t100.5 140t130.5 110t155.5 71.5t174.5 25.5q66 0 129.5 -10.5t125.5 -36.5l-122 -984h-102q-38 0 -51 19.5t-13 47.5zM745 883 q-39 6 -77 6q-89 0 -167 -41.5t-135.5 -111.5t-91 -162.5t-33.5 -193.5q0 -117 38 -174.5t110 -57.5q47 0 92.5 30.5t86 84t75 126.5t60.5 159zM630 1318q-1 -8 -1 -16q0 -32 17 -54q21 -27 64 -27q40 0 67.5 27t32.5 70q1 8 1 16q0 33 -18 55q-22 27 -62 27q-42 0 -69 -27 t-32 -71zM530 1318q5 43 24 78t48 60.5t64.5 39.5t73.5 14q39 0 72 -14t57 -40q22 -25 34 -60q8 -24 9 -53q0 -12 -2 -25q-5 -42 -24.5 -77t-48.5 -59.5t-65 -38.5t-75 -14q-38 0 -70.5 14t-55.5 39q-22 24 -34 59q-8 24 -9 52q0 12 2 25z"/>
<glyph glyph-name="ae" horiz-adv-x="1487" unicode="æ" d="M613 474q-117 -5 -196.5 -22.5t-128 -46.5t-70 -68.5t-21.5 -86.5q0 -69 36.5 -101.5t99.5 -32.5q50 0 95 17.5t81 53.5t61 90.5t34 127.5zM1082 892q-58 0 -105 -21.5t-82 -61.5t-59 -97t-36 -127q125 8 206.5 25.5t129 42t66 55.5t18.5 65q0 54 -35.5 86.5t-102.5 32.5 zM1406 188q-51 -53 -100 -91t-101 -62.5t-108 -36.5t-122 -12q-103 0 -182.5 54.5t-120.5 165.5q-33 -60 -77 -102t-94 -68.5t-102.5 -39t-101.5 -12.5q-137 0 -209.5 60.5t-72.5 180.5q0 70 31 134.5t103 115t189 82t289 36.5l7 55q4 32 4 60q0 72 -31.5 122t-116.5 50 q-59 0 -100 -16t-72 -35.5t-55 -35.5t-48 -16q-20 0 -32 10t-20 25l-26 61q88 79 178.5 119.5t195.5 40.5q107 0 168.5 -46t84.5 -127q61 81 147 126t195 45q61 0 113 -19t90 -53t59.5 -79.5t21.5 -97.5q0 -37 -11.5 -74t-38 -71t-71.5 -63t-111.5 -51.5t-157.5 -36 t-211 -15.5v-31q0 -151 59.5 -225.5t164.5 -74.5q71 0 118.5 20t81 43.5t58 43.5t49.5 20q11 0 20 -5.5t17 -13.5z"/>
<glyph glyph-name="ccedilla" horiz-adv-x="908" unicode="ç" d="M808 816q-8 -8 -17.5 -14t-20.5 -6q-14 0 -28 12t-35 26.5t-52.5 26.5t-80.5 12q-66 0 -125 -35.5t-103 -98.5t-70 -149t-26 -187q0 -60 14 -109t40.5 -83t66 -52.5t90.5 -18.5q43 0 76.5 9t59 22t45.5 29t36 29t30 22t28 9q20 0 36 -18l49 -60q-46 -51 -88.5 -87 t-85 -58.5t-87 -34.5t-94.5 -15l-23 -59q76 -18 109.5 -50t33.5 -78q0 -37 -17 -66t-48 -49.5t-73 -31t-92 -10.5q-38 0 -70.5 7.5t-60.5 21.5l26 61q4 9 9.5 14t16.5 5q6 0 12.5 -3.5t15.5 -7t21 -7t29 -3.5q38 0 57.5 18t19.5 44q0 32 -34 46t-99 23l56 129 q-73 10 -129 44.5t-94.5 88t-58 124.5t-19.5 156q0 82 17.5 160.5t50.5 148t80 128t105 101t126.5 66t145.5 23.5q101 0 169.5 -36t120.5 -105z"/>
<glyph glyph-name="egrave" horiz-adv-x="961" unicode="è" d="M864 188q-52 -53 -101 -91t-100.5 -63t-107.5 -36.5t-122 -11.5q-87 0 -157.5 29.5t-119.5 83.5t-75.5 130.5t-26.5 171.5q0 79 16.5 156.5t48.5 147t78 129.5t105 103.5t130 68t153 24.5q78 0 135 -22t94.5 -56.5t55.5 -76.5t18 -82q0 -66 -27 -121.5t-98.5 -100 t-196.5 -77.5t-321 -53q-1 -9 -1 -18v-18q0 -131 56.5 -198t170.5 -67q47 0 84 9.5t65.5 23.5t50.5 30.5t40.5 30.5t34.5 23.5t33 9.5q11 0 19.5 -5.5t16.5 -13.5zM574 891q-60 0 -110 -24.5t-90 -68t-68 -102t-44 -127.5q147 19 235.5 42t136.5 50.5t63.5 58.5t15.5 66 q0 17 -7.5 35.5t-24 34t-43 25.5t-64.5 10zM502 1452q32 0 46.5 -11.5t24.5 -34.5l108 -242h-102q-20 0 -33 6.5t-25 23.5l-189 258h170z"/>
<glyph glyph-name="eacute" horiz-adv-x="961" unicode="é" d="M864 188q-52 -53 -101 -91t-100.5 -63t-107.5 -36.5t-122 -11.5q-87 0 -157.5 29.5t-119.5 83.5t-75.5 130.5t-26.5 171.5q0 79 16.5 156.5t48.5 147t78 129.5t105 103.5t130 68t153 24.5q78 0 135 -22t94.5 -56.5t55.5 -76.5t18 -82q0 -66 -27 -121.5t-98.5 -100 t-196.5 -77.5t-321 -53q-1 -9 -1 -18v-18q0 -131 56.5 -198t170.5 -67q47 0 84 9.5t65.5 23.5t50.5 30.5t40.5 30.5t34.5 23.5t33 9.5q11 0 19.5 -5.5t16.5 -13.5zM574 891q-60 0 -110 -24.5t-90 -68t-68 -102t-44 -127.5q147 19 235.5 42t136.5 50.5t63.5 58.5t15.5 66 q0 17 -7.5 35.5t-24 34t-43 25.5t-64.5 10zM912 1452l-247 -258q-16 -17 -30 -23.5t-34 -6.5h-108l162 242q15 23 32.5 34.5t49.5 11.5h175z"/>
<glyph glyph-name="ecircumflex" horiz-adv-x="961" unicode="ê" d="M864 188q-52 -53 -101 -91t-100.5 -63t-107.5 -36.5t-122 -11.5q-87 0 -157.5 29.5t-119.5 83.5t-75.5 130.5t-26.5 171.5q0 79 16.5 156.5t48.5 147t78 129.5t105 103.5t130 68t153 24.5q78 0 135 -22t94.5 -56.5t55.5 -76.5t18 -82q0 -66 -27 -121.5t-98.5 -100 t-196.5 -77.5t-321 -53q-1 -9 -1 -18v-18q0 -131 56.5 -198t170.5 -67q47 0 84 9.5t65.5 23.5t50.5 30.5t40.5 30.5t34.5 23.5t33 9.5q11 0 19.5 -5.5t16.5 -13.5zM574 891q-60 0 -110 -24.5t-90 -68t-68 -102t-44 -127.5q147 19 235.5 42t136.5 50.5t63.5 58.5t15.5 66 q0 17 -7.5 35.5t-24 34t-43 25.5t-64.5 10zM875 1169h-120q-11 0 -21.5 4t-20.5 16l-93 125q-4 5 -7 10t-7 11q-9 -12 -18 -21l-124 -125q-20 -20 -45 -20h-125l237 267h167z"/>
<glyph glyph-name="edieresis" horiz-adv-x="961" unicode="ë" d="M864 188q-52 -53 -101 -91t-100.5 -63t-107.5 -36.5t-122 -11.5q-87 0 -157.5 29.5t-119.5 83.5t-75.5 130.5t-26.5 171.5q0 79 16.5 156.5t48.5 147t78 129.5t105 103.5t130 68t153 24.5q78 0 135 -22t94.5 -56.5t55.5 -76.5t18 -82q0 -66 -27 -121.5t-98.5 -100 t-196.5 -77.5t-321 -53q-1 -9 -1 -18v-18q0 -131 56.5 -198t170.5 -67q47 0 84 9.5t65.5 23.5t50.5 30.5t40.5 30.5t34.5 23.5t33 9.5q11 0 19.5 -5.5t16.5 -13.5zM574 891q-60 0 -110 -24.5t-90 -68t-68 -102t-44 -127.5q147 19 235.5 42t136.5 50.5t63.5 58.5t15.5 66 q0 17 -7.5 35.5t-24 34t-43 25.5t-64.5 10zM913 1290q0 -24 -9.5 -45.5t-25.5 -37.5t-38 -25t-46 -9t-46 9t-38 25t-25.5 37.5t-9.5 45.5q0 25 9.5 47t25.5 38.5t38 26t46 9.5t46 -9.5t38 -26t25.5 -38.5t9.5 -47zM547 1290q0 -24 -10 -45.5t-26.5 -37.5t-38.5 -25t-46 -9 t-45 9t-37 25t-25.5 37.5t-9.5 45.5q0 25 9.5 47t25.5 38.5t37 26t45 9.5t46 -9.5t38.5 -26t26.5 -38.5t10 -47z"/>
<glyph glyph-name="igrave" horiz-adv-x="467" unicode="ì" d="M379 1016l-123 -1016h-192l122 1016h193zM233 1452q32 0 46.5 -11.5t24.5 -34.5l108 -242h-102q-20 0 -33 6.5t-25 23.5l-189 258h170z"/>
<glyph glyph-name="iacute" horiz-adv-x="468" unicode="í" d="M379 1016l-123 -1016h-192l122 1016h193zM603 1452l-247 -258q-16 -17 -30 -23.5t-34 -6.5h-108l162 242q15 23 32.5 34.5t49.5 11.5h175z"/>
<glyph glyph-name="icircumflex" horiz-adv-x="467" unicode="î" d="M379 1016l-123 -1016h-192l122 1016h193zM593 1169h-120q-11 0 -21.5 4t-20.5 16l-93 125q-4 5 -7 10t-7 11q-9 -12 -18 -21l-124 -125q-20 -20 -45 -20h-125l237 267h167z"/>
<glyph glyph-name="idieresis" horiz-adv-x="467" unicode="ï" d="M379 1016l-123 -1016h-192l122 1016h193zM587 1290q0 -24 -9.5 -45.5t-25.5 -37.5t-38 -25t-46 -9t-46 9t-38 25t-25.5 37.5t-9.5 45.5q0 25 9.5 47t25.5 38.5t38 26t46 9.5t46 -9.5t38 -26t25.5 -38.5t9.5 -47zM289 1290q0 -24 -10 -45.5t-26.5 -37.5t-38.5 -25t-46 -9 t-45 9t-37 25t-25.5 37.5t-9.5 45.5q0 25 9.5 47t25.5 38.5t37 26t45 9.5t46 -9.5t38.5 -26t26.5 -38.5t10 -47z"/>
<glyph glyph-name="eth" horiz-adv-x="1057" unicode="ð" d="M805 1211q79 -85 125 -204.5t46 -281.5q0 -166 -36 -302.5t-105 -233.5t-170 -150t-231 -53q-84 0 -154 29t-120.5 82.5t-79 130t-28.5 171.5q0 108 35 204t98 168t150 114.5t192 42.5q97 0 173 -43.5t124 -130.5q-2 128 -39 222t-111 161l-194 -136l-36 63 q-8 14 -4.5 28t15.5 22l127 90q-78 43 -183 72q-32 11 -38.5 31t7.5 49l28 61q91 -16 173 -48t152 -84l176 121l32 -63q8 -13 6 -28.5t-20 -26.5zM456 133q61 0 114.5 24t96 76.5t73 134.5t46.5 198q-9 42 -27.5 81t-47.5 69t-70 47.5t-95 17.5q-72 0 -129 -29t-96.5 -79.5 t-60.5 -118t-21 -145.5q0 -65 16.5 -116.5t45.5 -87t68.5 -54t86.5 -18.5z"/>
<glyph glyph-name="ntilde" horiz-adv-x="1065" unicode="ñ" d="M327 773q81 128 181 193t206 65q64 0 113.5 -25.5t80.5 -74.5q30 -49 42 -121q6 -35 6 -74q0 -42 -6 -89l-76 -647h-195l77 647q5 39 5 71q-1 62 -19 98q-28 54 -101 53q-46 0 -94 -25.5t-92.5 -72t-83 -112.5t-64.5 -147l-57 -512h-195l121 1018h98q32 0 49 -16t17 -50z M710 1334q32 0 51.5 20t24.5 64h110q-6 -50 -23 -91t-42.5 -70.5t-58.5 -45.5t-71 -16q-32 0 -58.5 14t-50 31t-44 31t-40.5 14q-63 0 -75 -85h-111q6 49 23 90.5t43 70.5t59 45.5t71 16.5q33 0 59.5 -14t49 -30.5t43 -30.5t40.5 -14z"/>
<glyph glyph-name="ograve" horiz-adv-x="1040" unicode="ò" d="M437 -14q-83 0 -153 28.5t-120.5 82.5t-79 132.5t-28.5 179.5q0 129 40.5 242.5t111 198t166 133t205.5 48.5q83 0 153 -28.5t120.5 -82.5t79 -132.5t28.5 -178.5q0 -128 -40.5 -241.5t-111 -198.5t-166 -134t-205.5 -49zM455 138q70 0 127.5 38.5t98 103.5t62.5 150 t22 178q0 137 -52 204t-152 67q-71 0 -128 -38.5t-97.5 -103t-62.5 -149.5t-22 -178q0 -135 52 -203.5t152 -68.5zM532 1452q32 0 46.5 -11.5t24.5 -34.5l108 -242h-102q-20 0 -33 6.5t-25 23.5l-189 258h170z"/>
<glyph glyph-name="oacute" horiz-adv-x="1040" unicode="ó" d="M437 -14q-83 0 -153 28.5t-120.5 82.5t-79 132.5t-28.5 179.5q0 129 40.5 242.5t111 198t166 133t205.5 48.5q83 0 153 -28.5t120.5 -82.5t79 -132.5t28.5 -178.5q0 -128 -40.5 -241.5t-111 -198.5t-166 -134t-205.5 -49zM455 138q70 0 127.5 38.5t98 103.5t62.5 150 t22 178q0 137 -52 204t-152 67q-71 0 -128 -38.5t-97.5 -103t-62.5 -149.5t-22 -178q0 -135 52 -203.5t152 -68.5zM902 1452l-247 -258q-16 -17 -30 -23.5t-34 -6.5h-108l162 242q15 23 32.5 34.5t49.5 11.5h175z"/>
<glyph glyph-name="ocircumflex" horiz-adv-x="1040" unicode="ô" d="M437 -14q-83 0 -153 28.5t-120.5 82.5t-79 132.5t-28.5 179.5q0 129 40.5 242.5t111 198t166 133t205.5 48.5q83 0 153 -28.5t120.5 -82.5t79 -132.5t28.5 -178.5q0 -128 -40.5 -241.5t-111 -198.5t-166 -134t-205.5 -49zM455 138q70 0 127.5 38.5t98 103.5t62.5 150 t22 178q0 137 -52 204t-152 67q-71 0 -128 -38.5t-97.5 -103t-62.5 -149.5t-22 -178q0 -135 52 -203.5t152 -68.5zM890 1169h-120q-11 0 -21.5 4t-20.5 16l-93 125q-4 5 -7 10t-7 11q-9 -12 -18 -21l-124 -125q-20 -20 -45 -20h-125l237 267h167z"/>
<glyph glyph-name="otilde" horiz-adv-x="1040" unicode="õ" d="M437 -14q-83 0 -153 28.5t-120.5 82.5t-79 132.5t-28.5 179.5q0 129 40.5 242.5t111 198t166 133t205.5 48.5q83 0 153 -28.5t120.5 -82.5t79 -132.5t28.5 -178.5q0 -128 -40.5 -241.5t-111 -198.5t-166 -134t-205.5 -49zM455 138q70 0 127.5 38.5t98 103.5t62.5 150 t22 178q0 137 -52 204t-152 67q-71 0 -128 -38.5t-97.5 -103t-62.5 -149.5t-22 -178q0 -135 52 -203.5t152 -68.5zM723 1334q32 0 51.5 20t24.5 64h110q-6 -50 -23 -91t-42.5 -70.5t-58.5 -45.5t-71 -16q-32 0 -58.5 14t-50 31t-44 31t-40.5 14q-63 0 -75 -85h-111 q6 49 23 90.5t43 70.5t59 45.5t71 16.5q33 0 59.5 -14t49 -30.5t43 -30.5t40.5 -14z"/>
<glyph glyph-name="odieresis" horiz-adv-x="1040" unicode="ö" d="M437 -14q-83 0 -153 28.5t-120.5 82.5t-79 132.5t-28.5 179.5q0 129 40.5 242.5t111 198t166 133t205.5 48.5q83 0 153 -28.5t120.5 -82.5t79 -132.5t28.5 -178.5q0 -128 -40.5 -241.5t-111 -198.5t-166 -134t-205.5 -49zM455 138q70 0 127.5 38.5t98 103.5t62.5 150 t22 178q0 137 -52 204t-152 67q-71 0 -128 -38.5t-97.5 -103t-62.5 -149.5t-22 -178q0 -135 52 -203.5t152 -68.5zM929 1290q0 -24 -9.5 -45.5t-25.5 -37.5t-38 -25t-46 -9t-46 9t-38 25t-25.5 37.5t-9.5 45.5q0 25 9.5 47t25.5 38.5t38 26t46 9.5t46 -9.5t38 -26 t25.5 -38.5t9.5 -47zM563 1290q0 -24 -10 -45.5t-26.5 -37.5t-38.5 -25t-46 -9t-45 9t-37 25t-25.5 37.5t-9.5 45.5q0 25 9.5 47t25.5 38.5t37 26t45 9.5t46 -9.5t38.5 -26t26.5 -38.5t10 -47z"/>
<glyph glyph-name="divide" d="M412 299q0 30 11.5 56.5t31.5 46t46 31t56 11.5q25 0 46 -9t36.5 -25t24 -37t8.5 -45q0 -30 -12 -56.5t-32 -45.5t-46.5 -30t-55.5 -11q-25 0 -46 9t-36 24t-23.5 36t-8.5 45zM500 1011q0 30 11.5 56.5t31.5 46t46 31t56 11.5q25 0 46 -9t36.5 -25t24 -37t8.5 -45 q0 -30 -12 -56.5t-32.5 -45.5t-47 -30t-54.5 -11q-51 0 -82.5 33t-31.5 81zM115 743h961l-17 -143h-962z" unicode="÷"/>
<glyph glyph-name="oslash" horiz-adv-x="1039" unicode="ø" d="M880 888q38 -53 59 -122.5t21 -156.5q0 -85 -18.5 -164.5t-52 -149t-81.5 -126.5t-106 -97.5t-125 -63t-140 -22.5q-123 0 -212 59l-30 -41q-23 -32 -55 -45.5t-64 -13.5h-73l134 183q-39 53 -60.5 123t-21.5 158q0 86 18.5 166t52 149t81.5 126t106 97.5t125 62.5 t140 22q122 0 214 -60l28 38q11 15 20 25.5t19 17t22 9.5t30 3h98zM685 851q-51 40 -124 40q-71 0 -130 -36.5t-102 -101t-66.5 -152.5t-23.5 -191q0 -81 21 -139zM331 166q52 -40 123 -40t130 37t102 102t66.5 153t23.5 190q0 78 -20 136z"/>
<glyph glyph-name="ugrave" horiz-adv-x="1065" unicode="ù" d="M986 1016l-123 -1016h-97q-71 0 -71 70l12 166q-79 -124 -177.5 -187t-202.5 -63q-64 0 -113.5 25.5t-80.5 74.5q-31 48 -43 120q-6 37 -5 79q0 40 5 85l77 646h194l-76 -646q-5 -39 -5 -71q0 -62 18 -97q27 -54 102 -54q45 0 92 24.5t91 69.5t81.5 109t64.5 142l62 523 h195zM524 1452q32 0 46.5 -11.5t24.5 -34.5l108 -242h-102q-20 0 -33 6.5t-25 23.5l-189 258h170z"/>
<glyph glyph-name="uacute" horiz-adv-x="1065" unicode="ú" d="M986 1016l-123 -1016h-97q-71 0 -71 70l12 166q-79 -124 -177.5 -187t-202.5 -63q-64 0 -113.5 25.5t-80.5 74.5q-31 48 -43 120q-6 37 -5 79q0 40 5 85l77 646h194l-76 -646q-5 -39 -5 -71q0 -62 18 -97q27 -54 102 -54q45 0 92 24.5t91 69.5t81.5 109t64.5 142l62 523 h195zM936 1452l-247 -258q-16 -17 -30 -23.5t-34 -6.5h-108l162 242q15 23 32.5 34.5t49.5 11.5h175z"/>
<glyph glyph-name="ucircumflex" horiz-adv-x="1065" unicode="û" d="M986 1016l-123 -1016h-97q-71 0 -71 70l12 166q-79 -124 -177.5 -187t-202.5 -63q-64 0 -113.5 25.5t-80.5 74.5q-31 48 -43 120q-6 37 -5 79q0 40 5 85l77 646h194l-76 -646q-5 -39 -5 -71q0 -62 18 -97q27 -54 102 -54q45 0 92 24.5t91 69.5t81.5 109t64.5 142l62 523 h195zM894 1169h-120q-11 0 -21.5 4t-20.5 16l-93 125q-4 5 -7 10t-7 11q-9 -12 -18 -21l-124 -125q-20 -20 -45 -20h-125l237 267h167z"/>
<glyph glyph-name="udieresis" horiz-adv-x="1065" unicode="ü" d="M986 1016l-123 -1016h-97q-71 0 -71 70l12 166q-79 -124 -177.5 -187t-202.5 -63q-64 0 -113.5 25.5t-80.5 74.5q-31 48 -43 120q-6 37 -5 79q0 40 5 85l77 646h194l-76 -646q-5 -39 -5 -71q0 -62 18 -97q27 -54 102 -54q45 0 92 24.5t91 69.5t81.5 109t64.5 142l62 523 h195zM914 1290q0 -24 -9.5 -45.5t-25.5 -37.5t-38 -25t-46 -9t-46 9t-38 25t-25.5 37.5t-9.5 45.5q0 25 9.5 47t25.5 38.5t38 26t46 9.5t46 -9.5t38 -26t25.5 -38.5t9.5 -47zM548 1290q0 -24 -10 -45.5t-26.5 -37.5t-38.5 -25t-46 -9t-45 9t-37 25t-25.5 37.5t-9.5 45.5 q0 25 9.5 47t25.5 38.5t37 26t45 9.5t46 -9.5t38.5 -26t26.5 -38.5t10 -47z"/>
<glyph glyph-name="yacute" horiz-adv-x="965" unicode="ý" d="M1002 1016l-682 -1313q-23 -44 -67 -44h-144l222 406l-262 951h162q23 0 34 -11t16 -28l154 -610q5 -22 8.5 -43.5t5.5 -44.5q9 23 18.5 45t20.5 44l303 610q8 17 23.5 27.5t31.5 10.5h156zM878 1452l-247 -258q-16 -17 -30 -23.5t-34 -6.5h-108l162 242q15 23 32.5 34.5 t49.5 11.5h175z"/>
<glyph glyph-name="thorn" horiz-adv-x="1062" unicode="þ" d="M340 776q37 58 80 105.5t90 80.5t97.5 51t103.5 18q128 0 201.5 -94t73.5 -278q0 -83 -17.5 -165.5t-49 -157.5t-76.5 -139t-100 -111t-118.5 -73.5t-133.5 -26.5q-73 0 -133.5 28.5t-102.5 79.5l-45 -366q-3 -27 -24 -48t-54 -21h-120l221 1817h193zM272 227 q37 -49 88 -69.5t102 -20.5q50 0 94.5 21t81 57.5t65.5 85.5t49 104.5t30.5 115.5t10.5 119q0 116 -41 175.5t-116 59.5q-46 0 -93.5 -29.5t-91 -81t-81.5 -122.5t-66 -155z"/>
<glyph glyph-name="dotlessi" horiz-adv-x="467" unicode="ı" d="M379 1016l-123 -1016h-192l122 1016h193z"/>
<glyph glyph-name="kgreenlandic" horiz-adv-x="960" unicode="ĸ" d="M371 1016l-50 -403h29q18 0 32 6t31 24l320 335q14 19 31 28.5t42 9.5h172l-374 -393q-31 -37 -65 -57q16 -13 27 -30t21 -37l291 -499h-167q-23 0 -38.5 8t-24.5 29l-244 408q-12 23 -25 29.5t-41 6.5h-34l-59 -481h-192l125 1016h193z"/>
<glyph glyph-name="OE" horiz-adv-x="2015" unicode="Œ" d="M1398 1269l-57 -465h491l-19 -161h-492l-58 -476h613l-21 -167h-796l26 212q-90 -107 -210.5 -166.5t-266.5 -59.5q-119 0 -214 46t-161 128.5t-101.5 196.5t-35.5 249q0 122 24 232.5t68 204.5t106 169.5t139 129t166 82t188 28.5q147 0 252.5 -69t166.5 -188l30 241 h796l-20 -167h-614zM649 152q106 0 194.5 48t152 136t98.5 212t35 276q0 103 -23 188.5t-66.5 146t-106.5 94t-144 33.5q-107 0 -196 -48.5t-152.5 -137t-99 -213t-35.5 -275.5q0 -104 23 -189t67 -145t108 -93t145 -33z"/>
<glyph glyph-name="oe" horiz-adv-x="1608" unicode="œ" d="M901 440q0 -151 59.5 -225.5t164.5 -74.5q47 0 83.5 9.5t65 23.5t50.5 30.5t40.5 30.5t34.5 23.5t33 9.5q11 0 20 -5.5t17 -13.5l48 -60q-51 -53 -100 -91t-100.5 -62.5t-108 -36.5t-121.5 -12q-103 0 -182.5 54.5t-120.5 165.5q-70 -105 -172 -162.5t-230 -57.5 q-82 0 -143.5 30t-103 80t-62 116.5t-20.5 139.5q0 165 43.5 292t117 213t170.5 130.5t204 44.5q105 0 176.5 -48.5t108.5 -135.5q63 86 154.5 135t209.5 49q66 0 119 -18t90.5 -50t57.5 -77t20 -99q0 -63 -27 -117.5t-97 -98.5t-191 -77t-308 -52v-3zM1207 894 q-56 0 -105 -22.5t-87.5 -64.5t-65.5 -103t-39 -139q139 18 226.5 42t137.5 52t68.5 58.5t18.5 62.5q0 22 -9 43t-28 36.5t-48 25t-69 9.5zM429 134q75 0 132 34t96.5 95.5t62.5 147t30 189.5q1 21 1 40q0 41 -7 85.5t-29.5 81.5t-58.5 57t-86 20q-75 0 -135.5 -37.5 t-103 -105.5t-65 -164t-22.5 -214q0 -45 9.5 -86t31.5 -73t57.5 -51t86.5 -19z"/>
<glyph glyph-name="Scaron" horiz-adv-x="1020" unicode="Š" d="M989 1819l-252 -273h-167l-189 273h131q11 0 27 -3t27 -22l89 -142q3 -5 5 -9.5t4 -8.5q3 4 6.5 8.5t7.5 9.5l120 141q14 20 31 23t29 3h131zM931 1204q-11 -16 -22.5 -23.5t-27.5 -7.5q-17 0 -36.5 17t-49 37t-71 37t-102.5 17q-62 0 -110 -19t-81 -51.5t-50 -76.5 t-17 -94t24 -84.5t63 -59t88.5 -43.5t101.5 -39.5t101.5 -46t88.5 -62.5t63 -89.5t24 -127.5q0 -103 -35.5 -194.5t-101.5 -160.5t-160 -109t-211 -40q-64 0 -122.5 13.5t-109.5 38t-93.5 59t-75.5 77.5l72 98q10 11 23 19t28 8q13 0 27.5 -10.5t32 -26.5t39.5 -34t51 -34 t67 -26.5t87 -10.5q66 0 118.5 20.5t89.5 57.5t56.5 89t19.5 115q0 54 -23.5 89t-62.5 59.5t-88.5 42.5t-101 37t-101 43t-88.5 61.5t-62.5 92t-23.5 134.5q0 89 32.5 171.5t93.5 145.5t148.5 100.5t197.5 37.5q112 0 202.5 -43.5t147.5 -116.5z"/>
<glyph glyph-name="scaron" horiz-adv-x="803" unicode="š" d="M821 1436l-237 -267h-167l-177 267h125q11 0 21 -4.5t15 -10.5l99 -130q9 -11 14 -21q5 6 9.5 11t9.5 10l127 130q8 5 19 10t22 5h120zM715 846q-9 -13 -17.5 -18.5t-21.5 -5.5q-15 0 -31.5 11t-40 24t-56.5 24t-80 11q-44 0 -79 -12t-60.5 -32.5t-39 -48.5t-13.5 -59 q0 -34 18 -57t47 -40.5t66.5 -31.5t76.5 -29.5t76.5 -34.5t66.5 -46.5t47 -66.5t18 -93q0 -71 -28 -135.5t-80.5 -114t-126.5 -78.5t-166 -29q-97 0 -173 35t-123 89l48 75q19 29 51 29q17 0 33.5 -14t40.5 -30.5t59 -30.5t90 -14q47 0 84.5 14t63.5 37.5t39.5 54.5t13.5 66 q0 37 -18 62.5t-47 43t-66.5 31t-76 28t-76 32t-66.5 44.5t-47 65.5t-18 93.5q0 65 26 125.5t74.5 107.5t118 75t157.5 28q94 0 164.5 -30.5t121.5 -83.5z"/>
<glyph glyph-name="Ydieresis" horiz-adv-x="1177" unicode="Ÿ" d="M687 570l-71 -570h-205l71 568l-378 868h182q27 0 42 -13t23 -35l224 -554q11 -31 18.5 -59.5t13.5 -56.5q13 28 28.5 56t33.5 60l363 554q11 18 29.5 33t44.5 15h170zM1020 1664q0 -24 -9.5 -45.5t-26 -37.5t-38 -25t-46.5 -9q-24 0 -45.5 9t-37.5 25t-25.5 37.5 t-9.5 45.5q0 25 9.5 47t25.5 38.5t37.5 26t45.5 9.5q25 0 46.5 -9.5t38 -26t26 -38.5t9.5 -47zM635 1664q0 -24 -9.5 -45.5t-26 -37.5t-38.5 -25t-47 -9q-23 0 -44.5 9t-37.5 25t-25.5 37.5t-9.5 45.5q0 25 9.5 47t25.5 38.5t37.5 26t44.5 9.5q25 0 47 -9.5t38.5 -26 t26 -38.5t9.5 -47z"/>
<glyph glyph-name="uni01B7" horiz-adv-x="1091" unicode="Ʒ" d="M1058 1360q-2 -18 -10 -38t-30 -40l-427 -396q98 -4 173 -34t126 -78.5t77 -112.5t26 -135q0 -125 -45.5 -225t-123.5 -170.5t-181 -108t-218 -37.5q-128 0 -237.5 50.5t-191.5 147.5l85 91q11 12 20.5 14t15.5 2q11 0 20 -4t25 -20q14 -18 40 -36.5t62 -34.5t80 -26 t94 -10q84 0 148 28t107 75.5t65 110.5t22 133q0 48 -18 89.5t-56 73t-98 49.5t-145 18h-141l11 88q2 17 10.5 34t27.5 34l400 377h-608l20 167h884z"/>
<glyph glyph-name="uni0259" horiz-adv-x="984" unicode="ə" d="M113 878q77 75 179.5 114.5t211.5 39.5q87 0 160 -30.5t125.5 -89t81.5 -143t29 -192.5q0 -127 -36.5 -235.5t-103 -187.5t-160.5 -123.5t-208 -44.5q-77 0 -141.5 26t-111 75.5t-72 120.5t-25.5 162q0 48 4 77t12 44t19.5 19.5t26.5 4.5h607q1 14 1.5 28.5t0.5 29.5 q0 154 -63.5 231.5t-176.5 77.5q-59 0 -104 -14.5t-78.5 -31.5t-57 -31.5t-41.5 -14.5q-24 0 -33 17zM211 397q-3 -25 -3 -48q0 -32 6 -61q10 -50 33.5 -86.5t62.5 -57t92 -20.5q116 0 190 73.5t103 199.5h-484z"/>
<glyph glyph-name="uni0292" horiz-adv-x="816" unicode="ʒ" d="M753 1016l-8 -64q-2 -17 -5.5 -30t-9.5 -24.5t-14 -22t-20 -22.5l-341 -385q88 -6 152 -33t106 -70.5t62 -101t20 -125.5q0 -103 -33.5 -194.5t-98 -159.5t-157.5 -108t-213 -40q-110 0 -188.5 35t-129.5 89l51 72q10 13 22 20.5t29 7.5q19 0 37.5 -13t43 -28t60 -28 t89.5 -13q69 0 124.5 24t94.5 68.5t60.5 107.5t21.5 142q0 48 -13 88.5t-41.5 70t-73.5 45.5t-108 16h-155l5 42q1 13 3 21t5 14.5t9 14.5t17 21l351 415h-447l18 148h675z"/>
<glyph glyph-name="circumflex" horiz-adv-x="736" unicode="ˆ" d="M790 1169h-120q-11 0 -21.5 4t-20.5 16l-93 125q-4 5 -7 10t-7 11q-9 -12 -18 -21l-124 -125q-20 -20 -45 -20h-125l237 267h167z"/>
<glyph glyph-name="ring" horiz-adv-x="736" unicode="˚" d="M427 1318q-1 -8 -1 -16q0 -32 17 -54q21 -27 64 -27q40 0 67.5 27t32.5 70q1 8 1 16q0 33 -18 55q-22 27 -62 27q-42 0 -69 -27t-32 -71zM327 1318q5 43 24 78t48 60.5t64.5 39.5t73.5 14q39 0 72 -14t57 -40q22 -25 34 -60q8 -24 9 -53q0 -12 -2 -25q-5 -42 -24.5 -77 t-48.5 -59.5t-65 -38.5t-75 -14q-38 0 -70.5 14t-55.5 39q-22 24 -34 59q-8 24 -9 52q0 12 2 25z"/>
<glyph glyph-name="tilde" horiz-adv-x="736" unicode="˜" d="M619 1334q32 0 51.5 20t24.5 64h110q-6 -50 -23 -91t-42.5 -70.5t-58.5 -45.5t-71 -16q-32 0 -58.5 14t-50 31t-44 31t-40.5 14q-63 0 -75 -85h-111q6 49 23 90.5t43 70.5t59 45.5t71 16.5q33 0 59.5 -14t49 -30.5t43 -30.5t40.5 -14z"/>
<glyph glyph-name="hungarumlaut" horiz-adv-x="736" unicode="˝" d="M943 1452l-255 -258q-15 -17 -29.5 -23.5t-34.5 -6.5h-86l192 242q17 23 33.5 34.5t48.5 11.5h131zM646 1452l-212 -258q-14 -17 -29 -23.5t-36 -6.5h-75l153 242q14 23 31 34.5t49 11.5h119z"/>
<glyph glyph-name="Alpha" horiz-adv-x="1272" unicode="Α" d="M1191 0h-159q-27 0 -42 13.5t-21 35.5l-73 337h-574l-156 -337q-9 -20 -29 -34.5t-46 -14.5h-160l702 1436h208zM863 534l-123 567q-5 29 -12 66.5t-14 81.5q-16 -44 -32 -82t-28 -67l-263 -566h472z"/>
<glyph glyph-name="Beta" horiz-adv-x="1202" unicode="Β" d="M705 1436q114 0 196 -22.5t134.5 -64.5t77.5 -101.5t25 -133.5q0 -63 -18 -121t-54 -107t-91 -86.5t-129 -61.5q127 -29 190.5 -100.5t63.5 -182.5q0 -99 -36 -182.5t-104 -144t-165 -94.5t-220 -34h-481l177 1436h434zM456 1275l-59 -480h221q77 0 135.5 20t97.5 56.5 t59 89t20 117.5q0 100 -59 148.5t-184 48.5h-231zM591 163q77 0 134.5 20.5t95.5 58t57 90.5t19 119q0 92 -60 145.5t-186 53.5h-272l-60 -487h272z"/>
<glyph glyph-name="Gamma" horiz-adv-x="1028" unicode="Γ" d="M1071 1274h-617l-156 -1274h-206l176 1436h822z"/>
<glyph glyph-name="Delta" horiz-adv-x="1290" unicode="Δ" d="M1212 0h-1284l726 1435h186zM219 165h744l-219 936q-6 24 -12 54.5t-11 65.5q-28 -73 -52 -121z"/>
<glyph glyph-name="Epsilon" horiz-adv-x="1075" unicode="Ε" d="M455 1269l-57 -464h495l-21 -161h-494l-58 -477h617l-21 -167h-823l176 1436h823l-21 -167h-616z"/>
<glyph glyph-name="Zeta" horiz-adv-x="1114" unicode="Ζ" d="M1149 1371q-2 -15 -8.5 -27t-15.5 -26l-856 -1151h720l-21 -167h-997l8 64q3 15 9.5 27t14.5 25l858 1153h-696l21 167h973z"/>
<glyph glyph-name="Eta" horiz-adv-x="1424" unicode="Η" d="M1359 1436l-177 -1436h-207l80 649h-676l-80 -649h-206l176 1436h207l-79 -638h676l79 638h207z"/>
<glyph glyph-name="Theta" horiz-adv-x="1495" unicode="Θ" d="M1218 814q0 106 -27 192t-77.5 147t-123 94t-163.5 33q-116 0 -212 -46.5t-165 -132.5t-107.5 -207.5t-38.5 -271.5q0 -106 26.5 -192t77 -146.5t122.5 -93.5t163 -33q117 0 213.5 46.5t166 132t107.5 207t38 271.5zM1429 819q0 -182 -57.5 -335t-159 -264t-240 -173 t-301.5 -62q-134 0 -240.5 47.5t-181.5 131.5t-115 199.5t-40 252.5q0 121 26 230.5t74 202.5t116.5 167.5t152.5 127t182.5 80.5t206.5 28q133 0 240 -47.5t182 -132t115 -200.5t40 -253zM516 809h507l-21 -167h-507z"/>
<glyph glyph-name="Iota" horiz-adv-x="541" unicode="Ι" d="M299 0h-206l175 1436h207z"/>
<glyph glyph-name="Kappa" horiz-adv-x="1241" unicode="Κ" d="M759 820q-40 -47 -80 -66q26 -10 45 -28t34 -48l416 -678h-178q-40 0 -56.5 11.5t-27.5 31.5l-356 563q-14 26 -35 36.5t-64 10.5h-80l-80 -653h-204l175 1437h205l-77 -626h63q35 0 58 9.5t44 32.5l477 536q22 28 46.5 37.5t56.5 9.5h175z"/>
<glyph glyph-name="Lambda" horiz-adv-x="1270" unicode="Λ" d="M1190 0h-166q-27 0 -42.5 13.5t-20.5 34.5l-227 991q-9 35 -17 76t-13 86q-15 -45 -31.5 -86t-33.5 -76l-470 -991q-8 -18 -28 -33t-46 -15h-165l713 1436h186z"/>
<glyph glyph-name="Mu" horiz-adv-x="1734" unicode="Μ" d="M1668 1436l-177 -1436h-179l127 1028q3 22 8 48t11 53l-544 -881q-28 -47 -79 -47h-28q-52 0 -69 47l-333 881q-1 -26 -2.5 -51.5t-3.5 -46.5l-126 -1031h-180l176 1436h152q27 0 40 -6t27 -28l335 -881q8 -21 14 -43t11 -45q10 23 21 45t24 43l548 881q10 11 17.5 17.5 t15.5 10.5t17.5 5t23.5 1h153z"/>
<glyph glyph-name="Nu" horiz-adv-x="1424" unicode="Ν" d="M1359 1436l-177 -1436h-104q-24 0 -39.5 9t-29.5 29l-604 1066q-2 -43 -6 -75l-126 -1029h-180l176 1436h107q27 0 39 -6t26 -28l604 -1066q2 25 4 47t4 42l125 1011h181z"/>
<glyph glyph-name="Xi" horiz-adv-x="1153" unicode="Ξ" d="M334 814h537l-23 -178h-536zM1022 173l-20 -173h-996l20 173h996zM1178 1436l-21 -173h-996l21 173h996z"/>
<glyph glyph-name="Omicron" horiz-adv-x="1495" unicode="Ο" d="M1218 814q0 106 -27 192t-77.5 147t-123 94t-163.5 33q-116 0 -212 -46.5t-165 -132.5t-107.5 -207.5t-38.5 -271.5q0 -106 26.5 -192t77 -146.5t122.5 -93.5t163 -33q117 0 213.5 46.5t166 132t107.5 207t38 271.5zM1429 819q0 -182 -57.5 -335t-159 -264t-240 -173 t-301.5 -62q-134 0 -240.5 47.5t-181.5 131.5t-115 199.5t-40 252.5q0 121 26 230.5t74 202.5t116.5 167.5t152.5 127t182.5 80.5t206.5 28q133 0 240 -47.5t182 -132t115 -200.5t40 -253z"/>
<glyph glyph-name="Pi" horiz-adv-x="1423" unicode="Π" d="M1181 0h-206l156 1274h-677l-156 -1274h-206l176 1436h1089z"/>
<glyph glyph-name="Rho" horiz-adv-x="1133" unicode="Ρ" d="M674 1436q116 0 201 -28t140.5 -78.5t82.5 -121t27 -156.5q0 -114 -36.5 -209.5t-108 -164.5t-176.5 -108t-241 -39h-201l-65 -531h-204l175 1436h406zM583 694q82 0 145 25.5t105.5 70.5t64 107t21.5 136q0 111 -65.5 176.5t-199.5 65.5h-201l-71 -581h201z"/>
<glyph glyph-name="Sigma" horiz-adv-x="1128" unicode="Σ" d="M515 1274q-48 0 -85 3.5t-73 11.5q80 -48 121 -117l198 -338q24 -41 33 -61t7 -37q-1 -11 -5 -22t-11.5 -23.5t-19.5 -28t-30 -36.5l-325 -387q-26 -32 -50 -52t-51 -36q38 5 70 7.5t60 2.5h645l-19 -161h-996l10 77q2 23 16 46t31 40l500 552l-374 572q-9 13 -14.5 28 t-3.5 32l11 89h996l-20 -162h-621z"/>
<glyph glyph-name="Tau" horiz-adv-x="1097" unicode="Τ" d="M1147 1264h-415l-156 -1264h-204l154 1264h-417l20 172h1040z"/>
<glyph glyph-name="Upsilon" horiz-adv-x="1177" unicode="Υ" d="M687 570l-71 -570h-205l71 568l-378 868h182q27 0 42 -13t23 -35l224 -554q11 -31 18.5 -59.5t13.5 -56.5q13 28 28.5 56t33.5 60l363 554q11 18 29.5 33t44.5 15h170z"/>
<glyph glyph-name="Phi" horiz-adv-x="1553" unicode="Φ" d="M966 1364q129 -2 230 -48t170.5 -123.5t106 -180.5t36.5 -219q0 -98 -23 -188.5t-66 -169.5t-105 -144.5t-140 -112t-170 -72.5t-196 -27l-24 -193h-194l24 193q-129 1 -230 47t-170.5 124t-106 181.5t-36.5 218.5q0 147 51.5 276t144.5 226t221.5 153.5t282.5 58.5 l23 186h194zM752 1203q-105 -2 -193.5 -45.5t-152 -117.5t-99.5 -172t-36 -208q0 -86 24.5 -161.5t71 -133t114 -91.5t153.5 -35zM828 239q105 1 193.5 45t152.5 118t100 172t36 209q0 85 -24.5 161t-71 133t-114.5 90.5t-154 35.5z"/>
<glyph glyph-name="Chi" horiz-adv-x="1228" unicode="Χ" d="M778 776l374 -776h-184q-22 0 -33.5 12t-18.5 26l-281 615q-9 -17 -19 -32l-417 -583q-14 -20 -30.5 -29t-36.5 -9h-204l566 767l-333 669h185q22 0 31.5 -6.5t17.5 -22.5l247 -530q5 10 10.5 19.5t12.5 20.5l349 489q21 30 50 30h213z"/>
<glyph glyph-name="Psi" horiz-adv-x="1520" unicode="Ψ" d="M1531 1436l-64 -513q-15 -127 -64 -230.5t-129.5 -177.5t-192 -117t-252.5 -49l-43 -349h-206l43 349q-138 7 -238.5 50t-163 117t-81 156t-18.5 152q0 48 6 99l63 513h137q33 0 48.5 -21t11.5 -51l-54 -441q-6 -49 -6 -92q0 -40 8 -94t45 -105.5t101.5 -80.5t160.5 -35 l113 920h206l-113 -920q98 6 170.5 35t122 80t78.5 124.5t41 167.5l55 441q3 30 23.5 51t53.5 21h138z"/>
<glyph glyph-name="alpha" horiz-adv-x="1114" unicode="α" d="M1082 1017q-47 -171 -107.5 -320t-132.5 -274q-1 -27 -1 -52t1.5 -60t12 -69.5t32.5 -54t61 -19.5h66l-20 -109q-2 -12 -8 -23.5t-19 -21.5t-34 -16t-52 -6q-42 0 -71 16t-47 48t-27.5 79t-12.5 110q-97 -123 -200.5 -191t-209.5 -68q-59 0 -107 22.5t-82.5 68t-53.5 115 t-19 163.5q0 135 40 257.5t109 216t160.5 148.5t195.5 55q64 0 110 -21t78 -58t51.5 -86.5t28.5 -106.5q5 15 9 31t9 32q17 63 30 101.5t25 59t24 27t28 6.5h133zM397 142q46 0 89.5 23.5t84 66t78 103.5t71.5 136q8 79 9.5 121.5t1.5 54.5q0 59 -12 111.5t-44.5 87 t-95.5 34.5q-68 0 -128.5 -39.5t-106 -107t-72.5 -157.5t-27 -190q0 -121 39 -182.5t113 -61.5z"/>
<glyph glyph-name="beta" horiz-adv-x="1045" unicode="β" d="M165 914q16 129 50 228.5t88.5 168t132 104t179.5 35.5q82 0 144.5 -24t105.5 -65t65 -96.5t22 -119.5q0 -132 -64.5 -222.5t-179.5 -128.5q119 -31 182 -114t63 -204q0 -102 -32.5 -191.5t-91.5 -156t-141 -104.5t-182 -38q-71 0 -138 28t-114 86l-19 -158l-48 -201 q-12 -39 -35.5 -61t-65.5 -22h-75l80 657zM270 227q33 -44 87 -66.5t114 -22.5q72 0 126.5 26.5t92 72.5t56.5 107.5t19 131.5q0 63 -19 108t-52 73.5t-77.5 42t-95.5 13.5h-56l18 149h34q55 0 102 16.5t81 50t53 83.5t19 118q0 87 -45 134t-123 47q-53 0 -94 -22t-71.5 -70 t-51.5 -125t-34 -186l-73 -598z"/>
<glyph glyph-name="gamma" horiz-adv-x="1018" unicode="γ" d="M1041 1016q-40 -124 -94.5 -246.5t-119 -239.5t-136.5 -227t-147 -210l-53 -434h-188l52 429q-9 170 -25 315.5t-45 252t-73.5 166.5t-110.5 60h-29l9 69q2 16 7 29t16 22.5t30 14.5t49 5q87 0 146.5 -51.5t97 -150.5t55 -242.5t18.5 -326.5q51 76 96 161.5t84 175.5 t72 182t60 182q10 36 27.5 50t43.5 14h158z"/>
<glyph glyph-name="delta" horiz-adv-x="1031" unicode="δ" d="M918 1293q-6 -26 -18 -34t-36 -8q-14 0 -41.5 7.5t-64 17t-79 17t-84.5 7.5q-39 0 -67 -8t-46 -22t-26.5 -32.5t-8.5 -39.5q0 -31 21.5 -59t56 -56.5t79 -58.5t91 -66t91 -79.5t79 -98t56 -121.5t21.5 -151q0 -114 -36 -209.5t-101.5 -165t-157.5 -108t-204 -38.5 q-95 0 -168 31.5t-123 87t-76 130.5t-26 161q0 398 421 520q-40 29 -76.5 58.5t-64.5 62.5t-44.5 71.5t-16.5 85.5q0 55 22.5 102t66.5 81t108.5 53t148.5 19q37 0 80.5 -3.5t87.5 -9.5t86.5 -13.5t77.5 -16.5zM458 132q61 0 115 25.5t94 73.5t63 116.5t23 153.5 q0 64 -16.5 116t-44 95t-64 78t-75.5 66q-61 -23 -117 -59.5t-98.5 -90.5t-68 -128t-25.5 -171q0 -56 13 -105.5t39 -87.5t66.5 -60t95.5 -22z"/>
<glyph glyph-name="epsilon" horiz-adv-x="846" unicode="ε" d="M743 144q-39 -42 -84 -71.5t-92.5 -48.5t-95 -28t-91.5 -9q-72 0 -134.5 19.5t-109 55.5t-73 87.5t-26.5 114.5q0 94 61 166.5t184 103.5q-47 15 -79 38.5t-51.5 51t-28 58.5t-8.5 61q0 55 26 107t76.5 92.5t123.5 65t166 24.5q104 0 182 -34t125 -88l-50 -69 q-13 -18 -23.5 -23t-23.5 -5t-28.5 11.5t-39.5 26t-58.5 26t-86.5 11.5q-51 0 -89.5 -12.5t-65 -34t-39.5 -50.5t-13 -61q0 -58 48.5 -97t139.5 -39h152l-16 -127h-152q-122 0 -180 -49t-58 -132q0 -67 46.5 -110.5t131.5 -43.5q58 0 98.5 15.5t69 34t49 34t38.5 15.5 q23 0 33 -18z"/>
<glyph glyph-name="zeta" horiz-adv-x="728" unicode="ζ" d="M846 1372v-7q0 -12 -3 -25.5t-16 -32t-37 -43.5t-63 -61q-49 -45 -104.5 -97t-110 -110.5t-104 -122.5t-87.5 -134t-60.5 -144.5t-22.5 -153.5q0 -53 14 -91.5t40.5 -67t65.5 -49.5t89 -38q71 -25 117.5 -53t73.5 -58t37.5 -61.5t10.5 -64.5q0 -75 -29.5 -144t-83.5 -144 l-139 58q12 18 24.5 38.5t23 43t17 45.5t6.5 46q0 16 -7 33.5t-25.5 35.5t-52 35.5t-86.5 35.5q-68 23 -120.5 54t-88.5 72.5t-55 95.5t-19 125q0 127 46 242t126.5 226t190 221.5t236.5 227.5q-61 -11 -132 -18t-158 -7h-76q-42 0 -57.5 20.5t-12.5 42.5l11 93h614z"/>
<glyph glyph-name="eta" horiz-adv-x="1086" unicode="η" d="M59 958q4 28 28 47.5t79 19.5q46 0 83.5 -13.5t64 -41t39 -67t12.5 -86.5q0 -10 -1 -21q78 117 174 176t197 59q64 0 113.5 -25.5t80.5 -74.5t39.5 -103t8.5 -96q0 -40 -5 -85l-121 -988h-189l121 988h1q5 37 5 68q0 64 -24.5 109t-101.5 45q-40 0 -82 -19.5t-82 -55.5 t-76.5 -87.5t-64.5 -115.5l-72 -591h-187l90 737q3 22 3 40q0 46 -21.5 76.5t-78.5 30.5h-41z"/>
<glyph glyph-name="theta" horiz-adv-x="1122" unicode="θ" d="M658 1451q88 0 158.5 -38t120 -110.5t76 -178t26.5 -239.5q0 -215 -39.5 -382.5t-111.5 -282t-172.5 -174.5t-222.5 -60q-91 0 -163 38t-122 111t-76.5 178.5t-26.5 240.5q0 214 40 381t112.5 282t174.5 174.5t226 59.5zM856 796q1 26 1.5 53t0.5 56q0 197 -54 298 t-158 101q-72 0 -129.5 -34t-100.5 -99t-72 -159.5t-44 -215.5h556zM289 664q-3 -63 -3 -131q0 -195 55.5 -296.5t163.5 -101.5q71 0 128 35.5t100 103t71 166t42 224.5h-557z"/>
<glyph glyph-name="iota" horiz-adv-x="501" unicode="ι" d="M171 1016h189l-91 -735q-2 -20 -2 -38q0 -47 20.5 -80t83.5 -33h79l-7 -59q-3 -20 -17.5 -35.5t-37 -26t-50.5 -16t-58 -5.5q-58 0 -99.5 20.5t-66.5 58t-31.5 77t-6.5 68.5q0 28 4 59z"/>
<glyph glyph-name="kappa" horiz-adv-x="962" unicode="κ" d="M371 1016l-50 -403h29q18 0 32 6t31 24l320 335q14 19 31 28.5t42 9.5h172l-374 -393q-31 -37 -65 -57q16 -13 27 -30t21 -37l291 -499h-167q-23 0 -38.5 8t-24.5 29l-244 408q-12 23 -25 29.5t-41 6.5h-34l-59 -481h-192l125 1016h193z"/>
<glyph glyph-name="lambda" horiz-adv-x="1005" unicode="λ" d="M947 131l-10 -76q-5 -41 -29.5 -53.5t-69.5 -12.5q-47 0 -85 9t-67.5 36t-50.5 76t-35 129l-78 340q-9 51 -12 88t-3 67q-11 -31 -24 -65t-30 -72l-268 -559q-7 -17 -22.5 -27.5t-43.5 -10.5h-156l477 927l-55 274q-6 29 -15 49.5t-24 33t-38 18.5t-57 6h-59l8 70 q1 15 8 27.5t21 22.5t36.5 15.5t56.5 5.5q39 0 75.5 -8t67 -28t53.5 -54t34 -85l224 -1035q12 -57 37.5 -82.5t79.5 -25.5h54z"/>
<glyph glyph-name="mu" horiz-adv-x="1114" unicode="μ" d="M1052 136l-9 -78q-4 -26 -39.5 -47t-95.5 -21q-39 0 -73.5 12t-61 36.5t-43.5 62t-21 88.5q-63 -86 -136 -133.5t-158 -47.5q-119 0 -179 74v-22q0 -28 -2 -63t-6 -69l-33 -269h-97q-42 0 -60 19.5t-18 48.5q0 7 1 16l157 1273h196l-79 -643q-1 -11 -1 -22 q0 -79 35 -130.5t118 -51.5q79 0 142 48t111 133l82 666h196l-91 -734q-2 -18 -2 -33q0 -50 25.5 -81.5t81.5 -31.5h60z"/>
<glyph glyph-name="nu" horiz-adv-x="958" unicode="ν" d="M981 1016q-45 -140 -103.5 -276t-128 -265t-148 -248.5t-163.5 -226.5h-117l-253 1016h154q21 0 34.5 -11t16.5 -28l137 -635q8 -35 12.5 -68.5t7.5 -66.5q55 78 101.5 167.5t86.5 185.5t74.5 196.5t64.5 200.5q8 32 25.5 45.5t37.5 13.5h161z"/>
<glyph glyph-name="xi" horiz-adv-x="733" unicode="ξ" d="M814 1356q-4 -34 -29.5 -53.5t-53.5 -19.5h-83q-66 0 -120.5 -22t-93.5 -59.5t-60.5 -88t-21.5 -108.5q0 -80 59 -125.5t171 -45.5h85l-17 -149h-129q-73 0 -126.5 -20.5t-88 -57t-51 -86t-16.5 -107.5q0 -46 16 -80.5t47 -62.5t77.5 -52.5t108.5 -49.5q49 -20 82 -42 t53.5 -47.5t29.5 -54t9 -60.5q0 -76 -29.5 -147t-85.5 -148l-139 59q12 18 24.5 38.5t23 42.5t17.5 45.5t7 47.5q0 36 -23.5 65.5t-90.5 51.5q-70 24 -128.5 56t-100.5 76t-65.5 100.5t-23.5 128.5q0 55 15.5 113t49.5 110.5t88.5 95.5t133.5 68q-84 30 -121.5 85.5 t-37.5 129.5q0 58 20.5 106t55.5 86t81 67.5t97 49.5q-14 -1 -29 -1h-32h-123q-43 0 -58 19.5t-11 54.5l9 71h638z"/>
<glyph glyph-name="omicron" horiz-adv-x="1040" unicode="ο" d="M437 -14q-83 0 -153 28.5t-120.5 82.5t-79 132.5t-28.5 179.5q0 129 40.5 242.5t111 198t166 133t205.5 48.5q83 0 153 -28.5t120.5 -82.5t79 -132.5t28.5 -178.5q0 -128 -40.5 -241.5t-111 -198.5t-166 -134t-205.5 -49zM455 138q70 0 127.5 38.5t98 103.5t62.5 150 t22 178q0 137 -52 204t-152 67q-71 0 -128 -38.5t-97.5 -103t-62.5 -149.5t-22 -178q0 -135 52 -203.5t152 -68.5z"/>
<glyph glyph-name="pi" horiz-adv-x="1153" unicode="π" d="M1133 915q-3 -26 -21.5 -44t-48.5 -18h-131q-9 -50 -18 -95.5t-16 -100.5t-11.5 -126t-4.5 -170q0 -71 6 -114.5t18 -67.5t29 -32.5t38 -8.5h39l-10 -78q-4 -33 -42 -50t-90 -17q-97 0 -144.5 64t-47.5 191q0 61 9.5 122t24.5 131.5t33 156t35 195.5h-315 q-24 -172 -51 -303t-56 -226.5t-60.5 -159.5t-65.5 -102t-71 -54t-77 -16q-13 0 -27 2t-25 6.5t-18 12t-6 17.5l16 134h19q29 0 61 37t65 118.5t65 213t61 320.5h-196l10 83q1 12 8 24.5t17.5 23t25 17.5t32.5 7h952z"/>
<glyph glyph-name="rho" horiz-adv-x="1050" unicode="ρ" d="M106 541q15 120 54.5 212t101.5 154t144.5 93.5t182.5 31.5q82 0 151 -29.5t119.5 -86t79 -137.5t28.5 -183q0 -126 -36 -237.5t-100 -194t-151.5 -130.5t-190.5 -48q-74 0 -137.5 33.5t-109.5 90.5l-56 -451h-189zM261 265q38 -69 94.5 -101t111.5 -32q66 0 122.5 32.5 t97 93t63.5 148t23 197.5q0 72 -14.5 124.5t-41 87t-63.5 51t-83 16.5q-49 0 -94 -20t-82 -61t-63 -104t-36 -148z"/>
<glyph glyph-name="sigma1" horiz-adv-x="868" unicode="ς" d="M815 829q-10 -11 -19 -17.5t-24 -6.5t-30.5 12.5t-38 27.5t-54.5 27.5t-81 12.5q-71 0 -128 -30.5t-97.5 -84t-62.5 -126.5t-22 -157q0 -74 20 -122.5t56.5 -82.5t87.5 -58t114 -48q54 -21 90.5 -43.5t58.5 -48t31 -55t9 -64.5q0 -77 -29.5 -147.5t-84.5 -147.5l-140 58 q12 18 24.5 39t23 44t17 47t6.5 49q0 17 -4.5 32.5t-18 29.5t-37.5 27.5t-62 27.5q-72 26 -137 59t-114 83.5t-78 123t-29 177.5q0 119 35 222.5t100.5 179.5t160 119.5t213.5 43.5q102 0 175 -35.5t127 -98.5z"/>
<glyph glyph-name="sigma" horiz-adv-x="1122" unicode="σ" d="M1165 1012l-11 -82q-3 -27 -22 -46t-59 -19h-229q59 -49 94 -124t35 -171q0 -126 -38 -233t-106.5 -185t-164 -122t-210.5 -44q-92 0 -165.5 30t-125 86t-79.5 135.5t-28 179.5q0 133 42 242.5t120 188t188 121.5t245 43h514zM629 865q-100 0 -171.5 -31t-117.5 -89 t-68 -142t-22 -190q0 -134 56 -207t165 -73q77 0 135.5 32.5t97.5 94t59 149.5t20 200q0 44 -7 85t-21 75t-35.5 59t-50.5 37h-40z"/>
<glyph glyph-name="tau" horiz-adv-x="869" unicode="τ" d="M879 931q-5 -32 -24 -50t-51 -18h-282l-70 -578q-2 -21 -2 -39q0 -47 20 -79.5t83 -32.5h80l-7 -59q-3 -20 -17.5 -35.5t-37 -26t-51 -16t-58.5 -5.5q-58 0 -99 20.5t-66 58t-32 77.5t-7 70q0 27 4 57l72 588h-283l10 82q3 25 21.5 43.5t50.5 18.5h754z"/>
<glyph glyph-name="upsilon" horiz-adv-x="1029" unicode="υ" d="M932 1016q1 -28 1.5 -62t1.5 -68t1.5 -65t0.5 -53q0 -146 -20.5 -260.5t-57 -201.5t-85.5 -148.5t-106.5 -100t-120.5 -56t-126 -17.5q-90 0 -157 26.5t-109.5 76.5t-56 107t-13.5 107q0 32 4 67l79 648h189l-79 -648q-3 -24 -3 -46q0 -28 7 -62t30.5 -64t59 -46 t80.5 -16q50 0 102.5 26t95.5 88.5t70.5 166.5t27.5 261q0 28 -1 63t-2 71.5l-2 73t-1 68.5q1 35 20.5 49.5t38.5 14.5h131z"/>
<glyph glyph-name="phi" horiz-adv-x="1393" unicode="φ" d="M615 707q20 166 109 245.5t232 79.5q83 0 149.5 -32.5t113 -89.5t71 -134t24.5 -166q0 -138 -45 -252t-126 -196.5t-193 -128.5t-246 -47l-40 -327h-177l40 327q-110 1 -197 36.5t-148 96.5t-93 144t-32 181q0 103 29 193.5t81.5 164.5t125.5 130.5t162 92.5l43 -77 q11 -22 0.5 -45t-29.5 -34q-53 -29 -94.5 -71.5t-70 -96t-43.5 -117t-15 -132.5t19 -127.5t56.5 -101.5t93.5 -68.5t129 -26.5zM722 128q96 1 171 39t126.5 102.5t78.5 151t27 186.5q0 63 -12 115t-35 89.5t-56.5 58t-76.5 20.5q-60 0 -100.5 -44t-51.5 -139z"/>
<glyph glyph-name="chi" horiz-adv-x="893" unicode="χ" d="M655 -107q15 -56 40 -82t78 -26h34l-10 -76q-2 -20 -7 -32.5t-14.5 -20t-24.5 -10.5t-37 -3q-40 0 -75.5 7.5t-65 29t-53 59.5t-39.5 98l-106 382q-8 -28 -17 -54.5t-19 -46.5l-233 -419q-7 -15 -21.5 -26.5t-38.5 -11.5h-134l401 714l-112 405q-9 30 -20 50t-26 32.5 t-37 18t-53 5.5h-33l9 70q2 15 4 27.5t10 22.5t24.5 15.5t47.5 5.5q97 0 155 -39.5t86 -135.5l103 -370q16 59 37 102l215 393q8 16 22 27.5t38 11.5h135l-386 -685z"/>
<glyph glyph-name="psi" horiz-adv-x="1431" unicode="ψ" d="M1333 1016q1 -28 2.5 -62l3 -68t2 -65t0.5 -53q0 -146 -22.5 -259t-63.5 -197t-97 -142.5t-123.5 -96t-143 -57t-154.5 -26.5l-41 -331h-189l40 330q-128 9 -219 46t-146.5 100t-72.5 132.5t-17 129.5q0 40 6 84l66 535h131q23 0 37.5 -23t10.5 -51l-56 -461 q-4 -29 -4 -56q0 -110 67.5 -187t215.5 -97l159 1295h189l-159 -1297q86 9 158 39t124 93t81 163.5t29 249.5q0 77 -5.5 134t-5.5 103q0 16 1 31q4 35 22.5 49.5t38.5 14.5h135z"/>
<glyph glyph-name="theta1" horiz-adv-x="1183" unicode="ϑ" d="M1220 1016l-9 -77q-2 -26 -19.5 -43.5t-49.5 -17.5h-88q-2 -197 -38 -361t-106 -282t-175 -183.5t-246 -65.5q-93 0 -160 31.5t-107 89.5q-40 59 -54 139q-8 44 -8 93q0 41 5 85l23 187q3 23 3 41q0 38 -13 56q-19 26 -73 26h-52l9 72q4 31 38 50t97 19q45 0 82 -14 t62 -45.5t35 -81.5q5 -27 5 -60q0 -29 -4 -63l-23 -187q-5 -37 -5 -70q0 -25 3 -47q6 -53 26.5 -91.5t55.5 -59.5t86 -21q77 0 142 44t112.5 135t75 231t30.5 333q-120 1 -217 20t-165 55.5t-105 89.5t-37 124q0 63 21.5 114.5t62 89t99.5 58t134 20.5t138.5 -27t112.5 -81 t81 -135.5t43 -189.5h172zM529 1174q0 -149 346 -158q-7 67 -23.5 121.5t-42.5 93t-61.5 59.5t-79.5 21q-69 0 -104 -37.5t-35 -99.5z"/>
<glyph glyph-name="Upsilon1" horiz-adv-x="1181" unicode="ϒ" d="M122 1406q5 40 117 40q72 0 138 -30t117 -101t84 -188t41 -291q50 174 112 291t130.5 188t141.5 101t145 30q114 0 108 -40l-16 -130h-67q-69 0 -143 -42t-141.5 -137.5t-123.5 -250.5t-89 -381l-57 -465h-205l53 429q16 146 16 264q0 72 -11 184t-55.5 211.5t-109 143.5 t-135.5 44h-66z"/>
<glyph glyph-name="omega1" horiz-adv-x="1617" unicode="ϖ" d="M1640 1007l-11 -90q-3 -25 -20 -42t-46 -17h-162q17 -66 27.5 -133t10.5 -130q0 -137 -33.5 -249.5t-92 -193t-138 -124.5t-170.5 -44q-56 0 -98 14.5t-72.5 40.5t-50.5 61.5t-31 77.5q-22 -42 -51 -77.5t-66 -61.5t-81.5 -40.5t-98.5 -14.5q-71 0 -127.5 30.5 t-96.5 86.5t-61.5 135t-21.5 175q0 125 35.5 235t88.5 212h-213l9 80q1 11 7.5 23.5t17 22.5t25 16.5t31.5 6.5h1490zM877 414q-6 -45 -6 -85q0 -15 2 -47.5t17 -69.5t41.5 -57.5t67.5 -20.5q39 0 82.5 20.5t80.5 71t61.5 134.5t24.5 210q0 76 -13 152.5t-30 135.5h-749 q-25 -43 -46 -89.5t-36.5 -99t-24.5 -113t-9 -131.5q0 -83 14 -139t36 -90t49.5 -48t54.5 -14q39 0 70.5 19t55.5 53t40 82t25 107l36 285h188z"/>
<glyph glyph-name="uni0400" horiz-adv-x="1075" unicode="Ѐ" d="M455 1269l-57 -464h495l-21 -161h-494l-58 -477h617l-21 -167h-823l176 1436h823l-21 -167h-616zM615 1854q32 0 48 -5.5t30 -28.5l176 -274h-129q-21 0 -33.5 3t-25.5 18l-256 287h190z"/>
<glyph glyph-name="afii10023" horiz-adv-x="1075" unicode="Ё" d="M455 1269l-57 -464h495l-21 -161h-494l-58 -477h617l-21 -167h-823l176 1436h823l-21 -167h-616zM1051 1664q0 -24 -9.5 -45.5t-26 -37.5t-38 -25t-46.5 -9q-24 0 -45.5 9t-37.5 25t-25.5 37.5t-9.5 45.5q0 25 9.5 47t25.5 38.5t37.5 26t45.5 9.5q25 0 46.5 -9.5t38 -26 t26 -38.5t9.5 -47zM666 1664q0 -24 -9.5 -45.5t-26 -37.5t-38.5 -25t-47 -9q-23 0 -44.5 9t-37.5 25t-25.5 37.5t-9.5 45.5q0 25 9.5 47t25.5 38.5t37.5 26t44.5 9.5q25 0 47 -9.5t38.5 -26t26 -38.5t9.5 -47z"/>
<glyph glyph-name="afii10051" horiz-adv-x="1389" unicode="Ђ" d="M892 822q113 0 194 -25.5t133 -70.5t76.5 -107t24.5 -134q0 -110 -36.5 -199t-104.5 -153t-166.5 -98.5t-222.5 -34.5h-84l20 163h84q78 0 135 20.5t95 58.5t56.5 92.5t18.5 123.5q0 47 -14 84.5t-43 63.5t-75.5 39.5t-110.5 13.5h-271l-81 -659h-205l156 1270h-361 l20 166h971l-20 -166h-405l-55 -448h271z"/>
<glyph glyph-name="afii10052" horiz-adv-x="1009" unicode="Ѓ" d="M1052 1274h-598l-156 -1274h-206l176 1436h804zM1095 1854l-331 -286q-17 -14 -31 -18t-35 -4h-129l239 274q10 12 18.5 18.5t18 10t21 4.5t27.5 1h202z"/>
<glyph glyph-name="afii10053" horiz-adv-x="1252" unicode="Є" d="M1150 201q-92 -103 -216.5 -160t-287.5 -57q-129 0 -231.5 46.5t-174 129.5t-109 197.5t-37.5 251.5q0 186 57 341t157 266.5t236 173.5t295 62q142 0 247.5 -50t175.5 -133l-79 -95q-8 -11 -18.5 -17.5t-27.5 -6.5q-18 0 -39.5 19t-56.5 42.5t-88.5 42.5t-135.5 19 q-90 0 -171 -31.5t-145.5 -91.5t-111 -146t-67.5 -195h650l-20 -156h-647v-26q0 -109 28 -195.5t78 -147t118.5 -92.5t150.5 -32q54 0 99 7.5t85 23t76.5 39.5t74.5 57q16 12 33.5 16t31.5 -13z"/>
<glyph glyph-name="afii10054" horiz-adv-x="1015" unicode="Ѕ" d="M927 1204q-11 -16 -22.5 -23.5t-26.5 -7.5q-17 0 -37 17t-49 37t-71 37t-103 17q-62 0 -110 -19t-81 -51.5t-50 -76.5t-17 -94t24 -84.5t63 -59t88.5 -43.5t102 -39.5t102 -46t88.5 -62.5t63 -89.5t24 -127.5q0 -103 -35.5 -194.5t-101.5 -160.5t-160.5 -109t-211.5 -40 q-128 0 -231.5 51t-168.5 137l72 98q9 11 22.5 19t27.5 8q20 0 42.5 -22t56.5 -49t83 -49t122 -22q66 0 118.5 20.5t89.5 57.5t56.5 89t19.5 115q0 54 -23.5 89t-62.5 59.5t-88 42.5t-101 37t-101 43t-88 61.5t-62.5 92t-23.5 134.5q0 89 32.5 171.5t93.5 145.5t148.5 100.5 t197.5 37.5q112 0 202.5 -43.5t147.5 -116.5z"/>
<glyph glyph-name="afii10055" horiz-adv-x="541" unicode="І" d="M299 0h-206l175 1436h207z"/>
<glyph glyph-name="afii10056" horiz-adv-x="541" unicode="Ї" d="M299 0h-206l175 1436h207zM718 1664q0 -24 -9.5 -45.5t-26 -37.5t-38 -25t-46.5 -9q-24 0 -45.5 9t-37.5 25t-25.5 37.5t-9.5 45.5q0 25 9.5 47t25.5 38.5t37.5 26t45.5 9.5q25 0 46.5 -9.5t38 -26t26 -38.5t9.5 -47zM333 1664q0 -24 -9.5 -45.5t-26 -37.5t-38.5 -25 t-47 -9q-23 0 -44.5 9t-37.5 25t-25.5 37.5t-9.5 45.5q0 25 9.5 47t25.5 38.5t37.5 26t44.5 9.5q25 0 47 -9.5t38.5 -26t26 -38.5t9.5 -47z"/>
<glyph glyph-name="afii10057" horiz-adv-x="789" unicode="Ј" d="M635 482q-15 -119 -53 -212t-98 -156.5t-141.5 -96.5t-182.5 -33q-54 0 -101 7t-95 21l15 120q3 17 12.5 29t31.5 12q11 0 23.5 -2.5t29 -6t37.5 -6t48 -2.5q50 0 94.5 17t79.5 55t59.5 99t35.5 150l117 959h206z"/>
<glyph glyph-name="afii10058" horiz-adv-x="1963" unicode="Љ" d="M1462 822q112 0 193 -25.5t133.5 -70.5t77 -107t24.5 -134q0 -110 -36.5 -199t-105 -153t-166.5 -98.5t-222 -34.5h-445l156 1274h-406q-46 -276 -93.5 -478.5t-97 -345.5t-100.5 -233.5t-105.5 -141.5t-112 -70t-118.5 -19q-112 0 -106 41l15 130h67q26 0 53 8 t55.5 30.5t57.5 63t58.5 106.5t60.5 161t62.5 225t63.5 299.5t65 385.5h807l-75 -614h240zM1380 163q78 0 135 20.5t94.5 58.5t56 92.5t18.5 123.5q0 47 -13.5 84.5t-43 63.5t-75.5 39.5t-110 13.5h-240l-61 -496h239z"/>
<glyph glyph-name="afii10059" horiz-adv-x="2019" unicode="Њ" d="M1519 822q112 0 193 -25.5t133 -70.5t76.5 -107t24.5 -134q0 -110 -36.5 -199t-104.5 -153t-166 -98.5t-222 -34.5h-442l80 649h-676l-80 -649h-206l176 1436h207l-79 -638h676l79 638h207l-76 -614h236zM1437 163q78 0 135 20.5t94.5 58.5t56 92.5t18.5 123.5 q0 47 -13.5 84.5t-43 63.5t-75.5 39.5t-111 13.5h-235l-61 -496h235z"/>
<glyph glyph-name="afii10060" horiz-adv-x="1392" unicode="Ћ" d="M621 816q108 29 197.5 44.5t160.5 15.5q11 0 56 -1.5t105.5 -24.5t99.5 -72.5t50 -108.5t11 -107q0 -47 -7 -102l-56 -461h-206l57 462q5 38 5 71q0 49 -14.5 97t-63.5 69.5t-114 21.5q-23 0 -86 -5.5t-214 -47.5l-82 -667h-204l155 1270h-361l20 166h972l-21 -166h-404z "/>
<glyph glyph-name="afii10061" horiz-adv-x="1262" unicode="Ќ" d="M860 848q-27 -36 -59.5 -59t-70.5 -36q50 -14 81 -46t57 -88l306 -619h-185q-30 0 -49 16t-33 48l-259 519q-9 20 -19.5 33.5t-24 22t-31.5 12t-42 3.5h-154l-80 -654h-205l176 1436h205l-76 -624h132q40 0 70 13.5t62 54.5l385 499q19 25 43 41t53 16h174zM1180 1854 l-331 -286q-17 -14 -31 -18t-35 -4h-129l239 274q10 12 18.5 18.5t18 10t21 4.5t27.5 1h202z"/>
<glyph glyph-name="uni040D" horiz-adv-x="1423" unicode="Ѝ" d="M1357 1436l-176 -1436h-206l121 980q5 45 13 92.5t22 101.5q-22 -47 -46 -87t-47 -72l-693 -951q-17 -23 -43.5 -43.5t-57.5 -20.5h-152l176 1436h206l-120 -979q-5 -45 -14 -94t-23 -103q23 48 47.5 88.5t47.5 72.5l693 951q17 24 43 44t56 20h153zM733 1853 q32 0 48 -5.5t30 -28.5l176 -274h-129q-21 0 -33.5 3t-25.5 18l-256 287h190z"/>
<glyph glyph-name="afii10062" horiz-adv-x="1183" unicode="Ў" d="M1275 1436l-690 -1247q-33 -59 -68 -98.5t-71 -62.5t-74 -32.5t-78 -9.5q-63 0 -93.5 13t-27.5 44l14 114h67q27 0 50.5 5.5t45 19t41.5 36.5t40 59l79 141l-408 1018h188q27 0 41.5 -13.5t22.5 -34.5l222 -631q13 -41 23 -81t17 -82q16 41 35 81.5t40 82.5l335 630 q11 17 30 32.5t45 15.5h174zM725 1629q37 0 63.5 8.5t44 28t28 51t15.5 78.5h105q19 0 27 -18q6 -14 6 -31v-9q-6 -50 -29.5 -88.5t-62.5 -65t-91.5 -40.5t-116.5 -14q-129 0 -196 54q-57 46 -57 125q0 14 2 29q2 22 13 40t31 18h105q-3 -29 -3 -53q0 -14 1 -26 q3 -32 16.5 -51t37.5 -27.5t61 -8.5z"/>
<glyph glyph-name="afii10145" horiz-adv-x="1373" unicode="Џ" d="M1308 1436l-177 -1436h-426l-35 -287q-3 -27 -23.5 -44t-48.5 -17h-123l42 348h-425l176 1436h206l-156 -1275h627l156 1275h207z"/>
<glyph glyph-name="afii10017" horiz-adv-x="1279" unicode="А" d="M1197 0h-158q-27 0 -42.5 13.5t-21.5 35.5l-73 337h-573l-156 -337q-9 -20 -29 -34.5t-46 -14.5h-160l702 1436h208zM870 534l-123 567q-5 29 -12 66.5t-14 81.5q-16 -44 -32 -82t-28 -67l-263 -566h472z"/>
<glyph glyph-name="afii10018" horiz-adv-x="1166" unicode="Б" d="M453 1274l-55 -452h241q112 0 193 -25.5t133.5 -70.5t77 -107t24.5 -134q0 -110 -36.5 -199t-105 -153t-166.5 -98.5t-222 -34.5h-445l176 1436h872l-20 -162h-667zM378 659l-61 -496h240q78 0 135 20.5t94.5 58.5t56 92.5t18.5 123.5q0 47 -13.5 84.5t-43 63.5 t-75.5 39.5t-110 13.5h-241z"/>
<glyph glyph-name="afii10019" horiz-adv-x="1210" unicode="В" d="M704 1436q114 0 195.5 -22.5t134.5 -64.5t78 -101.5t25 -133.5q0 -63 -18 -121t-54.5 -107t-91.5 -86.5t-129 -61.5q128 -29 191 -100.5t63 -182.5q0 -99 -36 -182.5t-103.5 -144t-165 -94.5t-220.5 -34h-480l176 1436h435zM455 1275l-59 -480h221q77 0 135.5 20 t97.5 56.5t59 89t20 117.5q0 100 -59.5 148.5t-184.5 48.5h-230zM590 163q77 0 134 20.5t95 58t57 90.5t19 119q0 46 -15 82.5t-45 62.5t-76.5 40t-109.5 14h-271l-60 -487h272z"/>
<glyph glyph-name="afii10020" horiz-adv-x="1009" unicode="Г" d="M1052 1274h-598l-156 -1274h-206l176 1436h804z"/>
<glyph glyph-name="afii10021" horiz-adv-x="1467" unicode="Д" d="M1371 161l-55 -448q-4 -27 -24 -44t-49 -17h-123l43 348h-1029l-36 -287q-3 -27 -23.5 -44t-49.5 -17h-122l62 509h136q29 15 61 48.5t65 95.5t67.5 156.5t70 231.5t71.5 320t72 423h807l-156 -1275h212zM952 161l137 1113h-407q-41 -240 -83.5 -421.5t-86.5 -315.5 t-89.5 -225.5t-91.5 -150.5h621z"/>
<glyph glyph-name="afii10022" horiz-adv-x="1075" unicode="Е" d="M455 1269l-57 -464h495l-21 -161h-494l-58 -477h617l-21 -167h-823l176 1436h823l-21 -167h-616z"/>
<glyph glyph-name="afii10024" horiz-adv-x="1941" unicode="Ж" d="M1557 865q-32 -42 -64 -69.5t-74 -43.5q45 -15 78 -46.5t57 -85.5l297 -620h-136q-45 0 -75 20t-44 53l-250 502q-20 42 -48.5 60.5t-76.5 18.5h-149l-80 -654h-193l80 654h-147q-48 0 -81.5 -18.5t-63.5 -60.5l-371 -502q-24 -33 -58.5 -53t-79.5 -20h-137l450 620 q37 54 77.5 85.5t89.5 46.5q-39 15 -64 43t-47 70l-297 571h161q32 0 57 -16t38 -44l247 -492q22 -44 51 -58t69 -14h126l76 624h193l-76 -624h126q40 0 72.5 14t65.5 58l368 492q20 28 48.5 44t60.5 16h162z"/>
<glyph glyph-name="afii10025" horiz-adv-x="1077" unicode="З" d="M174 1302q90 70 199.5 109t235.5 39q95 0 169 -24.5t125 -68.5t77.5 -104t26.5 -132q0 -125 -67 -218.5t-186 -139.5q100 -42 155.5 -120.5t55.5 -181.5q0 -98 -36.5 -184.5t-105 -151t-165.5 -102t-218 -37.5q-74 0 -141 13.5t-124.5 38.5t-105.5 60t-84 78l71 96 q9 11 22 19t28 8q21 0 46.5 -22t63.5 -49t94 -49t138 -22q76 0 136 21t101.5 60t63.5 94.5t22 124.5q0 48 -16.5 88.5t-49 69.5t-80.5 45t-110 16h-179l20 169h172q62 0 114.5 16.5t90 48t58.5 77t21 104.5q0 84 -57 137t-171 53q-72 0 -125.5 -17t-93 -37.5t-66 -37.5 t-44.5 -17q-16 0 -25.5 8t-16.5 24z"/>
<glyph glyph-name="afii10026" horiz-adv-x="1423" unicode="И" d="M1357 1436l-176 -1436h-206l121 980q5 45 13 92.5t22 101.5q-22 -47 -46 -87t-47 -72l-693 -951q-17 -23 -43.5 -43.5t-57.5 -20.5h-152l176 1436h206l-120 -979q-5 -45 -14 -94t-23 -103q23 48 47.5 88.5t47.5 72.5l693 951q17 24 43 44t56 20h153z"/>
<glyph glyph-name="afii10027" horiz-adv-x="1423" unicode="Й" d="M1357 1436l-176 -1436h-206l121 980q5 45 13 92.5t22 101.5q-22 -47 -46 -87t-47 -72l-693 -951q-17 -23 -43.5 -43.5t-57.5 -20.5h-152l176 1436h206l-120 -979q-5 -45 -14 -94t-23 -103q23 48 47.5 88.5t47.5 72.5l693 951q17 24 43 44t56 20h153zM838 1628 q37 0 63.5 8.5t44 28t28 51t15.5 78.5h105q19 0 27 -18q6 -14 6 -31v-9q-6 -50 -29.5 -88.5t-62.5 -65t-91.5 -40.5t-116.5 -14q-129 0 -196 54q-57 46 -57 125q0 14 2 29q2 22 13 40t31 18h105q-3 -29 -3 -53q0 -14 1 -26q3 -32 16.5 -51t37.5 -27.5t61 -8.5z"/>
<glyph glyph-name="afii10028" horiz-adv-x="1262" unicode="К" d="M860 848q-27 -36 -59.5 -59t-70.5 -36q50 -14 81 -46t57 -88l306 -619h-185q-30 0 -49 16t-33 48l-259 519q-9 20 -19.5 33.5t-24 22t-31.5 12t-42 3.5h-154l-80 -654h-205l176 1436h205l-76 -624h132q40 0 70 13.5t62 54.5l385 499q19 25 43 41t53 16h174z"/>
<glyph glyph-name="afii10029" horiz-adv-x="1362" unicode="Л" d="M1121 0h-206l156 1274h-406q-46 -276 -93.5 -478.5t-97 -345.5t-100.5 -233.5t-105.5 -141.5t-112 -70t-118.5 -19q-112 0 -106 41l15 130h67q26 0 53 8t55.5 30.5t57.5 63t58.5 106.5t60.5 161t62.5 225t63.5 299.5t65 385.5h807z"/>
<glyph glyph-name="afii10030" horiz-adv-x="1734" unicode="М" d="M1668 1436l-177 -1436h-179l127 1028q3 22 8 48t11 53l-544 -881q-28 -47 -79 -47h-28q-52 0 -69 47l-333 881q-1 -26 -2.5 -51.5t-3.5 -46.5l-126 -1031h-180l176 1436h152q27 0 40 -6t27 -28l335 -881q8 -21 14 -43t11 -45q10 23 21 45t24 43l548 881q10 11 17.5 17.5 t15.5 10.5t17.5 5t23.5 1h153z"/>
<glyph glyph-name="afii10031" horiz-adv-x="1424" unicode="Н" d="M1359 1436l-177 -1436h-207l80 649h-676l-80 -649h-206l176 1436h207l-79 -638h676l79 638h207z"/>
<glyph glyph-name="afii10032" horiz-adv-x="1495" unicode="О" d="M1218 814q0 106 -27 192t-77.5 147t-123 94t-163.5 33q-116 0 -212 -46.5t-165 -132.5t-107.5 -207.5t-38.5 -271.5q0 -106 26.5 -192t77 -146.5t122.5 -93.5t163 -33q117 0 213.5 46.5t166 132t107.5 207t38 271.5zM1429 819q0 -182 -57.5 -335t-159 -264t-240 -173 t-301.5 -62q-134 0 -240.5 47.5t-181.5 131.5t-115 199.5t-40 252.5q0 121 26 230.5t74 202.5t116.5 167.5t152.5 127t182.5 80.5t206.5 28q133 0 240 -47.5t182 -132t115 -200.5t40 -253z"/>
<glyph glyph-name="afii10033" horiz-adv-x="1373" unicode="П" d="M1131 0h-206l156 1274h-627l-156 -1274h-206l176 1436h1040z"/>
<glyph glyph-name="afii10034" horiz-adv-x="1133" unicode="Р" d="M674 1436q116 0 201 -28t140.5 -78.5t82.5 -121t27 -156.5q0 -114 -36.5 -209.5t-108 -164.5t-176.5 -108t-241 -39h-201l-65 -531h-204l175 1436h406zM583 694q82 0 145 25.5t105.5 70.5t64 107t21.5 136q0 111 -65.5 176.5t-199.5 65.5h-201l-71 -581h201z"/>
<glyph glyph-name="afii10035" horiz-adv-x="1247" unicode="С" d="M679 161q65 0 114.5 10.5t87 26.5t64.5 34t46.5 34t33.5 26.5t26 10.5q10 0 16.5 -3.5t10.5 -8.5l72 -90q-94 -103 -218 -160t-287 -57q-130 0 -232.5 46.5t-173.5 129t-108.5 197t-37.5 251.5q0 124 26.5 235t75.5 205t117.5 169t152.5 127t181 80t203 28 q77 0 140 -13.5t114 -38.5t93 -60.5t77 -79.5l-70 -85q-9 -11 -19.5 -18t-27.5 -7q-19 0 -39 19.5t-53.5 42.5t-86.5 42.5t-138 19.5q-113 0 -211 -45.5t-170 -130t-113.5 -204.5t-41.5 -269q0 -108 28 -194t78 -146t119 -92t151 -32z"/>
<glyph glyph-name="afii10036" horiz-adv-x="1097" unicode="Т" d="M1147 1264h-415l-156 -1264h-204l154 1264h-417l20 172h1040z"/>
<glyph glyph-name="afii10037" horiz-adv-x="1183" unicode="У" d="M1275 1436l-690 -1247q-33 -59 -68 -98.5t-71 -62.5t-74 -32.5t-78 -9.5q-63 0 -93.5 13t-27.5 44l14 114h67q27 0 50.5 5.5t45 19t41.5 36.5t40 59l79 141l-408 1018h188q27 0 41.5 -13.5t22.5 -34.5l222 -631q13 -41 23 -81t17 -82q16 41 35 81.5t40 82.5l335 630 q11 17 30 32.5t45 15.5h174z"/>
<glyph glyph-name="afii10038" horiz-adv-x="1468" unicode="Ф" d="M920 1332q114 -4 206.5 -46.5t157 -112.5t99.5 -162.5t35 -195.5q0 -87 -22 -167.5t-63 -151t-98.5 -129t-128.5 -101t-154 -67t-174 -26.5l-21 -173h-195l21 173q-114 3 -206.5 45.5t-157.5 113t-100 163t-35 196.5q0 130 49.5 245t135.5 202t203.5 138.5t252.5 55.5 l21 168h195zM706 1171q-90 -2 -166 -40t-131.5 -102t-87 -149t-31.5 -180q0 -74 21.5 -140t61.5 -115.5t98 -79.5t132 -31zM798 334q89 2 165 40t131.5 102.5t87 149.5t31.5 181q0 73 -21.5 138.5t-62 115t-98 79t-130.5 31.5z"/>
<glyph glyph-name="afii10039" horiz-adv-x="1228" unicode="Х" d="M778 776l374 -776h-184q-22 0 -33.5 12t-18.5 26l-281 615q-9 -17 -19 -32l-417 -583q-14 -20 -30.5 -29t-36.5 -9h-204l566 767l-333 669h185q22 0 31.5 -6.5t17.5 -22.5l247 -530q5 10 10.5 19.5t12.5 20.5l349 489q21 30 50 30h213z"/>
<glyph glyph-name="afii10040" horiz-adv-x="1452" unicode="Ц" d="M1348 161l-55 -448q-3 -27 -23.5 -44t-49.5 -17h-122l42 348h-1048l176 1436h206l-156 -1275h627l156 1275h207l-157 -1275h197z"/>
<glyph glyph-name="afii10041" horiz-adv-x="1239" unicode="Ч" d="M1173 1436l-176 -1436h-206l76 613q-109 -30 -211 -47q-91 -15 -170 -15h-18q-86 2 -155.5 25t-114.5 72q-45 50 -64 128q-11 45 -11 101q0 41 6 89l57 470h207l-58 -471q-4 -31 -4 -58q-1 -57 17 -98q26 -61 92 -85q47 -17 117 -17q28 0 60 3q110 10 268 52l83 674h205z "/>
<glyph glyph-name="afii10042" horiz-adv-x="1999" unicode="Ш" d="M1934 1436l-176 -1436h-1666l176 1436h206l-156 -1275h522l156 1275h207l-157 -1275h526l156 1275h206z"/>
<glyph glyph-name="afii10043" horiz-adv-x="2079" unicode="Щ" d="M1974 161l-54 -448q-4 -27 -24 -44t-49 -17h-123l43 348h-1675l176 1436h206l-156 -1275h522l156 1275h207l-157 -1275h526l156 1275h206l-156 -1275h196z"/>
<glyph glyph-name="afii10044" horiz-adv-x="1377" unicode="Ъ" d="M878 822q112 0 193 -25.5t133.5 -70.5t77 -107t24.5 -134q0 -110 -36.5 -199t-105 -153t-166.5 -98.5t-222 -34.5h-445l156 1269h-384l21 167h588l-75 -614h241zM796 163q78 0 135 20.5t94.5 58.5t56 92.5t18.5 123.5q0 47 -13.5 84.5t-43 63.5t-75.5 39.5t-110 13.5 h-241l-61 -496h240z"/>
<glyph glyph-name="afii10045" horiz-adv-x="1650" unicode="Ы" d="M639 822q112 0 193 -25.5t133.5 -70.5t77 -107t24.5 -134q0 -110 -36.5 -199t-105 -153t-166.5 -98.5t-222 -34.5h-445l176 1436h205l-75 -614h241zM557 163q78 0 135 20.5t94.5 58.5t56 92.5t18.5 123.5q0 47 -13.5 84.5t-43 63.5t-75.5 39.5t-110 13.5h-241l-61 -496 h240zM1408 0h-206l175 1436h207z"/>
<glyph glyph-name="afii10046" horiz-adv-x="1140" unicode="Ь" d="M639 822q112 0 193 -25.5t133.5 -70.5t77 -107t24.5 -134q0 -110 -36.5 -199t-105 -153t-166.5 -98.5t-222 -34.5h-445l176 1436h205l-75 -614h241zM557 163q78 0 135 20.5t94.5 58.5t56 92.5t18.5 123.5q0 47 -13.5 84.5t-43 63.5t-75.5 39.5t-110 13.5h-241l-61 -496 h240z"/>
<glyph glyph-name="afii10047" horiz-adv-x="1253" unicode="Э" d="M152 1272q95 84 210.5 132t259.5 48q130 0 234.5 -47t177 -130.5t111.5 -199.5t39 -254q0 -183 -53 -336.5t-149 -264.5t-229 -173.5t-293 -62.5q-82 0 -150 15t-124.5 43t-102 68t-82.5 90l92 89q14 13 31 13q19 0 33 -16q30 -33 61 -57t67.5 -39t80 -22.5t97.5 -7.5 q88 0 169.5 33t148 96t113.5 155t67 209h-651l19 156h645v4q0 106 -26 191.5t-75 146t-118 93t-155 32.5q-82 0 -140.5 -19t-100 -41.5t-68.5 -41.5t-45 -19q-17 0 -25.5 7t-14.5 17z"/>
<glyph glyph-name="afii10048" horiz-adv-x="1983" unicode="Ю" d="M690 798q25 145 86.5 265.5t151.5 206.5t206 134t250 48q124 0 222.5 -46.5t167 -130t104.5 -197.5t36 -249q0 -184 -53 -338.5t-147.5 -266.5t-224.5 -175t-285 -63q-125 0 -223.5 46.5t-166.5 129t-104 196.5t-36 249v30h-297l-78 -637h-206l175 1436h207l-78 -638h293 zM1225 158q107 0 195.5 47t151.5 134t97.5 210.5t34.5 275.5q0 103 -23 187t-66.5 143t-107 91.5t-144.5 32.5q-107 0 -195.5 -47.5t-151.5 -135.5t-98 -211.5t-35 -274.5q0 -104 23 -187.5t67 -142t107.5 -90.5t144.5 -32z"/>
<glyph glyph-name="afii10049" horiz-adv-x="1245" unicode="Я" d="M1003 0h-205l75 614h-162q-24 0 -45.5 -4.5t-43 -16t-43 -32t-44.5 -52.5l-321 -436q-23 -33 -57.5 -53t-79.5 -20h-155l391 521q68 91 153 128q-68 16 -117.5 46.5t-82.5 72.5t-49 94t-16 112q0 103 36 188t104.5 146t166 94.5t220.5 33.5h451zM893 777l61 495h-246 q-155 0 -229.5 -76.5t-74.5 -213.5q0 -48 13.5 -86t43 -64.5t75 -40.5t110.5 -14h247z"/>
<glyph glyph-name="afii10065" horiz-adv-x="1027" unicode="а" d="M677 254q-35 -61 -75.5 -110.5t-86 -84.5t-96 -54t-104.5 -19q-60 0 -109.5 23.5t-85 69t-55 112.5t-19.5 154q0 90 22.5 176.5t64.5 162.5t100.5 140t130.5 110t155.5 71.5t174.5 25.5q66 0 129.5 -10.5t125.5 -36.5l-122 -984h-102q-38 0 -51 19.5t-13 47.5zM745 883 q-39 6 -77 6q-89 0 -167 -41.5t-135.5 -111.5t-91 -162.5t-33.5 -193.5q0 -117 38 -174.5t110 -57.5q47 0 92.5 30.5t86 84t75 126.5t60.5 159z"/>
<glyph glyph-name="afii10066" horiz-adv-x="1081" unicode="б" d="M1068 1507v-99q0 -32 -15.5 -55t-47.5 -31l-278 -44q-85 -14 -150.5 -43.5t-114.5 -71t-83 -92.5t-57 -107.5t-36 -117t-20 -120.5q33 60 78.5 110t102 85t121.5 54.5t137 19.5q64 0 118.5 -21.5t94.5 -65.5t62.5 -111.5t22.5 -160.5q0 -80 -17.5 -159.5t-50 -152 t-79 -134.5t-105.5 -107t-129.5 -71t-149.5 -26q-78 0 -146 27.5t-118.5 87.5t-79 155t-28.5 230q0 80 8 175t30 193t62 192.5t105 173.5t157.5 136t220.5 80zM638 854q-76 0 -139.5 -39.5t-110 -103.5t-72.5 -145t-26 -163q0 -134 51 -202.5t142 -68.5q73 0 133 42.5 t103 111.5t66.5 156.5t23.5 178.5q0 115 -44 174t-127 59z"/>
<glyph glyph-name="afii10067" horiz-adv-x="955" unicode="в" d="M612 560q53 -2 97 -16.5t75.5 -41t49 -65t17.5 -89.5q0 -69 -31 -134t-87 -116t-134.5 -82t-174.5 -31q-91 0 -160.5 29t-116.5 81.5t-71 126t-24 162.5q0 84 18.5 164.5t52.5 152t82.5 132t109 104.5t131.5 68.5t150 24.5q67 0 116.5 -17t82 -45.5t48.5 -66t16 -77.5 q0 -39 -14.5 -77t-44.5 -72.5t-76.5 -63.5t-111.5 -51zM431 595q84 16 135 38t78.5 47.5t37 53t9.5 54.5q0 21 -6 40.5t-20 34.5t-36.5 24t-56.5 9q-56 0 -105 -25.5t-89.5 -71t-70.5 -107.5t-46 -135zM245 437q0 -7 -0.5 -13.5t-0.5 -13.5v-18q0 -53 11 -100.5t36 -84.5 t61.5 -55.5t82.5 -18.5h10q48 1 89 18.5t71 47t47.5 67.5t17.5 80q0 35 -12 64.5t-39 48.5t-56 23t-46 4q-34 0 -76 -8z"/>
<glyph glyph-name="afii10068" horiz-adv-x="812" unicode="г" d="M451 1030q58 0 111 -14t93 -42.5t64 -70.5t24 -99q0 -53 -23 -97.5t-60.5 -83t-85 -71.5t-97.5 -64t-97.5 -60t-85 -59t-60.5 -61.5t-23 -67.5q0 -42 40.5 -71.5t112.5 -29.5q48 0 88.5 13.5t73 29t56.5 29t39 13.5t24.5 -5t17.5 -18l45 -69q-78 -72 -177 -109t-199 -37 q-73 0 -131.5 18.5t-99 50.5t-62 75.5t-21.5 94.5q0 54 23 100t61 86t86 75t98.5 66.5t98.5 61t86 58.5t61 58t23 61q0 35 -32.5 60.5t-95.5 25.5q-42 0 -78 -11.5t-66 -25t-52.5 -25t-37.5 -11.5q-8 0 -17.5 4.5t-17.5 20.5l-42 80q33 28 73 50t83 38t88.5 24.5t90.5 8.5z "/>
<glyph glyph-name="afii10069" horiz-adv-x="1056" unicode="д" d="M256 1442q68 7 131 7q89 0 194 -20t198 -97t143 -210.5t50 -332.5q0 -192 -43.5 -341.5t-118.5 -252t-174.5 -156t-211.5 -53.5q-80 0 -147.5 27.5t-116.5 81.5t-76 134t-27 185q0 115 35 223.5t99 193.5t154 136.5t201 51.5q78 0 138 -27t108 -78q-12 114 -49.5 190.5 t-100.5 123t-145.5 63t-178.5 16.5h-33q-26 0 -34 11t-5 34zM781 792q-32 38 -81.5 61.5t-111.5 23.5q-77 0 -139.5 -38t-106 -101.5t-67 -147.5t-23.5 -177q0 -71 14 -122.5t40 -85t61.5 -49.5t79.5 -16q67 0 127.5 38t106 117.5t72.5 203t27 293.5h1z"/>
<glyph glyph-name="afii10070" horiz-adv-x="967" unicode="е" d="M864 188q-52 -53 -101 -91t-100.5 -63t-107.5 -36.5t-122 -11.5q-87 0 -157.5 29.5t-119.5 83.5t-75.5 130.5t-26.5 171.5q0 79 16.5 156.5t48.5 147t78 129.5t105 103.5t130 68t153 24.5q78 0 135 -22t94.5 -56.5t55.5 -76.5t18 -82q0 -66 -27 -121.5t-98.5 -100 t-196.5 -77.5t-321 -53q-1 -9 -1 -18v-18q0 -131 56.5 -198t170.5 -67q47 0 84 9.5t65.5 23.5t50.5 30.5t40.5 30.5t34.5 23.5t33 9.5q11 0 19.5 -5.5t16.5 -13.5zM574 891q-60 0 -110 -24.5t-90 -68t-68 -102t-44 -127.5q147 19 235.5 42t136.5 50.5t63.5 58.5t15.5 66 q0 17 -7.5 35.5t-24 34t-43 25.5t-64.5 10z"/>
<glyph glyph-name="afii10072" horiz-adv-x="1745" unicode="ж" d="M934 422q45 85 97 163.5t108 146t113.5 122.5t111.5 94t103.5 60.5t90.5 21.5q46 0 89.5 -15.5t86.5 -52.5l-47 -81q-10 -18 -21 -24.5t-22 -6.5q-9 0 -18.5 3t-20.5 7.5t-25 8t-31 3.5q-44 0 -87.5 -36.5t-77.5 -102.5t-55 -158t-21 -204q0 -65 7 -109t21 -71t35 -39 t49 -12q23 0 42 7.5t34.5 16.5t27.5 16.5t21 7.5q11 1 21 -2.5t17 -15.5l43 -84q-29 -28 -61.5 -47t-65 -31t-64 -17t-58.5 -5q-54 0 -97 19t-74 57.5t-47.5 97t-16.5 136.5q0 96 17 183t49 165q-45 -54 -90.5 -119.5t-87 -140t-76 -155t-57.5 -163.5l-7 -67h-164l61 597 q-67 -128 -150.5 -239.5t-168.5 -194t-165 -129.5t-141 -47q-47 0 -90 15.5t-86 52.5l47 82q10 18 21 24t22 7q9 0 18.5 -3t20.5 -7.5t25 -8t31 -3.5q44 0 87.5 36.5t77.5 102.5t55 158t21 204q0 64 -7 108t-21.5 71.5t-35.5 39.5t-49 12q-23 0 -42 -7.5t-34 -16.5 t-27 -16.5t-21 -8.5q-11 0 -21 3.5t-17 14.5l-43 84q29 28 61.5 47t65 31t64 17t58.5 5q54 0 97 -19t74 -57.5t47.5 -97t16.5 -136.5q0 -95 -17 -182t-49 -164q45 54 91 121t87.5 142t76 157t57.5 166l6 57h165z"/>
<glyph glyph-name="afii10073" horiz-adv-x="870" unicode="з" d="M109 889q29 30 69 56.5t88.5 45.5t103.5 30t113 11q80 0 138.5 -20t96 -52.5t55.5 -74.5t18 -86q0 -36 -12 -73t-38 -70.5t-68.5 -60.5t-103.5 -43q92 -18 140 -75t48 -142q0 -63 -27.5 -125.5t-82.5 -112t-137 -80.5t-191 -31q-100 0 -184.5 31.5t-153.5 95.5l49 80 q6 10 16.5 18t23.5 8q19 0 39 -13.5t48.5 -30t69 -30t101.5 -13.5q60 0 106.5 16t79 44t49 66t16.5 82q0 74 -49 107t-138 33q-30 0 -69 -5t-74 -10q0 38 3 73t17 72q27 -4 53.5 -6.5t54.5 -2.5h8q56 0 98 13q45 14 74.5 36.5t44 52t14.5 60.5q0 25 -9 47.5t-29.5 39t-53 26 t-78.5 9.5q-61 0 -103.5 -13t-71.5 -29t-48 -29.5t-33 -14.5q-13 -2 -21.5 2t-19.5 21z"/>
<glyph glyph-name="afii10074" horiz-adv-x="1065" unicode="и" d="M986 1016l-123 -1016h-97q-71 0 -71 70l12 166q-79 -124 -177.5 -187t-202.5 -63q-64 0 -113.5 25.5t-80.5 74.5q-31 48 -43 120q-6 37 -5 79q0 40 5 85l77 646h194l-76 -646q-5 -39 -5 -71q0 -62 18 -97q27 -54 102 -54q45 0 92 24.5t91 69.5t81.5 109t64.5 142l62 523 h195z"/>
<glyph glyph-name="afii10075" horiz-adv-x="1065" unicode="й" d="M986 1016l-123 -1016h-97q-71 0 -71 70l12 166q-79 -124 -177.5 -187t-202.5 -63q-64 0 -113.5 25.5t-80.5 74.5q-31 48 -43 120q-6 37 -5 79q0 40 5 85l77 646h194l-76 -646q-5 -39 -5 -71q0 -62 18 -97q27 -54 102 -54q45 0 92 24.5t91 69.5t81.5 109t64.5 142l62 523 h195zM619 1266q37 0 63.5 9t44 29t28 52.5t16.5 79.5h105q19 0 27 -18q6 -14 5 -31v-9q-6 -50 -29.5 -90t-62.5 -68.5t-92 -44t-117 -15.5t-113.5 15.5t-81.5 44.5q-33 28 -47 68q-11 30 -10 65q0 12 1 25q3 22 15 40t30 18h106q-3 -29 -3 -53q0 -15 1 -27q3 -32 16 -52 t37 -29t61 -9z"/>
<glyph glyph-name="afii10076" horiz-adv-x="975" unicode="к" d="M638 842q33 47 58 80.5t50.5 54.5t57 31t76.5 10h83l-20 -102q-5 -23 -17.5 -30t-30 -11.5t-38 -14.5t-40.5 -38l-140 -185q-30 -42 -58.5 -64.5t-73.5 -33.5q59 -11 95.5 -42.5t60.5 -90.5l180 -406h-112q-50 0 -75 17t-41 49l-139 309q-15 39 -46 64t-71 25l-102 -19 l-54 -445h-187l123 1016h188l-54 -443l79 17q19 4 34 8.5t27 12t22.5 18t22.5 25.5z"/>
<glyph glyph-name="afii10077" horiz-adv-x="1088" unicode="л" d="M261 545q32 126 75 215.5t107 146.5t153.5 83t213.5 26h200l-124 -1016h-188l106 868h-33q-69 0 -120 -16.5t-89 -55t-65.5 -102.5t-50.5 -159q-36 -156 -76 -261.5t-87.5 -169t-103.5 -91t-125 -27.5q-48 0 -66 8.5t-16 28.5l14 112h32q46 0 79 21t60 69.5t51 127 t53 192.5z"/>
<glyph glyph-name="afii10078" horiz-adv-x="1401" unicode="м" d="M1323 1019l-125 -1019h-176l85 680q3 21 8 46.5t11 51.5l-422 -716q-11 -16 -25.5 -25.5t-33.5 -9.5h-27q-17 0 -30 9.5t-19 25.5l-214 711q-4 -28 -9 -59t-10 -54q-15 -76 -28.5 -148.5t-30 -145.5t-37 -148.5t-47.5 -156.5q-9 -29 -29 -45t-50 -16h-116 q75 238 140.5 491t112.5 528h154q20 0 39.5 -8.5t27.5 -34.5l193 -588q8 -26 14 -50t11 -45q6 17 14 34t18 35l359 614q17 26 37 34.5t40 8.5h165z"/>
<glyph glyph-name="afii10079" horiz-adv-x="1062" unicode="н" d="M983 1016l-122 -1016h-195l55 460h-417l-55 -460h-195l122 1016h195l-49 -412h417l49 412h195z"/>
<glyph glyph-name="afii10080" horiz-adv-x="1040" unicode="о" d="M437 -14q-83 0 -153 28.5t-120.5 82.5t-79 132.5t-28.5 179.5q0 129 40.5 242.5t111 198t166 133t205.5 48.5q83 0 153 -28.5t120.5 -82.5t79 -132.5t28.5 -178.5q0 -128 -40.5 -241.5t-111 -198.5t-166 -134t-205.5 -49zM455 138q70 0 127.5 38.5t98 103.5t62.5 150 t22 178q0 137 -52 204t-152 67q-71 0 -128 -38.5t-97.5 -103t-62.5 -149.5t-22 -178q0 -135 52 -203.5t152 -68.5z"/>
<glyph glyph-name="afii10081" horiz-adv-x="1065" unicode="п" d="M327 773q81 128 181 193t206 65q64 0 113.5 -25.5t80.5 -74.5q30 -49 42 -121q6 -35 6 -74q0 -42 -6 -89l-76 -647h-195l77 647q5 39 5 71q-1 62 -19 98q-28 54 -101 53q-46 0 -94 -25.5t-92.5 -72t-83 -112.5t-64.5 -147l-57 -512h-195l121 1018h98q32 0 49 -16t17 -50z "/>
<glyph glyph-name="afii10082" horiz-adv-x="1062" unicode="р" d="M327 756q38 63 82 113.5t92.5 86.5t101.5 55.5t108 19.5q128 0 201.5 -94t73.5 -278q0 -83 -17.5 -165.5t-49 -157.5t-76.5 -139t-100 -111t-118.5 -73.5t-133.5 -26.5q-73 0 -133 28.5t-103 79.5l-53 -435h-190l165 1359h98q32 0 49 -16t17 -50zM272 227 q37 -49 88 -69.5t102 -20.5q50 0 94.5 21t81 57.5t65.5 85.5t49 104.5t30.5 115.5t10.5 119q0 116 -41 175.5t-116 59.5q-46 0 -93.5 -29.5t-91 -81t-81.5 -122.5t-66 -155z"/>
<glyph glyph-name="afii10083" horiz-adv-x="908" unicode="с" d="M821 182q-51 -57 -98 -95t-94.5 -60.5t-98 -31.5t-110.5 -9q-88 0 -156.5 30t-115 85t-70.5 132t-24 171q0 82 17.5 160.5t50.5 148t80 128t105 101t126.5 66t145.5 23.5q101 0 169.5 -36t120.5 -105l-61 -74q-8 -8 -17.5 -14t-20.5 -6q-14 0 -28 12t-35 26.5t-52.5 26.5 t-80.5 12q-66 0 -125 -35.5t-103 -98.5t-70 -149t-26 -187q0 -60 14 -109t40.5 -83t66 -52.5t90.5 -18.5q43 0 76.5 9t59 22t45.5 29t36 29t30 22t28 9q20 0 36 -18z"/>
<glyph glyph-name="afii10084" horiz-adv-x="1577" unicode="т" d="M54 0l123 1018h98q32 0 49 -16t17 -50l-12 -163q73 120 160 181t184 61q100 0 150.5 -68t52.5 -197q75 136 167.5 200.5t197.5 64.5q131 0 187 -99q40 -70 40 -184q0 -47 -7 -101l-76 -647h-192l76 647q6 46 6 82q0 54 -13 86q-21 54 -91 54q-42 0 -83 -21t-79 -62.5 t-71 -101.5t-58 -138l-65 -546h-192l76 647q7 53 7 93v6q0 42 -11 69t-32.5 40.5t-56.5 13.5q-46 0 -88.5 -23.5t-80 -67.5t-70 -106.5t-58.5 -141.5l-64 -530h-191z"/>
<glyph glyph-name="afii10085" horiz-adv-x="965" unicode="у" d="M1002 1016l-682 -1313q-23 -44 -67 -44h-144l222 406l-262 951h162q23 0 34 -11t16 -28l154 -610q5 -22 8.5 -43.5t5.5 -44.5q9 23 18.5 45t20.5 44l303 610q8 17 23.5 27.5t31.5 10.5h156z"/>
<glyph glyph-name="afii10086" horiz-adv-x="1465" unicode="ф" d="M868 940q46 45 104 68t130 23q64 0 116.5 -21.5t89.5 -67t57.5 -117t20.5 -170.5q0 -85 -15.5 -168t-44 -157.5t-69 -137.5t-91.5 -108.5t-111.5 -71.5t-127.5 -26q-53 0 -95 19.5t-71 48.5l-37 -312q-5 -38 -33.5 -64t-73.5 -26h-95l51 426q-47 -45 -105 -68.5 t-130 -23.5q-64 0 -116.5 21.5t-89.5 67t-57.5 117t-20.5 170.5q0 85 15.5 168t44 157.5t69 137.5t91.5 108.5t111.5 71.5t128.5 26q53 0 94.5 -19.5t70.5 -48.5l51 423q5 38 33.5 64t73.5 26h95zM665 847q-26 18 -55 26t-61 8q-48 0 -89 -20t-74.5 -55.5t-59 -84t-43 -104 t-26.5 -116.5t-9 -122q0 -65 11 -110t31.5 -73t50 -41t67.5 -13q52 0 102 23.5t82 66.5zM775 170q26 -18 55.5 -26t61.5 -8q72 0 128 44t94 115.5t58 161t20 181.5q0 64 -11 109.5t-31.5 73.5t-50 41t-67.5 13q-52 0 -101.5 -23.5t-81.5 -66.5z"/>
<glyph glyph-name="afii10087" horiz-adv-x="940" unicode="х" d="M587 547l268 -547h-175q-21 0 -33 10.5t-19 27.5l-182 395q-5 -12 -10.5 -22.5t-11.5 -19.5l-264 -354q-11 -14 -24 -25.5t-33 -11.5h-170l409 548l-242 468h175q21 0 30.5 -6t16.5 -20l162 -338q5 11 11.5 22.5t14.5 22.5l217 289q17 30 45 30h177z"/>
<glyph glyph-name="afii10088" horiz-adv-x="1133" unicode="ц" d="M1051 143l-105 -433q-3 -27 -20 -42.5t-41 -15.5h-117l95 348h-97q-71 0 -71 70l12 166q-79 -124 -177.5 -187t-202.5 -63q-64 0 -113.5 25.5t-80.5 74.5t-39.5 103t-8.5 96q0 40 5 85l77 646h194l-76 -646q-5 -39 -5 -71q0 -62 22.5 -106.5t97.5 -44.5q45 0 92 24.5 t91 69.5t81.5 109t64.5 142l62 523h195l-106 -873h171z"/>
<glyph glyph-name="afii10089" horiz-adv-x="966" unicode="ч" d="M887 1016l-122 -1016h-195l56 465q-63 -75 -144.5 -117.5t-178.5 -42.5q-66 0 -113.5 24.5t-75.5 68.5q-28 45 -38 107q-5 32 -5 67q0 33 4 69l46 375h195l-46 -375q-3 -21 -3 -40q0 -15 2 -29q4 -32 17.5 -55t38 -36t60.5 -13q42 0 82 14.5t74.5 41.5t62.5 66t47 87 l41 339h195z"/>
<glyph glyph-name="afii10090" horiz-adv-x="1577" unicode="ш" d="M1498 1016l-123 -1016h-98q-32 0 -49 16t-17 50l12 162q-73 -120 -160.5 -181t-183.5 -61q-101 0 -151 68.5t-52 197.5q-75 -137 -168 -201.5t-197 -64.5q-131 0 -179 85t-48 199q0 47 7 100l76 646h192l-76 -646q-6 -46 -6 -83q0 -53 16.5 -96t87.5 -43q42 0 83 21.5 t79 63t71 102.5t58 139l65 542h192l-76 -646q-7 -53 -7 -93q0 -3 0.5 -25t11 -49.5t32 -41t56.5 -13.5q46 0 88.5 23.5t80 67.5t70 107t58.5 142l64 528h191z"/>
<glyph glyph-name="afii10091" horiz-adv-x="1642" unicode="щ" d="M1557 143l-105 -433q-3 -27 -20.5 -42.5t-40.5 -15.5h-117l94 348h-91q-32 0 -49 16t-17 50l12 162q-73 -120 -160.5 -181t-183.5 -61q-101 0 -151 68.5t-52 197.5q-75 -137 -168 -201.5t-197 -64.5q-131 0 -179 85t-48 199q0 47 7 100l76 646h192l-76 -646 q-6 -46 -6 -83q0 -53 16.5 -96t87.5 -43q42 0 83 21.5t79 63t71 102.5t58 139l65 542h192l-76 -646q-7 -53 -7 -93q0 -3 0.5 -25t11 -49.5t32 -41t56.5 -13.5q46 0 88.5 23.5t80 67.5t70 107t58.5 142l64 528h191l-106 -873h165z"/>
<glyph glyph-name="afii10092" horiz-adv-x="1043" unicode="ъ" d="M581 916q-66 -97 -102 -190.5t-53 -195.5q32 40 71 71t80.5 53t84 33.5t83.5 11.5q51 0 93 -18t71.5 -50.5t46 -78.5t16.5 -103q0 -53 -14.5 -108t-42.5 -106.5t-68 -97t-91.5 -79t-113 -53t-132.5 -19.5q-68 0 -123.5 19.5t-95 61t-61 104.5t-21.5 150q0 64 9.5 130.5 t31 135t57 139.5t87.5 145h-340l9 70q4 33 26.5 54t61.5 21h446zM536 123q52 0 98.5 26t81 68t54.5 96t20 110q0 27 -5.5 52t-19 44t-36 30.5t-55.5 11.5q-48 0 -97 -24t-88.5 -64t-65 -93t-25.5 -110q0 -73 39 -110t99 -37z"/>
<glyph glyph-name="afii10093" horiz-adv-x="1306" unicode="ы" d="M301 529q31 39 68 70.5t77 53.5t80.5 34t78.5 12q54 0 97.5 -18t73.5 -50.5t46.5 -78.5t16.5 -102q0 -93 -40 -177.5t-108.5 -148t-158.5 -101t-190 -37.5q-146 0 -206 64.5t-60 156.5q0 20 2 41l92 768h191zM266 233q-1 -6 -1 -11q0 -39 32.5 -69t102.5 -30q52 0 99 27 t82 69.5t56 96t21 106.5q0 28 -6 53t-19.5 44t-36 30.5t-56.5 11.5q-45 0 -90.5 -25t-83 -65t-63.5 -90.5t-32 -101.5zM1226 1016l-122 -1016h-194l122 1016h194z"/>
<glyph glyph-name="afii10094" horiz-adv-x="910" unicode="ь" d="M301 529q31 39 68 70.5t77 53.5t80.5 34t78.5 12q54 0 97.5 -18t73.5 -50.5t46.5 -78.5t16.5 -102q0 -93 -40 -177.5t-108.5 -148t-158.5 -101t-190 -37.5q-146 0 -206 64.5t-60 156.5q0 20 2 41l92 768h191zM266 233q-1 -6 -1 -11q0 -39 32.5 -69t102.5 -30q52 0 99 27 t82 69.5t56 96t21 106.5q0 28 -6 53t-19.5 44t-36 30.5t-56.5 11.5q-45 0 -90.5 -25t-83 -65t-63.5 -90.5t-32 -101.5z"/>
<glyph glyph-name="afii10095" horiz-adv-x="915" unicode="э" d="M84 908q79 59 161.5 91t187.5 32q97 0 172 -32.5t125 -91.5t76 -142.5t26 -185.5q0 -125 -39 -233t-108.5 -188t-166.5 -126t-212 -46q-100 0 -174.5 35.5t-126.5 104.5l56 68q7 8 16.5 14t20.5 6q13 0 29 -12t39.5 -26.5t57 -26.5t82.5 -12q65 0 119 23t95.5 65t70 100 t41.5 128h-436l16 132h430q-3 142 -64.5 220t-179.5 78q-48 0 -84.5 -12t-64.5 -26.5t-48.5 -26.5t-37.5 -12q-22 1 -31.5 9t-14.5 18z"/>
<glyph glyph-name="afii10096" horiz-adv-x="1410" unicode="ю" d="M518 582q21 97 64.5 179.5t103.5 142.5t135 93.5t159 33.5q76 0 140 -28t110.5 -81.5t73 -130.5t26.5 -176q0 -86 -17 -166.5t-49 -150t-77 -127t-100 -99t-118.5 -64t-131.5 -22.5q-76 0 -138 28t-106.5 81.5t-69 131t-24.5 176.5v20.5t1 20.5h-204l-55 -444h-188 l124 1016h189l-53 -434h205zM858 138q63 0 114 39.5t87.5 105.5t56 152t19.5 180q-2 264 -176 264q-63 0 -114 -39t-87 -104.5t-55.5 -152t-19.5 -181.5q1 -131 44.5 -197.5t130.5 -66.5z"/>
<glyph glyph-name="afii10097" horiz-adv-x="1005" unicode="я" d="M928 1016l-125 -1016h-179l52 425h-120q-30 0 -52 -6t-38 -17t-28 -26.5t-24 -34.5l-136 -224q-23 -40 -48.5 -64.5t-54.5 -38.5t-60 -19t-64 -5q-49 0 -68 8t-17 29l14 110h33q39 0 69.5 16.5t54.5 54.5l104 155q24 37 54 61t72 38q-61 10 -103.5 33.5t-68.5 55t-38 70 t-12 78.5q0 55 22.5 111.5t70 102t122 74.5t178.5 29h390zM733 889h-194q-59 0 -98.5 -19t-63.5 -47.5t-34 -63t-10 -65.5q0 -71 45 -110t125 -39h188z"/>
<glyph glyph-name="uni0450" horiz-adv-x="967" unicode="ѐ" d="M864 188q-52 -53 -101 -91t-100.5 -63t-107.5 -36.5t-122 -11.5q-87 0 -157.5 29.5t-119.5 83.5t-75.5 130.5t-26.5 171.5q0 79 16.5 156.5t48.5 147t78 129.5t105 103.5t130 68t153 24.5q78 0 135 -22t94.5 -56.5t55.5 -76.5t18 -82q0 -66 -27 -121.5t-98.5 -100 t-196.5 -77.5t-321 -53q-1 -9 -1 -18v-18q0 -131 56.5 -198t170.5 -67q47 0 84 9.5t65.5 23.5t50.5 30.5t40.5 30.5t34.5 23.5t33 9.5q11 0 19.5 -5.5t16.5 -13.5zM574 891q-60 0 -110 -24.5t-90 -68t-68 -102t-44 -127.5q147 19 235.5 42t136.5 50.5t63.5 58.5t15.5 66 q0 17 -7.5 35.5t-24 34t-43 25.5t-64.5 10zM521 1452q32 0 46.5 -11.5t24.5 -34.5l108 -242h-102q-20 0 -33 6.5t-25 23.5l-189 258h170z"/>
<glyph glyph-name="afii10071" horiz-adv-x="968" unicode="ё" d="M864 188q-52 -53 -101 -91t-100.5 -63t-107.5 -36.5t-122 -11.5q-87 0 -157.5 29.5t-119.5 83.5t-75.5 130.5t-26.5 171.5q0 79 16.5 156.5t48.5 147t78 129.5t105 103.5t130 68t153 24.5q78 0 135 -22t94.5 -56.5t55.5 -76.5t18 -82q0 -66 -27 -121.5t-98.5 -100 t-196.5 -77.5t-321 -53q-1 -9 -1 -18v-18q0 -131 56.5 -198t170.5 -67q47 0 84 9.5t65.5 23.5t50.5 30.5t40.5 30.5t34.5 23.5t33 9.5q11 0 19.5 -5.5t16.5 -13.5zM574 891q-60 0 -110 -24.5t-90 -68t-68 -102t-44 -127.5q147 19 235.5 42t136.5 50.5t63.5 58.5t15.5 66 q0 17 -7.5 35.5t-24 34t-43 25.5t-64.5 10zM907 1290q0 -24 -9.5 -45.5t-25.5 -37.5t-38 -25t-46 -9t-46 9t-38 25t-25.5 37.5t-9.5 45.5q0 25 9.5 47t25.5 38.5t38 26t46 9.5t46 -9.5t38 -26t25.5 -38.5t9.5 -47zM541 1290q0 -24 -10 -45.5t-26.5 -37.5t-38.5 -25t-46 -9 t-45 9t-37 25t-25.5 37.5t-9.5 45.5q0 25 9.5 47t25.5 38.5t37 26t45 9.5t46 -9.5t38.5 -26t26.5 -38.5t10 -47z"/>
<glyph glyph-name="afii10099" horiz-adv-x="1036" unicode="ђ" d="M332 744q75 94 161 147.5t184 53.5q65 0 113 -24.5t80 -70.5t47.5 -111t15.5 -147q0 -117 -23.5 -233t-67.5 -231.5t-107 -230t-142 -228.5l-145 60q78 124 133.5 235t91 213.5t52.5 197.5t17 187q0 115 -35.5 174t-108.5 59q-36 0 -74 -18t-75.5 -50.5t-73 -78.5 t-67.5 -103l-67 -545h-188l134 1096h-160l18 146h160l29 234h188l-29 -234h312l-17 -146h-313z"/>
<glyph glyph-name="afii10100" horiz-adv-x="812" unicode="ѓ" d="M451 1030q58 0 111 -14t93 -42.5t64 -70.5t24 -99q0 -53 -23 -97.5t-60.5 -83t-85 -71.5t-97.5 -64t-97.5 -60t-85 -59t-60.5 -61.5t-23 -67.5q0 -42 40.5 -71.5t112.5 -29.5q48 0 88.5 13.5t73 29t56.5 29t39 13.5t24.5 -5t17.5 -18l45 -69q-78 -72 -177 -109t-199 -37 q-73 0 -131.5 18.5t-99 50.5t-62 75.5t-21.5 94.5q0 54 23 100t61 86t86 75t98.5 66.5t98.5 61t86 58.5t61 58t23 61q0 35 -32.5 60.5t-95.5 25.5q-42 0 -78 -11.5t-66 -25t-52.5 -25t-37.5 -11.5q-8 0 -17.5 4.5t-17.5 20.5l-42 80q33 28 73 50t83 38t88.5 24.5t90.5 8.5z M810 1452l-247 -258q-16 -17 -30 -23.5t-34 -6.5h-108l162 242q15 23 32.5 34.5t49.5 11.5h175z"/>
<glyph glyph-name="afii10101" horiz-adv-x="914" unicode="є" d="M821 182q-51 -57 -98 -95t-94.5 -60.5t-98 -31.5t-110.5 -9q-88 0 -156.5 30t-115 85t-70.5 132t-24 171q0 82 17.5 160.5t50.5 148t80 128t105 101t126.5 66t145.5 23.5q101 0 169.5 -36t120.5 -105l-55 -68q-8 -8 -17.5 -14t-20.5 -6q-14 0 -28 12t-35 26.5t-52.5 26.5 t-80.5 12q-54 0 -103 -21.5t-89.5 -60t-71.5 -92.5t-49 -120h420l-16 -132h-426q-1 -11 -1 -22v-22q0 -60 14 -110.5t42 -87t69.5 -57t97.5 -20.5q43 0 76.5 9t59 22t45.5 29t36 29t30 22t28 9q20 0 36 -18z"/>
<glyph glyph-name="afii10102" horiz-adv-x="803" unicode="ѕ" d="M715 846q-9 -13 -17.5 -18.5t-21.5 -5.5q-15 0 -31.5 11t-40 24t-56.5 24t-80 11q-44 0 -79 -12t-60.5 -32.5t-39 -48.5t-13.5 -59q0 -34 18 -57t47 -40.5t66.5 -31.5t76.5 -29.5t76.5 -34.5t66.5 -46.5t47 -66.5t18 -93q0 -71 -28 -135.5t-80.5 -114t-126.5 -78.5 t-166 -29q-97 0 -173 35t-123 89l48 75q19 29 51 29q17 0 33.5 -14t40.5 -30.5t59 -30.5t90 -14q47 0 84.5 14t63.5 37.5t39.5 54.5t13.5 66q0 37 -18 62.5t-47 43t-66.5 31t-76 28t-76 32t-66.5 44.5t-47 65.5t-18 93.5q0 65 26 125.5t74.5 107.5t118 75t157.5 28 q94 0 164.5 -30.5t121.5 -83.5z"/>
<glyph glyph-name="afii10103" horiz-adv-x="468" unicode="і" d="M445 1330q0 -27 -11.5 -51.5t-30 -43t-42.5 -29t-49 -10.5t-48 10.5t-40.5 29t-28 43t-10.5 51.5t10.5 51.5t28.5 43t41.5 29.5t48.5 11t49 -10.5t42 -29t29 -43t11 -52.5zM379 1016l-123 -1016h-192l122 1016h193z"/>
<glyph glyph-name="afii10104" horiz-adv-x="467" unicode="ї" d="M379 1016l-123 -1016h-192l122 1016h193zM587 1290q0 -24 -9.5 -45.5t-25.5 -37.5t-38 -25t-46 -9t-46 9t-38 25t-25.5 37.5t-9.5 45.5q0 25 9.5 47t25.5 38.5t38 26t46 9.5t46 -9.5t38 -26t25.5 -38.5t9.5 -47zM289 1290q0 -24 -10 -45.5t-26.5 -37.5t-38.5 -25t-46 -9 t-45 9t-37 25t-25.5 37.5t-9.5 45.5q0 25 9.5 47t25.5 38.5t37 26t45 9.5t46 -9.5t38.5 -26t26.5 -38.5t10 -47z"/>
<glyph glyph-name="afii10105" horiz-adv-x="466" unicode="ј" d="M439 1330q0 -27 -11 -51.5t-29.5 -43t-42.5 -29t-49 -10.5t-48 10.5t-41 29t-28.5 43t-10.5 51.5t11 51.5t29 43t41 29.5t48 11t49 -10.5t42 -29t29 -43t11 -52.5zM378 1016l-132 -1080q-8 -63 -31 -117.5t-62 -95t-94 -63.5t-125 -23q-36 0 -61.5 5t-51.5 14l20 106 q3 10 7.5 14.5t12 6.5t19 2h28.5q70 0 103 35.5t44 115.5l132 1080h191z"/>
<glyph glyph-name="afii10106" horiz-adv-x="1571" unicode="љ" d="M962 529q31 39 68 70.5t77 53.5t80.5 34t78.5 12q54 0 97.5 -18t73.5 -50.5t46.5 -78.5t16.5 -102q0 -93 -40 -177.5t-108.5 -148t-158.5 -101t-190 -37.5q-146 0 -206 64.5t-60 156.5q0 20 2 41l74 620h-22q-69 0 -123 -16.5t-96 -55t-72.5 -102.5t-53.5 -159 q-36 -156 -76 -261.5t-87.5 -169t-103.5 -91t-125 -27.5q-48 0 -66 8.5t-16 28.5l14 112h32q46 0 79 21t60 69.5t51 127t53 192.5q32 126 78.5 215.5t114 146.5t160 83t216.5 26h192zM927 233q-1 -6 -1 -11q0 -39 32.5 -69t102.5 -30q52 0 99 27t82 69.5t56 96t21 106.5 q0 28 -6 53t-19.5 44t-36 30.5t-56.5 11.5q-45 0 -90.5 -25t-83 -65t-63.5 -90.5t-32 -101.5z"/>
<glyph glyph-name="afii10107" horiz-adv-x="1526" unicode="њ" d="M918 529q31 39 68 70.5t77 53.5t80.5 34t78.5 12q54 0 97.5 -18t73.5 -50.5t46.5 -78.5t16.5 -102q0 -93 -40 -177.5t-108.5 -148t-158.5 -101t-190 -37.5q-146 0 -206 64.5t-60 156.5q0 20 2 41l26 216h-416l-56 -464h-195l122 1016h195l-49 -408h416l49 408h191z M883 233q-1 -6 -1 -11q0 -39 32.5 -69t102.5 -30q52 0 99 27t82 69.5t56 96t21 106.5q0 28 -6 53t-19.5 44t-36 30.5t-56.5 11.5q-45 0 -90.5 -25t-83 -65t-63.5 -90.5t-32 -101.5z"/>
<glyph glyph-name="afii10108" horiz-adv-x="1064" unicode="ћ" d="M343 780q78 113 172.5 170t192.5 57q65 0 114.5 -25.5t81 -74.5t40 -102t8.5 -93q0 -42 -6 -89l-74 -623h-195l74 623q5 39 5 71q0 63 -23 107.5t-98 44.5q-44 0 -89.5 -24t-89 -68t-81.5 -106.5t-65 -139.5l-61 -508h-195l138 1140h-151l16 124h150l26 212h194l-26 -212 h248l-10 -71q-5 -25 -21 -39t-45 -14h-187z"/>
<glyph glyph-name="afii10109" horiz-adv-x="975" unicode="ќ" d="M638 842q33 47 58 80.5t50.5 54.5t57 31t76.5 10h83l-20 -102q-5 -23 -17.5 -30t-30 -11.5t-38 -14.5t-40.5 -38l-140 -185q-30 -42 -58.5 -64.5t-73.5 -33.5q59 -11 95.5 -42.5t60.5 -90.5l180 -406h-112q-50 0 -75 17t-41 49l-139 309q-15 39 -46 64t-71 25l-102 -19 l-54 -445h-187l123 1016h188l-54 -443l79 17q19 4 34 8.5t27 12t22.5 18t22.5 25.5zM895 1452l-247 -258q-16 -17 -30 -23.5t-34 -6.5h-108l162 242q15 23 32.5 34.5t49.5 11.5h175z"/>
<glyph glyph-name="uni045D" horiz-adv-x="1065" unicode="ѝ" d="M986 1016l-123 -1016h-97q-71 0 -71 70l12 166q-79 -124 -177.5 -187t-202.5 -63q-64 0 -113.5 25.5t-80.5 74.5q-31 48 -43 120q-6 37 -5 79q0 40 5 85l77 646h194l-76 -646q-5 -39 -5 -71q0 -62 18 -97q27 -54 102 -54q45 0 92 24.5t91 69.5t81.5 109t64.5 142l62 523 h195zM530 1452q32 0 46.5 -11.5t24.5 -34.5l108 -242h-102q-20 0 -33 6.5t-25 23.5l-189 258h170z"/>
<glyph glyph-name="afii10110" horiz-adv-x="965" unicode="ў" d="M1002 1016l-682 -1313q-23 -44 -67 -44h-144l222 406l-262 951h162q23 0 34 -11t16 -28l154 -610q5 -22 8.5 -43.5t5.5 -44.5q9 23 18.5 45t20.5 44l303 610q8 17 23.5 27.5t31.5 10.5h156zM565 1266q37 0 63.5 9t44 29t28 52.5t16.5 79.5h105q19 0 27 -18q6 -14 5 -31 v-9q-6 -50 -29.5 -90t-62.5 -68.5t-92 -44t-117 -15.5t-113.5 15.5t-81.5 44.5q-33 28 -47 68q-11 30 -10 65q0 12 1 25q3 22 15 40t30 18h106q-3 -29 -3 -53q0 -15 1 -27q3 -32 16 -52t37 -29t61 -9z"/>
<glyph glyph-name="afii10193" horiz-adv-x="1065" unicode="џ" d="M986 1016l-123 -1016h-97q-71 0 -71 70l12 166q-48 -75 -102.5 -127t-114.5 -83l-39 -316q-4 -27 -21 -42.5t-41 -15.5h-117l41 334q-61 3 -107.5 30t-75.5 76t-37.5 101.5t-8.5 92.5t6 84l77 646h194l-76 -646q-5 -39 -5 -71q0 -62 22.5 -106.5t97.5 -44.5q45 0 92 24.5 t91 69.5t81.5 109t64.5 142l62 523h195z"/>
<glyph glyph-name="uni0460" horiz-adv-x="2003" unicode="Ѡ" d="M1220 1327q59 54 134.5 88.5t177.5 34.5q106 0 181.5 -44.5t123.5 -121t70 -179t22 -217.5q0 -208 -42.5 -375.5t-122 -285t-194 -180.5t-258.5 -63q-118 0 -208.5 45t-157.5 128q-88 -83 -189.5 -128t-220.5 -45q-105 0 -186 41t-135.5 117t-83 185t-28.5 246 q0 114 14.5 223.5t44 207t76 179.5t110 141.5t145.5 92.5t184 33q51 0 92.5 -9t76 -25.5t62 -39t50.5 -49.5l-55 -101q-12 -17 -22 -22.5t-23 -5.5t-26.5 11.5t-33.5 26t-49 26t-73 11.5q-87 0 -156 -49t-116.5 -140t-72.5 -221.5t-25 -292.5q0 -196 69.5 -303t201.5 -107 q81 0 151.5 35t130.5 97l61 496h206l-61 -496q45 -62 107 -97t143 -35q87 0 161.5 41.5t129.5 128.5t86.5 222t31.5 321q0 94 -15 168t-44.5 125.5t-73.5 79t-102 27.5q-44 0 -75.5 -11.5t-55 -26t-39.5 -26t-29 -11.5q-14 0 -22.5 5.5t-16.5 22.5z"/>
<glyph glyph-name="uni0461" horiz-adv-x="1446" unicode="ѡ" d="M1359 1016q2 -20 3.5 -44.5t3 -50t2 -49.5t0.5 -41q0 -141 -25.5 -259t-73 -218.5t-116 -187.5t-154.5 -166h-111q-16 0 -24.5 6t-19.5 20q-48 63 -88.5 151.5t-63.5 191.5q-47 -102 -109 -191.5t-127 -152.5q-14 -14 -22 -19.5t-23 -5.5h-115q-50 60 -90 129.5 t-66 147.5q-24 78 -34 162q-4 39 -5 79q0 46 6 93l50 405h127q29 0 39.5 -18t8.5 -39l-41 -327q-6 -50 -6 -96q0 -86 21 -160q32 -112 102 -198q40 40 77.5 92.5t68 111.5t51.5 122.5t29 127.5l47 384h127q29 0 40 -18t9 -39l-40 -320q-5 -42 -5 -84q0 -21 1 -43 q4 -64 19 -123.5t40 -113t59 -97.5q50 48 95.5 107.5t80.5 134t56 165t21 201.5q0 65 -6.5 109.5t-6.5 64.5q0 23 12.5 39.5t34.5 16.5h141z"/>
<glyph glyph-name="afii10146" horiz-adv-x="1353" unicode="Ѣ" d="M851 822q112 0 193 -25.5t133.5 -70.5t77 -107t24.5 -134q0 -110 -36.5 -199t-105 -153t-166.5 -98.5t-222 -34.5h-445l130 1063h-328l19 155h328l27 218h205l-27 -218h402l-19 -155h-402l-29 -241h241zM769 163q78 0 135 20.5t94.5 58.5t56 92.5t18.5 123.5 q0 47 -13.5 84.5t-43 63.5t-75.5 39.5t-110 13.5h-241l-61 -496h240z"/>
<glyph glyph-name="afii10194" horiz-adv-x="1063" unicode="ѣ" d="M443 529q31 39 68 70.5t77 53.5t80.5 34t78.5 12q54 0 97.5 -18t73.5 -50.5t46.5 -78.5t16.5 -102q0 -93 -40 -177.5t-108.5 -148t-158.5 -101t-190 -37.5q-146 0 -206 64.5t-60 156.5q0 20 2 41l75 623h-240l17 145h241l34 280h191l-35 -280h283l-18 -145h-283l-18 -148 zM408 233q-1 -6 -1 -11q0 -39 32.5 -69t102.5 -30q52 0 99 27t82 69.5t56 96t21 106.5q0 28 -6 53t-19.5 44t-36 30.5t-56.5 11.5q-45 0 -90.5 -25t-83 -65t-63.5 -90.5t-32 -101.5z"/>
<glyph glyph-name="uni0464" horiz-adv-x="1767" unicode="Ѥ" d="M670 809q27 145 91 263.5t156.5 203t208.5 130.5t248 46q137 0 237 -50t166 -133l-79 -95q-8 -11 -18.5 -17.5t-27.5 -6.5q-18 0 -37.5 19t-52 42.5t-83 42.5t-128.5 19q-86 0 -163 -31.5t-139 -91.5t-106 -146t-65 -195h594l-20 -156h-591v-31q0 -108 26 -193.5t73 -145 t111.5 -91.5t141.5 -32q52 0 95 7.5t80.5 23t72 39.5t69.5 57q8 7 17.5 11.5t18.5 4.5q18 0 28 -13l71 -89q-90 -103 -209.5 -160t-277.5 -57q-124 0 -222 46t-165.5 128.5t-103.5 196.5t-36 250v24t1 24h-274l-80 -653h-206l176 1436h206l-77 -627h273z"/>
<glyph glyph-name="uni0465" horiz-adv-x="1275" unicode="ѥ" d="M1194 835q-11 -11 -20 -17t-23 -6q-15 0 -31.5 11.5t-39 25t-55.5 25t-81 11.5q-52 0 -97.5 -21.5t-82.5 -61t-63.5 -95t-40.5 -123.5h403l-18 -138h-400v-14q0 -71 14.5 -126.5t42 -94t67 -59t89.5 -20.5q51 0 86.5 14t62 31t46 31t37.5 14q14 0 21.5 -5t15.5 -17 l40 -62q-31 -33 -71 -60.5t-86 -48t-95.5 -32t-99.5 -11.5q-78 0 -143.5 30t-113.5 86t-74.5 137t-26.5 182v25h-168l-54 -446h-182l124 1016h182l-53 -432h168q20 97 63.5 179t105 142t138.5 93.5t165 33.5q97 0 172.5 -35.5t129.5 -98.5z"/>
<glyph glyph-name="uni0466" horiz-adv-x="1320" unicode="Ѧ" d="M1243 0h-164q-26 0 -42 13.5t-21 34.5l-133 561h-129l-74 -609h-195l75 609h-124l-271 -561q-9 -18 -28.5 -33t-45.5 -15h-166l737 1436h197zM848 756l-82 346q-8 29 -15 67t-13 83q-17 -45 -33.5 -83.5t-30.5 -67.5l-167 -345h341z"/>
<glyph glyph-name="uni0467" horiz-adv-x="1047" unicode="ѧ" d="M965 0h-145q-24 0 -37.5 11.5t-18.5 30.5l-94 348h-89l-47 -390h-171l47 390h-85l-180 -348q-8 -16 -25 -29t-40 -13h-146l554 1016h173zM634 521l-56 206q-6 25 -12.5 57.5t-11.5 70.5q-14 -38 -28 -71.5t-27 -57.5l-106 -205h241z"/>
<glyph glyph-name="uni0468" horiz-adv-x="1870" unicode="Ѩ" d="M1794 0h-165q-27 0 -42.5 13.5t-20.5 34.5l-133 561h-128l-75 -609h-194l74 609h-124l-271 -561q-9 -18 -28.5 -33t-45.5 -15h-165l312 609h-415l-75 -609h-206l176 1436h206l-83 -680h472l349 680h198zM1398 756l-82 346q-8 29 -15 67.5t-13 83.5q-17 -45 -33.5 -84 t-31.5 -68l-166 -345h341z"/>
<glyph glyph-name="uni0469" horiz-adv-x="1473" unicode="ѩ" d="M1391 0h-145q-24 0 -37 11.5t-18 30.5l-94 348h-88l-48 -390h-172l48 390h-85l-180 -348q-8 -16 -25 -29t-40 -13h-147l213 390h-290l-48 -390h-182l124 1016h183l-61 -495h345l270 495h174zM1061 521l-56 206q-7 25 -13 58t-11 71q-14 -39 -28.5 -72.5t-27.5 -57.5 l-106 -205h242z"/>
<glyph glyph-name="uni046A" horiz-adv-x="1539" unicode="Ѫ" d="M1005 801q76 -5 130.5 -27t92.5 -61t63 -95t42 -128l113 -490h-165q-26 0 -42 15t-21 33l-82 424q-11 54 -24.5 89.5t-36.5 56t-58 29t-87 8.5h-52l-2 -2h-5l-80 -653h-195l80 653h-1l-1 2h-51q-53 0 -89.5 -8.5t-65 -29t-51 -56t-46.5 -89.5l-185 -424q-9 -18 -29 -33 t-46 -15h-165l233 490q34 72 73 127.5t87 94.5t107.5 61.5t135.5 27.5l-399 634h1376zM692 946q19 -30 35 -54t28 -46.5t20 -45t12 -47.5q10 25 24 47.5t31.5 45t39.5 46.5t48 54l288 341h-730z"/>
<glyph glyph-name="uni046B" horiz-adv-x="1209" unicode="ѫ" d="M792 575q51 -7 89 -25.5t65.5 -49t47 -72.5t34.5 -96l88 -332h-147q-23 0 -37 13t-19 29l-58 274q-9 41 -20.5 66.5t-29.5 40t-44 20t-62 5.5h-24l-1 -1h-6l-54 -447h-172l55 447h-3l-1 1h-20q-36 0 -63 -5.5t-49 -20t-40 -40t-36 -66.5l-126 -274q-9 -16 -26 -29 t-40 -13h-147l170 332q27 53 56.5 94.5t64.5 72t77 49.5t94 27l-297 440h1086zM513 700q33 -50 54 -86t28 -79q17 43 47.5 79t76.5 86l170 185h-502z"/>
<glyph glyph-name="uni046C" horiz-adv-x="2099" unicode="Ѭ" d="M1565 801q76 -5 130.5 -27t93 -61t63 -95t41.5 -128l114 -490h-165q-26 0 -42.5 15t-21.5 33l-81 424q-11 54 -24.5 89.5t-36.5 56t-58 29t-87 8.5h-53l-2 -2h-5l-80 -653h-194l80 653h-2l-1 2h-59q-42 0 -76.5 -8.5t-63.5 -29t-54 -56t-49 -89.5l-187 -424 q-9 -18 -29 -33t-46 -15h-165l232 487q26 57 71.5 99t102.5 69h-533l-80 -655h-206l176 1436h206l-78 -634h745l-397 633h1376zM1253 946q19 -30 35 -54t28 -46.5t20 -44.5t12 -47q10 25 24 47t31.5 44.5t39 46.5t47.5 54l289 341h-730z"/>
<glyph glyph-name="uni046D" horiz-adv-x="1639" unicode="ѭ" d="M1223 575q51 -7 89 -25.5t65.5 -49t47 -72.5t33.5 -96l89 -332h-147q-23 0 -37 13t-19 29l-58 274q-9 41 -20.5 66.5t-29.5 40t-44 20t-62 5.5h-24l-1 -1h-5l-55 -447h-171l54 447h-3l-1 1h-27q-31 0 -56 -5.5t-47 -20t-41 -40.5t-38 -66l-129 -274q-8 -16 -25 -29 t-40 -13h-146l170 332q19 39 50.5 67.5t71.5 48.5h-377l-55 -448h-182l124 1016h183l-54 -437h530l-293 436h1086zM944 700q34 -50 55 -86t28 -80q17 44 47 80t76 86l169 185h-500z"/>
<glyph glyph-name="uni046E" horiz-adv-x="1048" unicode="Ѯ" d="M634 -404q2 27 -2.5 46t-18 30t-37 16t-58.5 5q-23 0 -41.5 -1.5t-39.5 -3.5t-46.5 -3.5t-61.5 -1.5q-197 0 -288.5 57.5t-91.5 170.5q0 137 82.5 210t228.5 73q29 0 55 -3t50.5 -6t48.5 -6t49 -3q66 0 117.5 22t87.5 60.5t55 90.5t19 112q0 51 -17 91t-49.5 67.5t-79 42 t-105.5 14.5h-184l21 169h172q62 0 114 16.5t90 48t59 77t21 104.5q0 42 -15.5 77t-45 60t-73.5 39t-101 14q-72 0 -124.5 -17t-90.5 -37.5t-63.5 -37.5t-43.5 -17q-17 0 -26 8t-17 24l-38 98q85 71 190.5 109.5t233.5 38.5q96 0 172 -24.5t128.5 -68.5t80.5 -104t28 -132 q0 -120 -58.5 -213.5t-165.5 -144.5q83 -42 132 -115t49 -177q0 -89 -33 -173t-97.5 -149t-161 -104.5t-223.5 -39.5q-32 0 -56 2.5t-44.5 6t-37.5 6t-35 2.5q-54 0 -80 -25t-26 -71q0 -21 9 -37t29.5 -27.5t54.5 -17t84 -5.5q63 0 120.5 5t103.5 5q56 0 94 -12t61 -33 t33 -50t10 -63q0 -47 -11 -71t-43 -24h-53z"/>
<glyph glyph-name="uni046F" horiz-adv-x="820" unicode="ѯ" d="M727 1182q-24 0 -42 -13t-32 -30l-112 -122q50 -14 87.5 -37.5t62.5 -54t37.5 -65.5t12.5 -72q0 -33 -10.5 -69t-33.5 -69.5t-60.5 -62t-92.5 -46.5q82 -31 121 -89.5t39 -127.5q0 -70 -27.5 -131t-78.5 -106t-123 -71t-161 -26q-41 0 -76.5 5t-60.5 5q-41 0 -64 -21 t-23 -65q0 -43 32 -64t89 -21q20 0 45.5 1.5t53 3.5t54.5 3.5t50 1.5q56 0 94 -12t61.5 -33t33.5 -50t10 -63q0 -47 -11.5 -70.5t-43.5 -23.5h-53q2 27 -2.5 45.5t-18 30t-36.5 16.5t-58 5q-46 0 -93 -5t-90 -5q-59 0 -108 14.5t-85 42.5t-56 69t-20 95q0 52 16.5 97t48 78 t78 51.5t107.5 18.5q30 0 62 -4.5t63 -4.5q49 0 88.5 15t66.5 41t41.5 60.5t14.5 74.5q0 67 -48 106t-150 39h-105l15 127h106q52 0 93.5 12t71 34t45 51.5t15.5 65.5q0 26 -10.5 49t-32 40.5t-54 28t-75.5 10.5q-52 0 -90 -11.5t-65 -26t-45.5 -26t-31.5 -11.5 q-14 0 -22 5.5t-17 22.5l-34 72q52 47 119 79t155 40l-160 244h109q20 0 33.5 -5.5t22.5 -21.5l75 -120q5 -8 9.5 -17t8.5 -19q7 10 13.5 19t14.5 17l84 105q23 27 52.5 39.5t62.5 12.5q20 0 36 -4t31 -9l-11 -88h-18z"/>
<glyph glyph-name="uni0470" horiz-adv-x="1520" unicode="Ѱ" d="M1531 1436l-64 -513q-15 -127 -64 -230.5t-129.5 -177.5t-192 -117t-252.5 -49l-43 -349h-206l43 349q-138 7 -238.5 50t-163 117t-81 156t-18.5 152q0 48 6 99l63 513h137q33 0 48.5 -21t11.5 -51l-54 -441q-6 -49 -6 -92q0 -40 8 -94t45 -105.5t101.5 -80.5t160.5 -35 l113 920h206l-113 -920q98 6 170.5 35t122 80t78.5 124.5t41 167.5l55 441q3 30 23.5 51t53.5 21h138z"/>
<glyph glyph-name="uni0471" horiz-adv-x="1431" unicode="ѱ" d="M1333 1016q1 -28 2.5 -62l3 -68t2 -65t0.5 -53q0 -146 -22.5 -259t-63.5 -197t-97 -142.5t-123.5 -96t-143 -57t-154.5 -26.5l-41 -331h-189l40 330q-128 9 -219 46t-146.5 100t-72.5 132.5t-17 129.5q0 40 6 84l66 535h131q23 0 37.5 -23t10.5 -51l-56 -461 q-4 -29 -4 -56q0 -110 67.5 -187t215.5 -97l159 1295h189l-159 -1297q86 9 158 39t124 93t81 163.5t29 249.5q0 77 -5.5 134t-5.5 103q0 16 1 31q4 35 22.5 49.5t38.5 14.5h135z"/>
<glyph glyph-name="afii10147" horiz-adv-x="1495" unicode="Ѳ" d="M852 1452q133 0 240 -47.5t182 -132t115 -200.5t40 -253q0 -182 -57.5 -335t-159 -264t-240 -173t-301.5 -62q-134 0 -240.5 47.5t-181.5 131.5t-115 199.5t-40 252.5q0 121 26 230.5t74 202.5t116.5 167.5t152.5 127t182.5 80.5t206.5 28zM1218 814q0 106 -27 192 t-77.5 147t-123 94t-163.5 33q-96 0 -179.5 -32.5t-148.5 -93.5t-111 -148.5t-67 -196.5h897v5zM304 653v-31q0 -106 26.5 -192t77 -146.5t122.5 -93.5t163 -33q100 0 186 34.5t152.5 98.5t111 156t63.5 207h-902z"/>
<glyph glyph-name="afii10195" horiz-adv-x="1040" unicode="ѳ" d="M579 1031q83 0 153 -28.5t120.5 -82.5t79 -132.5t28.5 -178.5q0 -128 -40.5 -241.5t-111 -198.5t-166 -134t-205.5 -49q-83 0 -153 28.5t-120.5 82.5t-79 132.5t-28.5 179.5q0 129 40.5 242.5t111 198t166 133t205.5 48.5zM771 576q1 9 1 17.5v17.5q0 140 -53 210 t-156 70q-56 0 -104 -24t-86.5 -66.5t-66 -100t-43.5 -124.5h508zM245 450q-1 -11 -1 -21.5v-21.5q0 -140 53 -210.5t156 -70.5q57 0 105.5 25t87 68.5t66.5 102.5t43 128h-510z"/>
<glyph glyph-name="afii10148" horiz-adv-x="1309" unicode="Ѵ" d="M1007 1246q43 100 111.5 148t171.5 48q31 0 49.5 -2t28 -8t11.5 -16q1 -5 1 -12t-1 -15l-14 -116h-50q-41 0 -74.5 -26t-57.5 -79l-532 -1168h-185l-362 1436h160q27 0 43 -14t21 -35l228 -990q9 -35 16.5 -76.5t12.5 -86.5q14 45 31 86.5t34 76.5z"/>
<glyph glyph-name="afii10196" horiz-adv-x="1003" unicode="ѵ" d="M695 846q22 57 49 92.5t58 55t64.5 26.5t69.5 7q26 0 42.5 -3t26 -7.5t12.5 -9.5t2 -9l-13 -105h-27q-40 0 -68.5 -18.5t-48.5 -61.5l-374 -813h-171l-251 1016h155q22 0 35.5 -11.5t16.5 -27.5l141 -635q7 -32 11.5 -63t7.5 -63q11 31 21.5 62t22.5 64z"/>
<glyph glyph-name="uni0476" horiz-adv-x="1309" unicode="Ѷ" d="M1007 1246q43 100 111.5 148t171.5 48q31 0 49.5 -2t28 -8t11.5 -16q1 -5 1 -12t-1 -15l-14 -116h-50q-41 0 -74.5 -26t-57.5 -79l-532 -1168h-185l-362 1436h160q27 0 43 -14t21 -35l228 -990q9 -35 16.5 -76.5t12.5 -86.5q14 45 31 86.5t34 76.5zM420 1819q32 0 51 -12 t33 -34l144 -227h-97q-21 0 -35.5 7.5t-28.5 22.5l-203 243h136zM750 1819q32 0 50.5 -11.5t28.5 -34.5l108 -227h-85q-21 0 -33 8t-26 22l-161 243h118z"/>
<glyph glyph-name="uni0477" horiz-adv-x="1004" unicode="ѷ" d="M696 846q22 57 49 92.5t58 55t64.5 26.5t69.5 7q26 0 42.5 -3t26 -7.5t12.5 -9.5t2 -9l-13 -105h-27q-40 0 -68.5 -18.5t-48.5 -61.5l-374 -813h-171l-251 1016h155q22 0 35.5 -11.5t16.5 -27.5l141 -635q7 -32 11.5 -63t7.5 -63q11 31 21.5 62t22.5 64zM269 1452 q32 0 45.5 -11.5t25.5 -34.5l138 -242h-86q-21 0 -34 6.5t-24 23.5l-196 258h131zM553 1452q32 0 47 -11.5t24 -34.5l97 -242h-75q-20 0 -33.5 6.5t-23.5 23.5l-154 258h118z"/>
<glyph glyph-name="uni0478" horiz-adv-x="2446" unicode="Ѹ" d="M1218 814q0 106 -27 192t-77.5 147t-123 94t-163.5 33q-116 0 -212 -46.5t-165 -132.5t-107.5 -207.5t-38.5 -271.5q0 -106 26.5 -192t77 -146.5t122.5 -93.5t163 -33q117 0 213.5 46.5t166 132t107.5 207t38 271.5zM1429 819q0 -182 -57.5 -335t-159 -264t-240 -173 t-301.5 -62q-134 0 -240.5 47.5t-181.5 131.5t-115 199.5t-40 252.5q0 121 26 230.5t74 202.5t116.5 167.5t152.5 127t182.5 80.5t206.5 28q133 0 240 -47.5t182 -132t115 -200.5t40 -253zM2483 1016l-682 -1313q-23 -44 -67 -44h-144l222 406l-262 951h162q23 0 34 -11 t16 -28l154 -610q5 -22 8.5 -43.5t5.5 -44.5q9 23 18.5 45t20.5 44l303 610q8 17 23.5 27.5t31.5 10.5h156z"/>
<glyph glyph-name="uni0479" horiz-adv-x="2019" unicode="ѹ" d="M437 -14q-83 0 -153 28.5t-120.5 82.5t-79 132.5t-28.5 179.5q0 129 40.5 242.5t111 198t166 133t205.5 48.5q83 0 153 -28.5t120.5 -82.5t79 -132.5t28.5 -178.5q0 -128 -40.5 -241.5t-111 -198.5t-166 -134t-205.5 -49zM455 138q70 0 127.5 38.5t98 103.5t62.5 150 t22 178q0 137 -52 204t-152 67q-71 0 -128 -38.5t-97.5 -103t-62.5 -149.5t-22 -178q0 -135 52 -203.5t152 -68.5zM2056 1016l-682 -1313q-23 -44 -67 -44h-144l222 406l-262 951h162q23 0 34 -11t16 -28l154 -610q5 -22 8.5 -43.5t5.5 -44.5q9 23 18.5 45t20.5 44l303 610 q8 17 23.5 27.5t31.5 10.5h156z"/>
<glyph glyph-name="uni047A" horiz-adv-x="1582" unicode="Ѻ" d="M1515 819q0 -166 -48 -308t-133.5 -250t-203.5 -177.5t-259 -90.5q-22 -38 -61 -62.5t-86 -24.5q-45 0 -82.5 23.5t-58.5 61.5q-114 15 -204.5 67.5t-154 134.5t-97 190t-33.5 233q0 112 22 213t63 189t99.5 161t131 127.5t158 90t180.5 48.5q21 38 58 61t82 23t83.5 -23 t60.5 -60q112 -16 202 -69.5t152 -136t95.5 -190t33.5 -231.5zM861 163q100 15 182 67.5t140 136.5t90 197t32 250q0 89 -19.5 164.5t-56 133.5t-89 97.5t-118.5 57.5q-23 -31 -58 -49t-76 -18q-42 0 -77.5 20.5t-58.5 54.5q-100 -15 -182.5 -67t-141.5 -136.5t-91.5 -198 t-32.5 -251.5q0 -91 19.5 -167t57 -134.5t91.5 -97.5t122 -55q23 31 57 49t73 18q42 0 78 -20t59 -52z"/>
<glyph glyph-name="uni047B" horiz-adv-x="1180" unicode="ѻ" d="M1100 609q0 -117 -34 -222t-94 -187t-142 -137t-178 -71q-22 -38 -60.5 -62t-85.5 -24q-45 0 -83 24t-59 62q-69 12 -125.5 45t-97 86t-63 125t-22.5 161q0 117 34 222t93.5 187t141.5 136.5t178 71.5q20 40 59 65t85 25q48 0 88 -25t61 -66q68 -12 124 -45.5t96 -86.5 t62 -124.5t22 -159.5zM654 146q58 15 104 58.5t78.5 105.5t50 138.5t17.5 159.5q0 203 -117 255q-23 -35 -59.5 -55.5t-80.5 -20.5q-45 0 -82.5 23.5t-58.5 61.5q-59 -15 -106 -57.5t-80 -105t-51 -139.5t-18 -160q0 -103 30 -166t87 -89q21 36 57.5 58t80.5 22 q48 0 87.5 -24.5t60.5 -64.5z"/>
<glyph glyph-name="uni047C" horiz-adv-x="2003" unicode="Ѽ" d="M1221 1327q59 54 134 88.5t178 34.5q106 0 181.5 -44.5t123.5 -121t70 -179t22 -217.5q0 -208 -42.5 -375.5t-122 -285t-194.5 -180.5t-259 -63q-118 0 -208.5 45.5t-157.5 127.5q-88 -82 -189.5 -127.5t-219.5 -45.5q-105 0 -186 41t-136 117t-83.5 185t-28.5 246 q0 114 14.5 223.5t44.5 207t76 179.5t110 141.5t145.5 92.5t183.5 33q51 0 93 -9t76 -25.5t62 -39t51 -49.5l-55 -101q-13 -17 -22.5 -22.5t-23.5 -5.5q-13 0 -26.5 11.5t-33.5 26t-49 26t-72 11.5q-87 0 -156 -49t-117 -140t-73 -221.5t-25 -292.5q0 -98 17.5 -174 t52 -128.5t85 -80t116.5 -27.5q105 0 183.5 57t134.5 153h155q32 -96 96.5 -153t169.5 -57q87 0 161.5 41.5t129.5 128.5t86.5 222t31.5 321q0 94 -15 168t-45 125.5t-74 79t-101 27.5q-44 0 -76 -11.5t-55 -26t-39.5 -26t-29.5 -11.5q-14 0 -22 5.5t-17 22.5zM1048 1409 q1 18 35 25q32 8 49.5 25t22.5 55q-8 -4 -22 -4q-44 0 -61.5 20t-17.5 46q0 42 26 69t71 27q43 0 65 -27.5t22 -73.5q0 -39 -12 -74.5t-36 -62.5t-60 -42.5t-81 -15.5h-6zM1538 1654q-88 0 -153.5 21.5t-118 48t-97.5 48t-92 21.5q-57 0 -93.5 -36t-45.5 -103h-116 q14 115 83.5 178.5t177.5 63.5q44 0 81.5 -10.5t72 -26.5t68.5 -34t71.5 -34t80 -26.5t94.5 -10.5z"/>
<glyph glyph-name="uni047D" horiz-adv-x="1453" unicode="ѽ" d="M847 935q44 40 100 65.5t132 25.5q78 0 132.5 -31.5t89 -86t50 -127t15.5 -153.5q0 -144 -29 -262t-85 -201.5t-138.5 -129.5t-189.5 -46q-83 0 -146.5 29.5t-112.5 86.5q-63 -57 -133.5 -86.5t-154.5 -29.5q-78 0 -136.5 29.5t-97.5 83.5t-59 130.5t-20 171.5 q0 121 22.5 233t72 198.5t128 138.5t189.5 52q76 0 126.5 -25.5t83.5 -65.5l-49 -91q-11 -15 -19.5 -19.5t-19.5 -4.5t-21 7.5t-23.5 17t-32 17t-45.5 7.5q-54 0 -97 -31.5t-73.5 -92t-47 -148.5t-16.5 -200q0 -120 42.5 -186t127.5 -66q69 0 119 38t89 109h135 q21 -71 62 -109t110 -38q58 0 105.5 27.5t81.5 85t52.5 146t18.5 210.5q0 123 -37 189t-107 66q-27 0 -47.5 -7.5t-36 -17t-27.5 -17t-23 -7.5t-18.5 4.5t-15.5 19.5zM726 1033q2 11 10 16t26 9q32 8 49 25.5t23 55.5q-9 -4 -23 -4q-43 0 -61 19.5t-18 45.5q0 42 26.5 69 t71.5 27q42 0 64 -27.5t22 -73.5q0 -39 -12 -74t-36 -62t-60.5 -42.5t-85.5 -15.5zM1217 1278q-59 0 -107.5 10.5t-89 25.5t-75 33.5t-66 33.5t-62 25.5t-61.5 10.5q-57 0 -94 -36t-45 -103h-117q7 58 29 103t55.5 76t78.5 47.5t99 16.5q44 0 81.5 -10.5t72 -26.5t68 -34.5 t71 -34.5t80 -26.5t94.5 -10.5z"/>
<glyph glyph-name="uni047E" horiz-adv-x="2003" unicode="Ѿ" d="M1220 1327q59 54 134.5 88.5t177.5 34.5q106 0 181.5 -44.5t123.5 -121t70 -179t22 -217.5q0 -208 -42.5 -375.5t-122 -285t-194 -180.5t-258.5 -63q-118 0 -208.5 45t-157.5 128q-88 -83 -189.5 -128t-220.5 -45q-105 0 -186 41t-135.5 117t-83 185t-28.5 246 q0 114 14.5 223.5t44 207t76 179.5t110 141.5t145.5 92.5t184 33q51 0 92.5 -9t76 -25.5t62 -39t50.5 -49.5l-55 -101q-12 -17 -22 -22.5t-23 -5.5t-26.5 11.5t-33.5 26t-49 26t-73 11.5q-87 0 -156 -49t-116.5 -140t-72.5 -221.5t-25 -292.5q0 -196 69.5 -303t201.5 -107 q81 0 151.5 35t130.5 97l61 496h206l-61 -496q45 -62 107 -97t143 -35q87 0 161.5 41.5t129.5 128.5t86.5 222t31.5 321q0 94 -15 168t-44.5 125.5t-73.5 79t-102 27.5q-44 0 -75.5 -11.5t-55 -26t-39.5 -26t-29 -11.5q-14 0 -22.5 5.5t-16.5 22.5zM1553 1774 q-2 -12 -4.5 -20t-4.5 -19l-66 -178q-5 -12 -13 -18t-16.5 -6t-15.5 6t-8 18l-15 118h-211l-42 -118q-5 -12 -13.5 -18t-16.5 -6t-15 6t-9 18l-15 118h-212l-43 -118q-5 -12 -13.5 -18t-16.5 -6t-15 6t-8 18l-23 178l-1 22q0 8 2 17h795z"/>
<glyph glyph-name="uni047F" horiz-adv-x="1446" unicode="ѿ" d="M1359 1016q2 -20 3.5 -44.5t3 -50t2 -49.5t0.5 -41q0 -141 -25.5 -259t-73 -218.5t-116 -187.5t-154.5 -166h-111q-16 0 -24.5 6t-19.5 20q-48 63 -88.5 151.5t-63.5 191.5q-47 -102 -109 -191.5t-127 -152.5q-14 -14 -22 -19.5t-23 -5.5h-115q-50 60 -90 129.5 t-66 147.5q-24 78 -34 162q-4 39 -5 79q0 46 6 93l50 405h127q29 0 39.5 -18t8.5 -39l-41 -327q-6 -50 -6 -96q0 -86 21 -160q32 -112 102 -198q40 40 77.5 92.5t68 111.5t51.5 122.5t29 127.5l47 384h127q29 0 40 -18t9 -39l-40 -320q-5 -42 -5 -84q0 -21 1 -43 q4 -64 19 -123.5t40 -113t59 -97.5q50 48 95.5 107.5t80.5 134t56 165t21 201.5q0 65 -6.5 109.5t-6.5 64.5q0 23 12.5 39.5t34.5 16.5h141zM1225 1354q-2 -12 -4.5 -20t-4.5 -19l-66 -178q-5 -12 -13 -18t-16.5 -6t-15.5 6t-8 18l-15 118h-211l-42 -118q-5 -12 -13.5 -18 t-16.5 -6t-15 6t-9 18l-15 118h-212l-43 -118q-5 -12 -13.5 -18t-16.5 -6t-15 6t-8 18l-23 178l-1 22q0 8 2 17h795z"/>
<glyph glyph-name="uni0480" horiz-adv-x="1198" unicode="Ҁ" d="M736 -7q-24 -2 -48.5 -3t-41.5 -1q-130 0 -232.5 45.5t-173.5 127.5t-108.5 195.5t-37.5 250.5q0 124 26.5 235t75.5 205t117.5 169t152.5 127t181 80t203 28q77 0 139.5 -13.5t113.5 -38.5t93 -60.5t77 -79.5l-70 -85q-8 -11 -19 -18t-28 -7q-12 0 -24.5 9t-29 23 t-38 30t-53 30t-73.5 23t-98 9q-113 0 -211 -45.5t-170 -130t-113.5 -204.5t-41.5 -269q0 -108 28 -194.5t78 -146.5t119 -92t151 -32q48 0 77.5 4t49.5 9.5t34 9.5t31 4h59l-59 -477q-3 -27 -20.5 -42.5t-40.5 -15.5h-117z"/>
<glyph glyph-name="uni0481" horiz-adv-x="872" unicode="ҁ" d="M492 -9q-19 -2 -38 -3.5t-34 -1.5q-88 0 -156.5 30t-115 85t-70.5 132t-24 171q0 82 17.5 160.5t50.5 148t80 128t105 101t126.5 66t145.5 23.5q101 0 169.5 -36t120.5 -105l-61 -74q-8 -8 -17.5 -14t-20.5 -6q-14 0 -28 12t-35 26.5t-52.5 26.5t-80.5 12 q-66 0 -125 -35.5t-103 -98.5t-70 -149t-26 -187q0 -63 14 -113t41 -85t66.5 -54t90.5 -19q30 0 55.5 4t45 9.5t32 9.5t18.5 4h72l-55 -449q-4 -27 -21 -43t-41 -16h-117z"/>
<glyph glyph-name="uni0482" horiz-adv-x="1349" unicode="҂" d="M905 852l-288 -382l311 -254l-110 -140l-308 252l-260 -344l-145 106l266 352l-315 258l109 139l313 -255l288 381l-317 259l110 140l314 -257l259 343l145 -105l-265 -352l309 -253l-109 -139z"/>
<glyph glyph-name="uni0483" horiz-adv-x="736" unicode="҃" d="M283 1183l-10 -92h-52q-22 0 -41.5 7t-34 21.5t-20 32t-5.5 35.5q0 8 1 18q7 62 42.5 89t83.5 27h488l10 92h52q22 0 41.5 -7t34 -21.5t20 -32.5t5.5 -36q0 -8 -1 -17q-7 -62 -43 -89t-83 -27h-488z"/>
<glyph glyph-name="uni0484" horiz-adv-x="736" unicode="҄" d="M648 1304q-39 0 -74 -11t-70.5 -28t-73.5 -36t-82 -36t-96.5 -28t-116.5 -11l13 120q56 0 103 11.5t89 28t81.5 36.5t79.5 36.5t82.5 28t92.5 11.5q122 0 165 -62.5t43 -151.5q0 -27 -4 -58h-128q2 18 2 34q0 20 -5 42.5t-20 40t-36 25.5t-45 8z"/>
<glyph glyph-name="uni0485" horiz-adv-x="736" unicode="҅" d="M598 1125q-51 0 -86.5 17.5t-56.5 47t-27.5 60.5t-6.5 56q0 16 2 32q8 67 41.5 101.5t89.5 34.5q48 0 69 -26.5t21 -60.5q0 -8 -1 -16q-2 -18 -9.5 -35t-21 -29.5t-33.5 -20t-48 -7.5q-7 0 -13 0.5t-11 1.5q-1 -37 14 -56t47 -27q20 -5 28 -12t6 -20z"/>
<glyph glyph-name="uni0486" horiz-adv-x="736" unicode="҆" d="M420 1162q3 23 42 32q35 8 54.5 26.5t26.5 58.5q-6 -2 -12 -3t-14 -1q-28 0 -46.5 7.5t-29 20t-14 29.5t-1.5 35q5 45 34.5 74t77.5 29q56 0 78.5 -35.5t22.5 -82.5q0 -14 -2 -30q-5 -42 -21 -79t-43.5 -64t-66.5 -42.5t-90 -15.5z"/>
<glyph glyph-name="uni0488" horiz-adv-x="2232" unicode="҈" d="M1710 1257q61 0 107 -17.5t77 -49t46.5 -76t15.5 -98.5h-138q0 58 -23.5 87.5t-84.5 29.5t-84 -29.5t-23 -87.5h-138q0 54 15.5 98.5t46 76t76.5 49t107 17.5zM526 1257q61 0 107 -17.5t77 -49t46.5 -76t15.5 -98.5h-138q0 58 -23.5 87.5t-84.5 29.5q-60 0 -83.5 -29.5 t-23.5 -87.5h-138q0 54 15.5 98.5t46 76t76.5 49t107 17.5zM1710 355q61 0 107 -17.5t77 -49t46.5 -76t15.5 -98.5h-138q0 58 -23.5 87.5t-84.5 29.5t-84 -29.5t-23 -87.5h-138q0 54 15.5 98.5t46 76t76.5 49t107 17.5zM526 355q61 0 107 -17.5t77 -49t46.5 -76t15.5 -98.5 h-138q0 58 -23.5 87.5t-84.5 29.5q-60 0 -83.5 -29.5t-23.5 -87.5h-138q0 54 15.5 98.5t46 76t76.5 49t107 17.5zM1902 806q61 0 107 -17.5t77 -49t46.5 -76t15.5 -98.5h-138q0 59 -23.5 88.5t-84.5 29.5t-84 -29.5t-23 -88.5h-138q0 54 15.5 98.5t46 76t76.5 49t107 17.5z M334 806q61 0 107 -17.5t77 -49t46.5 -76t15.5 -98.5h-138q0 59 -23.5 88.5t-84.5 29.5q-60 0 -83.5 -29.5t-23.5 -88.5h-138q0 54 15.5 98.5t46 76t76.5 49t107 17.5zM1118 1585q61 0 107 -17.5t77 -49t46.5 -75.5t15.5 -98h-138q0 58 -23.5 87.5t-84.5 29.5t-84 -29.5 t-23 -87.5h-138q0 54 15.5 98t46 75.5t76.5 49t107 17.5zM1118 26q61 0 107 -17.5t77 -49t46.5 -75.5t15.5 -98h-138q0 58 -23.5 87.5t-84.5 29.5t-84 -29.5t-23 -87.5h-138q0 54 15.5 98t46 75.5t76.5 49t107 17.5z"/>
<glyph glyph-name="uni0489" horiz-adv-x="2179" unicode="҉" d="M1867 611q0 -50 -33.5 -81.5t-84.5 -31.5q-46 0 -77.5 32t-31.5 83q0 30 10.5 52.5t29 37.5t43.5 22.5t53 7.5q42 0 88 -12.5t91.5 -35.5t88 -57t78.5 -77l-28 -31q-12 -13 -28 -13q-6 0 -13 4.5t-13 10.5q-10 9 -27 23.5t-39.5 29.5t-49.5 27.5t-57 18.5v-10zM1621 77 q-18 -17 -38.5 -25.5t-42.5 -7.5t-43 10.5t-39 27.5q-32 32 -32 76.5t35 81.5q37 36 79 36q6 0 34 -3.5t69 -44.5q30 -30 53.5 -71t39.5 -90t20.5 -90.5t4.5 -72.5q0 -25 -2 -50l-42 -1q-17 -1 -28 10q-5 4 -7 12.5t-2 16.5q-1 14 -2.5 36t-6.5 48.5t-15 54.5t-28 53z M1132 1409q50 0 81 -34t32 -85q0 -23 -8.5 -42.5t-23.5 -34.5t-36.5 -23.5t-46.5 -8.5q-30 0 -52 10.5t-37 29t-22.5 43.5t-7.5 53q0 42 12 88t35.5 91.5t57 88.5t76.5 79l30 -28q8 -7 11 -13t2 -15q0 -12 -14 -26q-9 -11 -23.5 -27.5t-29.5 -39t-27.5 -49.5t-18.5 -57h10z M1069 -125q-25 0 -45.5 9t-35.5 25t-23 37.5t-8 47.5q0 45 31.5 77t82.5 32q30 0 52.5 -10.5t37.5 -29t22.5 -43.5t7.5 -53q0 -42 -12.5 -88t-35.5 -91.5t-57 -88.5t-77 -79l-30 28q-8 7 -11 13t-2 15q0 6 4 13t10 13q9 10 24 27t30 39.5t27.5 49.5t17.5 57h-10zM580 1207 q18 17 38.5 25t42.5 7.5t43.5 -10t39.5 -27.5q32 -32 32 -76.5t-36 -81.5q-21 -21 -44.5 -29.5t-47 -6t-46.5 15t-43 32.5q-30 30 -54 71t-39.5 90t-20.5 90t-5 70q0 26 3 53l41 1h3q15 0 25 -10q5 -4 7 -12.5t2 -16.5q1 -14 2.5 -36.5t6.5 -48.5t15 -54.5t28 -53.5z M536 121q-18 18 -26 39t-7.5 42.5t10 43t27.5 39.5q16 16 36 24t41 8t42 -9t39 -27q36 -37 36 -79q0 -6 -3.5 -34t-44.5 -69q-30 -30 -71 -53.5t-89.5 -39.5t-90 -20.5t-72.5 -4.5q-25 0 -50 2l-1 42q-1 10 1 16t9 13q4 4 12 6t17 2q14 1 36 2.5t48.5 6.5t54 15.5t53.5 28.5 zM334 673q0 25 9 45.5t25 35.5t37.5 23.5t47.5 8.5q45 0 76.5 -32t31.5 -83q0 -59 -39.5 -89.5t-96.5 -30.5q-42 0 -88 12.5t-91.5 35.5t-88 57t-78.5 77l28 31q12 13 28 13q6 0 13 -4.5t13 -10.5q10 -9 27 -23.5t39.5 -29.5t49.5 -27.5t57 -18.5v10zM1665 1163 q18 -18 26 -39t7.5 -42.5t-10 -43t-27.5 -39.5q-16 -16 -36 -24t-41 -8t-41.5 9t-38.5 27q-36 37 -36 79q0 6 3.5 34t43.5 69q30 30 71 53.5t89.5 39.5t90 20.5t72.5 4.5q25 0 50 -2l1 -42q1 -4 1 -8q0 -5 -2 -9.5t-9 -11.5q-4 -4 -12 -6t-16 -2q-14 -1 -36.5 -2.5t-49 -7 t-54.5 -15.5t-53 -28z"/>
<glyph glyph-name="uni048A" horiz-adv-x="1481" unicode="Ҋ" d="M1397 161l-204 -509h-201l148 348h-165l121 980q5 45 13 92.5t22 101.5q-22 -47 -46 -87t-47 -72l-693 -951q-17 -23 -43.5 -43.5t-57.5 -20.5h-152l176 1436h206l-120 -979q-5 -45 -14 -94t-23 -103q23 48 47.5 88.5t47.5 72.5l693 951q17 24 43 44t56 20h153 l-156 -1275h196zM1113 1794q19 0 26 -16t7 -33v-9q-6 -50 -29.5 -88.5t-62.5 -65t-91.5 -40.5t-116.5 -14q-129 0 -191 50t-62 129q0 14 2 29q2 22 13 40t31 18h105q-3 -29 -3 -53q0 -14 2 -35.5t15.5 -41t37.5 -28t61 -8.5t63.5 8.5t44 28t28 51t15.5 78.5h105z"/>
<glyph glyph-name="uni048B" horiz-adv-x="1132" unicode="ҋ" d="M1048 143l-105 -433q-4 -27 -21 -42.5t-41 -15.5h-116l94 348h-93q-71 0 -71 70l12 166q-79 -124 -177.5 -187t-202.5 -63q-64 0 -113.5 25.5t-80.5 74.5t-39.5 103t-8.5 96q0 40 5 85l77 646h194l-76 -646q-5 -39 -5 -71q0 -62 22.5 -106.5t97.5 -44.5q45 0 92 24.5 t91 69.5t81.5 109t64.5 142l62 523h195l-106 -873h168zM868 1436q19 0 25.5 -16t6.5 -33v-9q-6 -50 -29.5 -90t-62.5 -68.5t-92 -44t-117 -15.5t-113.5 15.5t-81.5 44t-44.5 63.5t-12.5 70q0 12 1 25q3 22 15 40t30 18h106q-3 -29 -3 -53q0 -14 2 -36.5t15 -42.5t37 -29 t61 -9t63.5 9t44 29t28 52.5t16.5 79.5h105z"/>
<glyph glyph-name="uni048C" horiz-adv-x="1228" unicode="Ҍ" d="M727 822q112 0 193 -25.5t133.5 -70.5t77 -107t24.5 -134q0 -110 -36.5 -199t-105 -153t-166.5 -98.5t-222 -34.5h-445l131 1066h-220l19 155h220l26 215h205l-26 -215h318l-18 -155h-319l-30 -244h241zM645 163q78 0 135 20.5t94.5 58.5t56 92.5t18.5 123.5 q0 47 -13.5 84.5t-43 63.5t-75.5 39.5t-110 13.5h-241l-61 -496h240z"/>
<glyph glyph-name="uni048D" horiz-adv-x="983" unicode="ҍ" d="M372 529q31 39 68 70.5t77 53.5t80.5 34t78.5 12q54 0 97 -18t73.5 -50.5t47 -78.5t16.5 -102q0 -93 -40 -177.5t-108.5 -148t-159 -101t-190.5 -37.5q-146 0 -206 64t-60 155q0 21 3 43l65 539h-152l16 137h153l13 109h190l-13 -109h166l-17 -137h-166zM337 233 q-1 -7 -1 -13q0 -38 32.5 -67.5t102.5 -29.5q52 0 99 27t82 69.5t56 96t21 106.5q0 28 -6 53t-19.5 44t-36.5 30.5t-57 11.5q-45 0 -90 -25t-82.5 -65t-64 -90.5t-32.5 -101.5z"/>
<glyph glyph-name="uni048E" horiz-adv-x="1133" unicode="Ҏ" d="M674 1436q116 0 201 -28t140.5 -78.5t82.5 -121t27 -156.5q0 -152 -64.5 -270t-190.5 -184l69 -142l-133 -80l-83 171q-37 -8 -77 -12t-83 -4h-201l-65 -531h-204l175 1436h406zM794 755q62 45 93.5 116.5t31.5 161.5q0 111 -65.5 176.5t-199.5 65.5h-201l-71 -581h201 q17 0 33.5 1.5t32.5 3.5l-76 155l134 79z"/>
<glyph glyph-name="uni048F" horiz-adv-x="1063" unicode="ҏ" d="M327 756q38 63 82 113.5t92.5 86.5t101.5 55.5t108 19.5q128 0 201.5 -94t73.5 -278q0 -86 -18 -170t-51.5 -160.5t-80.5 -141t-104 -110.5l83 -170l-133 -80l-86 175q-25 -8 -51.5 -12t-53.5 -4q-73 0 -133 28.5t-103 79.5l-53 -435h-190l165 1359h98q32 0 49 -16 t17 -50zM272 227q37 -49 88 -69.5t102 -20.5q34 0 64 9l-77 159l134 79l73 -149q33 37 58.5 84.5t43 100.5t26.5 109t9 111q0 116 -41 175.5t-116 59.5q-46 0 -93.5 -29.5t-91 -81t-81.5 -122.5t-66 -155z"/>
<glyph glyph-name="afii10050" horiz-adv-x="1009" unicode="Ґ" d="M1052 1274h-598l-156 -1274h-206l176 1436h645l40 323h159z"/>
<glyph glyph-name="afii10098" horiz-adv-x="769" unicode="ґ" d="M853 1265l-80 -387h-201q-68 0 -109 -46.5t-59 -149.5l-69 -394q-25 -142 -99 -219.5t-200 -77.5q-42 0 -59 8t-15 29l14 111h20q59 0 99 39t54 118l68 379q31 180 116.5 260.5t220.5 80.5h82l41 166q22 83 102 83h74z"/>
<glyph glyph-name="uni0492" horiz-adv-x="1091" unicode="Ғ" d="M531 1274l-55 -452h332l-19 -155h-332l-82 -667h-206l82 667h-205l19 155h205l75 614h804l-20 -162h-598z"/>
<glyph glyph-name="uni0493" horiz-adv-x="864" unicode="ғ" d="M484 1030q53 0 101.5 -11.5t87 -34.5t64.5 -57.5t34 -79.5q3 -17 3 -35q0 -15 -2 -31q-6 -33 -22.5 -62t-40.5 -56t-53.5 -52t-62.5 -48l172 -25l-16 -119l-288 45q-43 -26 -82 -52t-69 -54t-47.5 -57.5t-17.5 -60.5q0 -42 40.5 -71.5t112.5 -29.5q43 0 79.5 11t67 25.5 t55 27.5t44.5 17q21 4 31 0q7 -4 16 -14t17.5 -23t17 -26.5t15.5 -24.5q-78 -72 -177 -109t-198 -37q-66 0 -120 15t-94 42t-64 64t-31 80q-3 15 -3 31t3 32q5 34 22 66t42.5 61.5t57.5 55.5t67 50l-187 26l15 119l301 -46q42 25 81 50.5t68.5 51t47 52.5t17.5 55 q0 35 -32.5 60.5t-95.5 25.5q-42 0 -78.5 -11.5t-66.5 -25t-52.5 -25t-37.5 -11.5q-8 0 -17.5 4.5t-17.5 20.5l-42 80q33 28 73 50t83 38t88.5 24.5t90.5 8.5z"/>
<glyph glyph-name="uni0494" horiz-adv-x="1183" unicode="Ҕ" d="M380 671q81 87 171 133t181 46q82 0 147 -28t110 -86t69 -148.5t24 -214.5q0 -171 -42.5 -307.5t-119 -232t-182 -146.5t-231.5 -51q-47 0 -96 8t-91 27l17 99q4 17 17 28t34 11q17 0 42 -8t69 -8q84 0 155 36.5t123 109t81 180t29 248.5q0 91 -14 154t-41.5 102.5 t-68 57.5t-93.5 18q-45 0 -89 -17t-84.5 -47t-76.5 -71t-64 -89l-58 -475h-206l176 1436h804l-20 -162h-598z"/>
<glyph glyph-name="uni0495" horiz-adv-x="915" unicode="ҕ" d="M368 -226q55 0 101 27t78.5 82t50.5 138.5t18 196.5q0 63 -9.5 107t-28 71.5t-45 39.5t-60.5 12q-51 0 -103.5 -36.5t-89.5 -96.5l-39 -315h-188l124 1016h618l-17 -144h-430l-50 -406q54 57 113 91t125 34q68 0 118.5 -26t84.5 -73.5t50.5 -115t16.5 -150.5 q0 -136 -31 -245.5t-86.5 -186t-131.5 -118t-167 -41.5q-44 0 -86 9.5t-78 26.5l25 79q4 16 15 26t30 10q11 0 29.5 -6t42.5 -6z"/>
<glyph glyph-name="uni0496" horiz-adv-x="2049" unicode="Җ" d="M1774 161h219l-55 -448q-3 -27 -23.5 -44t-49.5 -17h-122l42 348h-70q-45 0 -75 20t-44 53l-250 502q-20 42 -48.5 60.5t-76.5 18.5h-149l-80 -654h-193l80 654h-147q-48 0 -81.5 -18.5t-63.5 -60.5l-371 -502q-24 -33 -58.5 -53t-79.5 -20h-137l450 620q37 54 77.5 85.5 t89.5 46.5q-39 15 -64 43t-47 70l-297 571h161q32 0 57 -16t38 -44l247 -492q22 -44 51 -58t69 -14h126l76 624h193l-76 -624h126q40 0 72.5 14t65.5 58l368 492q20 28 48.5 44t60.5 16h162l-438 -571q-32 -42 -64 -69.5t-74 -43.5q45 -15 78 -46.5t57 -85.5z"/>
<glyph glyph-name="uni0497" horiz-adv-x="1745" unicode="җ" d="M934 422q45 85 97 163.5t108 146t113.5 122.5t111.5 94t103.5 60.5t90.5 21.5q46 0 89.5 -15.5t86.5 -52.5l-47 -81q-10 -18 -21 -24.5t-22 -6.5q-9 0 -18.5 3t-20.5 7.5t-25 8t-31 3.5q-44 0 -87.5 -36.5t-77.5 -102.5t-55 -158t-21 -204q0 -65 7 -109t21 -71t35 -39 t49 -12q23 0 42 7.5t34.5 16.5t27.5 16.5t21 7.5q11 1 21 -2.5t17 -15.5l43 -84l-91 -376q-4 -27 -21 -42.5t-41 -15.5h-116l92 342q-20 -5 -37.5 -6.5t-34.5 -1.5q-54 0 -97 19t-74 57.5t-47.5 97t-16.5 136.5q0 96 17 183t49 165q-45 -54 -90.5 -119.5t-87 -140t-76 -155 t-57.5 -163.5l-7 -67h-164l61 597q-67 -128 -150.5 -239.5t-168.5 -194t-165 -129.5t-141 -47q-47 0 -90 15.5t-86 52.5l47 82q10 18 21 24t22 7q9 0 18.5 -3t20.5 -7.5t25 -8t31 -3.5q44 0 87.5 36.5t77.5 102.5t55 158t21 204q0 64 -7 108t-21.5 71.5t-35.5 39.5t-49 12 q-23 0 -42 -7.5t-34 -16.5t-27 -16.5t-21 -8.5q-11 0 -21 3.5t-17 14.5l-43 84q29 28 61.5 47t65 31t64 17t58.5 5q54 0 97 -19t74 -57.5t47.5 -97t16.5 -136.5q0 -95 -17 -182t-49 -164q45 54 91 121t87.5 142t76 157t57.5 166l6 57h165z"/>
<glyph glyph-name="uni0498" horiz-adv-x="1077" unicode="Ҙ" d="M175 1302q85 71 191 109.5t233 38.5q97 0 173 -24.5t128.5 -68.5t80.5 -104t28 -132q0 -121 -60.5 -215t-169.5 -145q85 -44 136 -118t51 -168q0 -89 -31 -170t-88.5 -145.5t-141 -108t-188.5 -58.5q42 -23 63.5 -59t21.5 -78t-15.5 -79t-43 -64t-66.5 -43t-86 -16 q-48 0 -90 14.5t-68 37.5l38 69q7 14 20 14q5 0 10 -3.5t13 -7.5t20 -7.5t32 -3.5q50 0 78.5 37t28.5 94q0 28 -11 52t-39 36h-3q-141 0 -252 51t-183 137l72 98q9 11 22 19t28 8q14 0 29.5 -10.5t35 -26.5t44.5 -34t58 -34t75.5 -26.5t97.5 -10.5q76 0 136.5 21t102.5 60 t64 95t22 126q0 48 -17 88.5t-49.5 69t-79.5 44t-106 15.5h-183l20 169h172q62 0 114.5 16.5t90.5 48t59 77t21 104.5q0 42 -15.5 77t-45.5 60t-73.5 39t-100.5 14q-72 0 -125 -17t-91 -37.5t-63.5 -37.5t-43.5 -17q-15 0 -24.5 8t-17.5 24z"/>
<glyph glyph-name="uni0499" horiz-adv-x="871" unicode="ҙ" d="M213 -211q5 0 10 -3.5t13 -7.5t20 -7.5t32 -3.5q50 0 78.5 37t28.5 94q0 29 -11.5 53t-40.5 36q-6 -1 -11.5 -1h-11.5q-100 0 -184.5 31.5t-153.5 95.5l49 80q6 10 16.5 18t23.5 8q19 0 39 -13.5t48.5 -30t69 -30t101.5 -13.5q60 0 106.5 16t79 44t49 66t16.5 82 q0 74 -49 107t-138 33q-30 0 -69 -5t-74 -10q0 38 3 73t17 72q27 -4 53.5 -6.5t54.5 -2.5h8q56 0 99.5 13.5t73 36t44 52t14.5 60.5q0 25 -9 47.5t-29.5 39t-53 26t-78.5 9.5q-61 0 -103.5 -13t-71.5 -29t-48 -29.5t-33 -14.5q-13 -2 -21.5 2t-19.5 21l-40 67q29 30 69 56.5 t88.5 45.5t103.5 30t113 11q80 0 138.5 -20t96 -52.5t55.5 -74.5t18 -86q0 -36 -12 -73t-38 -70.5t-68.5 -60.5t-103.5 -43q92 -18 140 -75t48 -142q0 -55 -20.5 -109t-61 -100t-102 -80.5t-142.5 -49.5q45 -23 68.5 -59t23.5 -81q0 -42 -15.5 -79t-43 -64t-66.5 -43 t-86 -16q-48 0 -90 14.5t-68 37.5l38 69q7 14 20 14z"/>
<glyph glyph-name="uni049A" horiz-adv-x="1337" unicode="Қ" d="M1094 161h179l-54 -448q-4 -27 -24 -44t-49 -17h-123l43 348h-77q-30 0 -49 16t-33 48l-259 519q-9 20 -19.5 33.5t-24 22t-31.5 12t-42 3.5h-154l-80 -654h-205l176 1436h205l-76 -624h132q40 0 70 13.5t62 54.5l385 499q19 25 43 41t53 16h174l-456 -588 q-27 -36 -59.5 -59t-70.5 -36q50 -14 81 -46t57 -88z"/>
<glyph glyph-name="uni049B" horiz-adv-x="1061" unicode="қ" d="M638 842q33 47 58 80.5t50.5 54.5t57 31t76.5 10h83l-20 -102q-5 -23 -17.5 -30t-30 -11.5t-38 -14.5t-40.5 -38l-140 -185q-30 -42 -58.5 -64.5t-73.5 -33.5q59 -11 95.5 -42.5t60.5 -90.5l116 -263h177l-105 -433q-6 -26 -21.5 -42t-39.5 -16h-117l94 348h-36 q-50 0 -75 17t-41 49l-139 309q-15 39 -46 64t-71 25l-102 -19l-54 -445h-187l123 1016h188l-54 -443l79 17q19 4 34 8.5t27 12t22.5 18t22.5 25.5z"/>
<glyph glyph-name="uni049C" horiz-adv-x="1330" unicode="Ҝ" d="M946 848q-26 -36 -56.5 -59t-65.5 -36q51 -14 82.5 -45.5t54.5 -88.5l269 -619h-185q-59 0 -82 64l-222 519q-15 38 -38 53.5t-63 17.5l-33 -268h-145l33 268h-118l-80 -654h-205l176 1436h205l-76 -624h117l38 306h145l-37 -304q28 4 52 18.5t47 47.5l348 498 q18 26 42.5 42t54.5 16h168z"/>
<glyph glyph-name="uni049D" horiz-adv-x="1079" unicode="ҝ" d="M1067 1018l-20 -102q-5 -23 -17.5 -30t-30 -11.5t-38 -14.5t-40.5 -38l-140 -185q-30 -42 -58.5 -64.5t-73.5 -33.5q59 -11 96 -42.5t60 -90.5l180 -406h-112q-50 0 -75 17t-41 49l-139 309q-14 37 -43 63.5t-63 26.5h-3l-34 -274h-116l32 258l-97 -13l-53 -436h-187 l123 1016h188l-55 -454l96 12l30 242h116l-28 -227q26 7 45 20t37 37l136 196q25 44 49 77t51.5 55t62 33t79.5 11h83z"/>
<glyph glyph-name="uni049E" horiz-adv-x="1417" unicode="Ҟ" d="M1015 848q-27 -36 -59.5 -59t-70.5 -36q50 -14 81 -46t57 -88l306 -619h-185q-30 0 -49 16t-33 48l-259 519q-9 20 -19.5 33.5t-24 22t-31.5 12t-42 3.5h-154l-80 -654h-205l131 1066h-309l19 155h309l26 215h205l-26 -215h165l-19 -155h-165l-31 -254h132q40 0 70 13.5 t62 54.5l385 499q19 25 43 41t53 16h174z"/>
<glyph glyph-name="uni049F" horiz-adv-x="1073" unicode="ҟ" d="M1059 1018l-20 -102q-5 -23 -17.5 -30t-29.5 -11.5t-37.5 -14.5t-40.5 -38l-140 -185q-30 -42 -58.5 -64.5t-73.5 -33.5q59 -11 96 -42.5t60 -90.5l179 -406h-111q-50 0 -75 17t-41 49l-139 309q-15 39 -46.5 64t-71.5 25l-119 -22l-54 -442h-188l94 771h-163l17 137h163 l13 108h188l-13 -108h158l-17 -137h-158l-24 -201l97 20q19 4 34 8.5t27 12t22.5 18t21.5 25.5l143 188q33 47 58 80.5t50.5 54.5t56.5 31t77 10h82z"/>
<glyph glyph-name="uni04A0" horiz-adv-x="1503" unicode="Ҡ" d="M1101 848q-27 -36 -59.5 -59t-70.5 -36q50 -14 81 -46t57 -88l306 -619h-185q-30 0 -49 16t-33 48l-259 519q-9 20 -19.5 33.5t-24 22t-31.5 12t-42 3.5h-154l-80 -654h-205l156 1269h-379l21 167h583l-76 -624h132q40 0 70 13.5t62 54.5l385 499q19 25 43 41t53 16h174z "/>
<glyph glyph-name="uni04A1" horiz-adv-x="1164" unicode="ҡ" d="M1152 1018l-20 -102q-5 -23 -17.5 -30t-30 -11.5t-38 -14.5t-40.5 -38l-140 -185q-30 -42 -58.5 -64.5t-73.5 -33.5q59 -11 95.5 -42.5t60.5 -90.5l180 -406h-112q-50 0 -75 17t-41 49l-139 309q-15 39 -46 64t-71 25l-102 -19l-54 -445h-187l105 870h-295l18 146h483 l-54 -443l79 17q19 4 34 8.5t27 12t22.5 18t22.5 25.5l142 188q33 47 58 80.5t50.5 54.5t57 31t76.5 10h83z"/>
<glyph glyph-name="uni04A2" horiz-adv-x="1502" unicode="Ң" d="M1398 161l-55 -448q-4 -27 -24 -44t-49 -17h-122l43 348h-216l80 650h-677l-80 -650h-206l176 1436h206l-78 -637h677l78 637h206l-156 -1275h197z"/>
<glyph glyph-name="uni04A3" horiz-adv-x="1118" unicode="ң" d="M1035 143l-105 -433q-4 -27 -21 -42.5t-41 -15.5h-116l94 348h-188l58 470h-417l-58 -470h-188l124 1016h189l-49 -402h417l49 402h189l-108 -873h171z"/>
<glyph glyph-name="uni04A4" horiz-adv-x="1892" unicode="Ҥ" d="M1955 1436l-19 -162h-599l-156 -1274h-206l80 650h-677l-80 -650h-206l176 1436h206l-78 -637h677l78 637h804z"/>
<glyph glyph-name="uni04A5" horiz-adv-x="1377" unicode="ҥ" d="M1383 872h-429l-108 -872h-188l58 470h-417l-58 -470h-188l124 1016h189l-49 -402h417l31 258l18 144h617z"/>
<glyph glyph-name="uni04A6" horiz-adv-x="2010" unicode="Ҧ" d="M1214 672q81 86 170 132t180 46q82 0 147 -28t110.5 -86t69.5 -148.5t24 -214.5q0 -171 -43 -307.5t-119.5 -232t-182 -146.5t-231.5 -51q-47 0 -95.5 8t-91.5 27l18 99q4 17 16.5 28t34.5 11q16 0 41.5 -8t69.5 -8q84 0 155 36.5t123 109t81 180t29 248.5q0 91 -14 154 t-41.5 102.5t-68 57.5t-94.5 18q-44 0 -88 -17t-84.5 -46.5t-76 -70.5t-63.5 -89l-59 -476h-206l156 1274h-627l-156 -1274h-206l176 1436h1040z"/>
<glyph glyph-name="uni04A7" horiz-adv-x="1512" unicode="ҧ" d="M904 465q54 57 113.5 91.5t125.5 34.5q67 0 118 -26t84.5 -73.5t50.5 -115t17 -150.5q0 -136 -31 -245.5t-86.5 -186t-132 -118t-167.5 -41.5q-43 0 -85.5 9.5t-77.5 26.5l24 79q5 16 16 26t30 10q11 0 29 -6t43 -6q55 0 101 27t78 82t50 138.5t18 196.5q0 63 -9.5 107 t-27.5 71.5t-45 39.5t-61 12q-26 0 -52.5 -10t-52 -28t-48.5 -43t-41 -55l-39 -312h-188l107 872h-417l-107 -872h-188l124 1016h795z"/>
<glyph glyph-name="uni04A8" horiz-adv-x="1534" unicode="Ҩ" d="M1440 19q-54 -17 -115 -25t-121 -8t-125.5 16.5t-127.5 54.5q-73 -35 -152 -54t-161 -19q-125 0 -225.5 46.5t-171 129.5t-108.5 198.5t-38 252.5q0 184 54 338t154.5 265.5t242.5 173.5t319 62q28 0 53.5 -2t50 -6t49.5 -10.5t54 -15.5l-21 -78q-8 -32 -28 -56t-44 -24 q-14 0 -28 2.5t-32 5t-42 5t-57 2.5q-109 0 -203 -45t-163 -129t-108.5 -205t-39.5 -273q0 -107 26.5 -192.5t76 -145t119 -91.5t156.5 -32q71 0 136 17q-51 69 -82 165.5t-31 227.5q0 138 26.5 244.5t76.5 179.5t121.5 110.5t161.5 37.5q72 0 124.5 -29t86 -79t49.5 -117.5 t16 -143.5q0 -97 -18.5 -184t-52 -163.5t-80.5 -141.5t-104 -116q33 -12 63.5 -16.5t55.5 -4.5q54 0 89.5 7.5t60.5 7.5q24 0 40 -16.5t16 -48.5zM888 576q0 -116 26.5 -193t67.5 -125q100 79 152.5 211t52.5 299q0 41 -6.5 80.5t-20 70t-34.5 49.5t-51 19q-39 0 -73 -25.5 t-59.5 -76.5t-40 -128.5t-14.5 -180.5z"/>
<glyph glyph-name="uni04A9" horiz-adv-x="1146" unicode="ҩ" d="M682 932q-8 -32 -23.5 -41.5t-39.5 -9.5q-11 2 -24 3t-26 1q-78 0 -137 -33t-98.5 -92.5t-60 -142t-20.5 -181.5q0 -72 16.5 -129.5t48.5 -98t78.5 -62t106.5 -21.5q33 0 65 6q-49 59 -76 136.5t-27 170.5q0 95 24 168.5t67 124t102.5 76.5t130.5 26q61 0 109.5 -23.5 t80.5 -65t44.5 -90t12.5 -94.5q0 -16 -1 -32q-8 -116 -64 -216t-144 -175q20 -6 40.5 -9.5t43.5 -3.5t38 3t29 5q31 0 43.5 -12t13.5 -43l1 -73q-28 -9 -63.5 -14t-73.5 -5q-63 0 -119 14.5t-104 41.5q-57 -26 -117 -40.5t-120 -14.5q-82 0 -151.5 30t-120.5 87t-79.5 139 t-28.5 186q0 129 35 239.5t101.5 191.5t162 127t216.5 46q34 0 66 -5t63 -16zM643 446q0 -73 21 -134.5t59 -104.5q66 57 101.5 144t35.5 187q0 62 -22.5 103t-65.5 41q-31 0 -55 -17t-40.5 -47.5t-25 -74t-8.5 -97.5z"/>
<glyph glyph-name="uni04AA" horiz-adv-x="1247" unicode="Ҫ" d="M646 -16q-130 0 -232.5 46.5t-173.5 129t-108.5 197t-37.5 251.5q0 124 26.5 235t75.5 205t117.5 169t152.5 127t181 80t203 28q77 0 140 -13.5t114 -38.5t93 -60.5t77 -79.5l-70 -85q-9 -11 -19.5 -18t-27.5 -7q-19 0 -39 19.5t-53.5 42.5t-86.5 42.5t-138 19.5 q-113 0 -211 -45.5t-170 -130t-113.5 -204.5t-41.5 -269q0 -108 28 -194t78 -146t119 -92t151 -32q65 0 114.5 10.5t87 26.5t64.5 34t46.5 34t33.5 26.5t26 10.5q10 0 16.5 -3.5t10.5 -8.5l72 -90q-79 -87 -178.5 -141t-225.5 -70q39 -23 60 -57.5t21 -76.5t-15.5 -79 t-43 -64t-66.5 -43t-86 -16q-48 0 -90 14.5t-68 37.5l38 69q7 14 20 14q5 0 10 -3.5t13 -7.5t20 -7.5t32 -3.5q50 0 78.5 37t28.5 94q0 27 -10 50t-36 36h-7z"/>
<glyph glyph-name="uni04AB" horiz-adv-x="908" unicode="ҫ" d="M808 816q-8 -8 -17.5 -14t-20.5 -6q-14 0 -28 12t-35 26.5t-52.5 26.5t-80.5 12q-66 0 -125 -35.5t-103 -98.5t-70 -149t-26 -187q0 -60 14 -109t40.5 -83t66 -52.5t90.5 -18.5q43 0 76.5 9t59 22t45.5 29t36 29t30 22t28 9q20 0 36 -18l49 -60q-37 -41 -71.5 -72 t-68.5 -53.5t-68 -36.5t-71 -22q45 -23 69.5 -60t24.5 -82q0 -42 -15.5 -79t-43 -64t-66.5 -43t-86 -16q-48 0 -90 14.5t-68 37.5l38 69q7 14 20 14q5 0 10 -3.5t13 -7.5t20 -7.5t32 -3.5q50 0 78.5 37t28.5 94q0 29 -11.5 53t-40.5 36q-8 -1 -17 -1h-18q-88 0 -156.5 30 t-115 85t-70.5 132t-24 171q0 82 17.5 160.5t50.5 148t80 128t105 101t126.5 66t145.5 23.5q101 0 169.5 -36t120.5 -105z"/>
<glyph glyph-name="uni04AC" horiz-adv-x="1105" unicode="Ҭ" d="M732 1264l-136 -1103h190l-55 -448q-3 -27 -23.5 -44t-49.5 -17h-123l43 348h-206l154 1264h-417l20 172h1040l-22 -172h-415z"/>
<glyph glyph-name="uni04AD" horiz-adv-x="1651" unicode="ҭ" d="M1573 143l-105 -433q-4 -27 -21 -42.5t-41 -15.5h-116l94 348h-191l76 647q6 46 6 82q0 54 -17 97t-87 43q-42 0 -83 -21.5t-79 -62.5t-71 -101.5t-58 -138.5l-65 -545h-192l76 647q7 53 7 93q0 3 -0.5 25.5t-11 49.5t-32 40.5t-56.5 13.5q-46 0 -88.5 -23.5t-80 -67 t-70 -106.5t-58.5 -142l-64 -530h-191l123 1018h98q32 0 49 -16t17 -50l-12 -162q73 120 160.5 180.5t183.5 60.5q101 0 151 -68t52 -197q75 137 168 201t197 64q131 0 179 -84.5t48 -198.5q0 -47 -7 -101l-59 -504h171z"/>
<glyph glyph-name="uni04AE" horiz-adv-x="1177" unicode="Ү" d="M687 570l-71 -570h-205l71 568l-378 868h182q27 0 42 -13t23 -35l224 -554q11 -31 18.5 -59.5t13.5 -56.5q13 28 28.5 56t33.5 60l363 554q11 18 29.5 33t44.5 15h170z"/>
<glyph glyph-name="uni04AF" horiz-adv-x="961" unicode="ү" d="M508 65l-50 -406h-189l50 407l-252 950h151q22 0 34.5 -12t17.5 -27l142 -593q8 -35 13.5 -69.5t8.5 -69.5q11 35 25 69.5t32 69.5l291 593q8 16 23.5 27.5t35.5 11.5h152z"/>
<glyph glyph-name="uni04B0" horiz-adv-x="1214" unicode="Ұ" d="M702 542h283l-19 -155h-283l-48 -387h-204l47 387h-283l19 155h283l10 86l-384 808h180q27 0 41 -14t24 -34l216 -510q15 -32 26 -59t19 -53q13 26 30 53t40 59l340 510q12 17 30.5 32.5t44.5 15.5h181l-583 -810z"/>
<glyph glyph-name="uni04B1" horiz-adv-x="965" unicode="ұ" d="M501 -16h208l-16 -136h-209l-23 -189h-189l23 189h-194l16 136h195l10 82l-252 950h151q22 0 34.5 -12t17.5 -27l142 -593q8 -35 13.5 -69.5t8.5 -69.5q11 35 25 69.5t32 69.5l291 593q8 16 23.5 27.5t35.5 11.5h152l-485 -951z"/>
<glyph glyph-name="uni04B2" horiz-adv-x="1303" unicode="Ҳ" d="M1074 161h165l-55 -448q-3 -27 -23 -44t-49 -17h-123l43 348h-64q-22 0 -33.5 12t-18.5 26l-281 615q-9 -17 -19 -32l-417 -583q-14 -20 -30.5 -29t-36.5 -9h-204l566 767l-333 669h185q22 0 31.5 -6.5t17.5 -22.5l247 -530q5 10 10.5 19.5t12.5 20.5l349 489 q21 30 50 30h213l-499 -660z"/>
<glyph glyph-name="uni04B3" horiz-adv-x="1054" unicode="ҳ" d="M991 143l-105 -433q-3 -27 -20.5 -42.5t-41.5 -15.5h-116l95 348h-124q-21 0 -33 10.5t-19 27.5l-182 395q-5 -12 -10.5 -22.5t-11.5 -19.5l-264 -354q-11 -14 -24 -25.5t-33 -11.5h-170l409 548l-242 468h175q21 0 30.5 -6t16.5 -20l162 -338q5 11 11.5 22.5t14.5 22.5 l217 289q17 30 45 30h177l-362 -469l198 -404h207z"/>
<glyph glyph-name="uni04B4" horiz-adv-x="1692" unicode="Ҵ" d="M1588 161l-56 -448q-3 -27 -23.5 -44t-49.5 -17h-122l43 348h-1049l156 1269h-378l21 167h961l-20 -167h-378l-136 -1108h627l156 1275h207l-156 -1275h197z"/>
<glyph glyph-name="uni04B5" horiz-adv-x="1329" unicode="ҵ" d="M1247 143l-105 -433q-4 -27 -21 -42.5t-41 -15.5h-116l94 348h-97q-71 0 -71 70l13 166q-80 -124 -178.5 -187t-202.5 -63q-64 0 -113.5 25.5t-80.5 74.5t-39.5 102t-8.5 93q0 42 6 89l59 500h-293l17 146h725l-18 -146h-236l-60 -500q-5 -38 -5 -70q0 -62 23 -107 t97 -45q45 0 92 24t90.5 68.5t81 107.5t64.5 141l63 527h195l-106 -873h172z"/>
<glyph glyph-name="uni04B6" horiz-adv-x="1312" unicode="Ҷ" d="M1206 161l-55 -448q-4 -27 -24 -44t-49 -17h-123l43 348h-207l76 613q-110 -30 -206 -46t-175 -16q-9 0 -57 1t-117 24t-114 72t-60 111t-15 118q0 41 6 89l57 470h207l-58 -471q-4 -31 -4 -58q0 -57 21.5 -107.5t78.5 -71.5t126 -21q28 0 99 6.5t229 48.5l83 674h205 l-156 -1275h189z"/>
<glyph glyph-name="uni04B7" horiz-adv-x="1033" unicode="ҷ" d="M952 143l-105 -433q-4 -27 -21 -42.5t-41 -15.5h-116l95 348h-194l56 465q-63 -75 -144.5 -117.5t-178.5 -42.5q-66 0 -113.5 24.5t-76 69t-35.5 91.5t-7 82q0 33 4 69l46 375h195l-46 -375q-3 -21 -3 -40q0 -15 3 -38t16.5 -46t38 -36t60.5 -13q42 0 82 14.5t74.5 41.5 t62.5 66t47 87l41 339h195l-105 -873h170z"/>
<glyph glyph-name="uni04B8" horiz-adv-x="1238" unicode="Ҹ" d="M1172 1436l-176 -1436h-206l76 613q-54 -15 -105 -26.5t-101 -19.5l-33 -272h-146l32 256h-26q-82 0 -154 18t-124 66.5t-69.5 113t-17.5 126.5q0 42 6 91l57 470h207l-58 -471q-4 -31 -4 -59q0 -82 41.5 -137t160.5 -61l39 319h146l-38 -310q89 13 205 45l83 674h205z "/>
<glyph glyph-name="uni04B9" horiz-adv-x="966" unicode="ҹ" d="M887 1016l-122 -1016h-195l56 465q-34 -40 -73.5 -71.5t-84.5 -52.5l-18 -150h-98l15 119q-16 -2 -31.5 -3.5t-32.5 -1.5q-66 0 -113.5 24.5t-76 69t-35.5 91.5t-7 82q0 33 4 69l46 375h195l-46 -375q-3 -21 -3 -40q0 -15 3 -38t16.5 -46t38 -36t60.5 -13h1l43 348h97 l-40 -325q54 24 96.5 71.5t68.5 114.5l41 339h195z"/>
<glyph glyph-name="uni04BA" horiz-adv-x="1190" unicode="Һ" d="M399 823q109 30 201.5 45.5t167.5 15.5q9 0 54.5 -1t109.5 -24t105 -72t53.5 -109t12.5 -112q0 -45 -7 -97l-58 -469h-206l57 470q5 37 5 69q0 51 -16 99.5t-67 69.5t-115 21q-26 0 -92.5 -6.5t-222.5 -48.5l-83 -674h-206l176 1436h206z"/>
<glyph glyph-name="uni04BB" horiz-adv-x="963" unicode="һ" d="M311 570q67 107 144 154.5t171 47.5q65 0 114 -25.5t80 -75t39 -102.5t8 -93q0 -42 -6 -89l-48 -387h-195l48 387q5 41 5 74q0 59 -20.5 103.5t-97.5 44.5q-81 0 -149 -76t-118 -231l-37 -302h-195l123 1016h97q71 0 71 -69z"/>
<glyph glyph-name="uni04BC" horiz-adv-x="1556" unicode="Ҽ" d="M214 943q21 -4 29 -16.5t8 -23.5q0 -8 -4 -19t-9 -25.5t-9 -31.5t-4 -37q0 -45 25 -65.5t73 -22.5q8 109 38.5 206.5t79.5 181t115 150.5t145.5 113.5t171 72t191.5 25.5q111 0 196.5 -29.5t144 -80t89 -117.5t30.5 -141q0 -63 -15.5 -122.5t-55.5 -113.5t-110.5 -101 t-180.5 -84t-265 -62.5t-364 -36.5q15 -201 112.5 -298.5t262.5 -97.5q88 0 154.5 22t116 49t85 49t61.5 22q16 0 28 -6.5t18 -17.5l53 -78q-59 -60 -125.5 -102.5t-137 -69t-144 -38.5t-146.5 -12q-115 0 -211.5 38t-168.5 111t-116 179.5t-53 242.5h-2q-53 0 -101.5 9.5 t-85.5 33.5t-59 64.5t-22 102.5q0 46 12.5 91.5t44.5 106.5zM1050 1279q-106 0 -196 -41t-158 -116t-110.5 -180.5t-51.5 -235.5q237 15 390.5 47.5t242.5 79.5t124 107t35 130q0 42 -17.5 80t-52.5 66.5t-86.5 45.5t-119.5 17z"/>
<glyph glyph-name="uni04BD" horiz-adv-x="1187" unicode="ҽ" d="M166 816q20 -5 26.5 -16t6.5 -22q0 -8 -4 -19.5t-9 -25.5t-9 -32t-4 -39q0 -48 31 -73.5t88 -27.5q21 95 66 180.5t110.5 149.5t150.5 101.5t186 37.5q78 0 135 -22t94.5 -56.5t55.5 -76.5t18 -82q0 -66 -27 -121.5t-98.5 -100t-196.5 -77.5t-321 -53q-1 -9 -1 -18v-18 q0 -131 56.5 -198t171.5 -67q47 0 83.5 9.5t65 23.5t50.5 30.5t40.5 30.5t34.5 23.5t33 9.5q11 0 20 -5.5t17 -13.5l48 -60q-52 -53 -101 -91t-100.5 -63t-107.5 -36.5t-121 -11.5q-88 0 -158 29.5t-119.5 83.5t-76 130.5t-26.5 171.5v19.5t1 19.5q-51 2 -94 13.5 t-74.5 34.5t-49 58.5t-17.5 86.5q0 25 3 47.5t9.5 46t17.5 49t27 55.5zM794 891q-60 0 -110 -24.5t-90 -68t-68 -102.5t-44 -128q147 19 236 42.5t136.5 51t63 58.5t15.5 66q0 17 -7.5 35.5t-24 34t-43 25.5t-64.5 10z"/>
<glyph glyph-name="uni04BE" horiz-adv-x="1556" unicode="Ҿ" d="M214 943q21 -4 29 -16.5t8 -23.5q0 -8 -4 -19t-9 -25.5t-9 -31.5t-4 -37q0 -45 25 -65.5t73 -22.5q8 109 38.5 206.5t79.5 181t115 150.5t145.5 113.5t171 72t191.5 25.5q111 0 196.5 -29.5t144 -80t89 -117.5t30.5 -141q0 -63 -15.5 -122.5t-55.5 -113.5t-110.5 -101 t-180.5 -84t-265 -62.5t-364 -36.5q15 -201 112.5 -298.5t262.5 -97.5q88 0 154.5 22t116 49t85 49t61.5 22q16 0 28 -6.5t18 -17.5l53 -78q-49 -50 -103 -87.5t-112 -64t-118 -42.5t-121 -23l-40 -331h-189l40 332q-97 14 -178 58t-140.5 116t-96 170t-44.5 221h-2 q-53 0 -101.5 9.5t-85.5 33.5t-59 64.5t-22 102.5q0 46 12.5 91.5t44.5 106.5zM1050 1279q-106 0 -196 -41t-158 -116t-110.5 -180.5t-51.5 -235.5q237 15 390.5 47.5t242.5 79.5t124 107t35 130q0 42 -17.5 80t-52.5 66.5t-86.5 45.5t-119.5 17z"/>
<glyph glyph-name="uni04BF" horiz-adv-x="1188" unicode="ҿ" d="M166 816q20 -5 26.5 -16t6.5 -22q0 -8 -4 -19.5t-9 -25.5t-9 -32t-4 -39q0 -48 31 -73.5t88 -27.5q21 95 66 180.5t110.5 149.5t150.5 101.5t186 37.5q78 0 135 -22t94.5 -56.5t55.5 -76.5t18 -82q0 -66 -27 -121.5t-98.5 -100t-196.5 -77.5t-321 -53q-1 -9 -1 -18v-18 q0 -131 56.5 -198t171.5 -67q47 0 83.5 9.5t65 23.5t50.5 30.5t40.5 30.5t34.5 23.5t33 9.5q11 0 20 -5.5t17 -13.5l48 -60q-44 -45 -85.5 -79t-84 -58t-87.5 -39t-95 -21l-35 -281q-3 -27 -20 -42.5t-41 -15.5h-116l42 343q-68 14 -121 48.5t-90.5 87t-57 120.5t-19.5 150 v19.5t1 19.5q-51 2 -94 13.5t-74.5 34.5t-49 58.5t-17.5 86.5q0 25 3 47.5t9.5 46t17.5 49t27 55.5zM794 891q-60 0 -110 -24.5t-90 -68t-68 -102.5t-44 -128q147 19 236 42.5t136.5 51t63 58.5t15.5 66q0 17 -7.5 35.5t-24 34t-43 25.5t-64.5 10z"/>
<glyph glyph-name="uni04C0" horiz-adv-x="541" unicode="Ӏ" d="M299 0h-206l175 1436h207z"/>
<glyph glyph-name="uni04C1" horiz-adv-x="1941" unicode="Ӂ" d="M1557 865q-32 -42 -64 -69.5t-74 -43.5q45 -15 78 -46.5t57 -85.5l297 -620h-136q-45 0 -75 20t-44 53l-250 502q-20 42 -48.5 60.5t-76.5 18.5h-149l-80 -654h-193l80 654h-147q-48 0 -81.5 -18.5t-63.5 -60.5l-371 -502q-24 -33 -58.5 -53t-79.5 -20h-137l450 620 q37 54 77.5 85.5t89.5 46.5q-39 15 -64 43t-47 70l-297 571h161q32 0 57 -16t38 -44l247 -492q22 -44 51 -58t69 -14h126l76 624h193l-76 -624h126q40 0 72.5 14t65.5 58l368 492q20 28 48.5 44t60.5 16h162zM1093 1629q37 0 63.5 8.5t44 28t28 51t15.5 78.5h105 q19 0 27 -18q6 -14 6 -31v-9q-6 -50 -29.5 -88.5t-62.5 -65t-91.5 -40.5t-116.5 -14q-129 0 -196 54q-57 46 -57 125q0 14 2 29q2 22 13 40t31 18h105q-3 -29 -3 -53q0 -14 1 -26q3 -32 16.5 -51t37.5 -27.5t61 -8.5z"/>
<glyph glyph-name="uni04C2" horiz-adv-x="1745" unicode="ӂ" d="M934 422q45 85 97 163.5t108 146t113.5 122.5t111.5 94t103.5 60.5t90.5 21.5q46 0 89.5 -15.5t86.5 -52.5l-47 -81q-10 -18 -21 -24.5t-22 -6.5q-9 0 -18.5 3t-20.5 7.5t-25 8t-31 3.5q-44 0 -87.5 -36.5t-77.5 -102.5t-55 -158t-21 -204q0 -65 7 -109t21 -71t35 -39 t49 -12q23 0 42 7.5t34.5 16.5t27.5 16.5t21 7.5q11 1 21 -2.5t17 -15.5l43 -84q-29 -28 -61.5 -47t-65 -31t-64 -17t-58.5 -5q-54 0 -97 19t-74 57.5t-47.5 97t-16.5 136.5q0 96 17 183t49 165q-45 -54 -90.5 -119.5t-87 -140t-76 -155t-57.5 -163.5l-7 -67h-164l61 597 q-67 -128 -150.5 -239.5t-168.5 -194t-165 -129.5t-141 -47q-47 0 -90 15.5t-86 52.5l47 82q10 18 21 24t22 7q9 0 18.5 -3t20.5 -7.5t25 -8t31 -3.5q44 0 87.5 36.5t77.5 102.5t55 158t21 204q0 64 -7 108t-21.5 71.5t-35.5 39.5t-49 12q-23 0 -42 -7.5t-34 -16.5 t-27 -16.5t-21 -8.5q-11 0 -21 3.5t-17 14.5l-43 84q29 28 61.5 47t65 31t64 17t58.5 5q54 0 97 -19t74 -57.5t47.5 -97t16.5 -136.5q0 -95 -17 -182t-49 -164q45 54 91 121t87.5 142t76 157t57.5 166l6 57h165zM939 1266q37 0 63.5 9t44 29t28 52.5t16.5 79.5h105 q19 0 27 -18q6 -14 5 -31v-9q-6 -50 -29.5 -90t-62.5 -68.5t-92 -44t-117 -15.5t-113.5 15.5t-81.5 44.5q-33 28 -47 68q-11 30 -10 65q0 12 1 25q3 22 15 40t30 18h106q-3 -29 -3 -53q0 -15 1 -27q3 -32 16 -52t37 -29t61 -9z"/>
<glyph glyph-name="uni04C3" horiz-adv-x="1317" unicode="Ӄ" d="M860 848q-29 -39 -68 -64q78 -8 150 -33t127.5 -75.5t88.5 -132t33 -201.5q0 -162 -42.5 -291.5t-118.5 -220.5t-182 -140t-233 -49q-93 0 -187 28q6 30 13 61t12 61q5 17 17 28t35 11q16 0 41 -8.5t69 -8.5q83 0 153 31t120.5 94t78.5 158.5t28 224.5q0 105 -30 170 t-79.5 101t-112.5 49t-129 13h-267l-80 -654h-205l176 1436h205l-76 -624h132q40 0 70 13.5t62 54.5l385 498q19 25 43 41.5t53 16.5h174z"/>
<glyph glyph-name="uni04C4" horiz-adv-x="1007" unicode="ӄ" d="M442 -224q55 0 101 29.5t79.5 87t52 141t18.5 191.5q0 63 -17 106t-50 70.5t-82 41t-114 18.5l-35 2l-99 -18l-55 -446h-188l124 1017h189l-55 -443l80 17q19 4 34 8.5t27 12t22.5 18t21.5 25.5l143 188q33 47 58 80.5t50.5 54.5t56.5 31t77 10h82l-20 -102 q-5 -23 -17.5 -30t-29.5 -11.5t-37.5 -14.5t-40.5 -38l-140 -185q-25 -35 -49 -56.5t-56 -33.5q72 -6 129 -29.5t97 -64.5t61.5 -100t21.5 -136q0 -130 -35 -237.5t-95 -184t-139 -118.5t-167 -42q-36 0 -67.5 5.5t-68.5 16.5l17 94q3 17 15 26.5t30 9.5q11 0 28 -5.5 t42 -5.5z"/>
<glyph glyph-name="uni04C5" horiz-adv-x="1429" unicode="Ӆ" d="M1343 161l-204 -509h-201l148 348h-171l156 1274h-406q-46 -276 -93.5 -478.5t-97 -345.5t-100.5 -233.5t-105.5 -141.5t-112 -70t-118.5 -19q-112 0 -106 41l15 130h67q26 0 53 8t55.5 30.5t57.5 63t58.5 106.5t60.5 161t62.5 225t63.5 299.5t65 385.5h807l-156 -1275 h202z"/>
<glyph glyph-name="uni04C6" d="M1077 143l-105 -433q-4 -27 -21 -42.5t-41 -15.5h-117l95 348h-190l106 868h-33q-69 0 -120 -16.5t-89 -55t-65.5 -102.5t-50.5 -159q-36 -156 -76 -261.5t-87.5 -169t-103.5 -91t-125 -27.5q-48 0 -66 8.5t-16 28.5l14 112h32q46 0 79 21t60 69.5t51 127t53 192.5 q32 126 75 215.5t107 146.5t153.5 83t213.5 26h200l-107 -873h174z" unicode="ӆ"/>
<glyph glyph-name="uni04C7" horiz-adv-x="1423" unicode="Ӈ" d="M1357 1436l-162 -1323q-14 -114 -52.5 -202.5t-99.5 -149.5t-144 -93t-186 -32q-91 0 -188 27q7 31 13.5 61.5t13.5 60.5q4 17 16 28t35 11q16 0 41 -8t69 -8q58 0 104.5 16t81 51.5t57 93t32.5 140.5l66 541h-676l-80 -650h-206l176 1436h206l-78 -637h677l78 637h206z "/>
<glyph glyph-name="uni04C8" horiz-adv-x="1050" unicode="ӈ" d="M972 1016l-121 -982q-13 -108 -45.5 -184t-83.5 -124t-120 -69.5t-155 -21.5q-38 0 -69.5 4.5t-68.5 15.5q3 15 6 26t6 21.5t5.5 21.5t5.5 25q4 16 15 26.5t30 10.5q6 0 12.5 -1.5t15 -4t20.5 -4t29 -1.5q38 0 71.5 11t60.5 40.5t46.5 80t29.5 129.5l54 434h-417 l-58 -470h-188l124 1016h189l-49 -402h416l50 402h189z"/>
<glyph glyph-name="uni04C9" horiz-adv-x="1490" unicode="Ӊ" d="M1404 161l-205 -509h-200l147 348h-171l80 650h-677l-80 -650h-206l176 1436h206l-78 -637h677l78 637h206l-156 -1275h203z"/>
<glyph glyph-name="uni04CA" horiz-adv-x="1104" unicode="ӊ" d="M1023 143l-105 -433q-4 -27 -21 -42.5t-41 -15.5h-117l95 348h-196l58 470h-397l-58 -470h-188l124 1016h189l-49 -402h397l49 402h189l-108 -873h179z"/>
<glyph glyph-name="uni04CB" horiz-adv-x="1240" unicode="Ӌ" d="M1173 1436l-176 -1436h-198l-34 -281q-3 -27 -23.5 -43.5t-49.5 -16.5h-122l62 502h179l56 452q-110 -30 -206 -46t-175 -16q-9 0 -57 1t-117 24t-114 72t-60 111t-15 118q0 41 6 89l57 470h207l-58 -471q-4 -31 -4 -58q0 -57 21.5 -107.5t78.5 -71.5t126 -21 q28 0 99 6.5t229 48.5l83 674h205z"/>
<glyph glyph-name="uni04CC" horiz-adv-x="967" unicode="ӌ" d="M571 0l1 6l-7 -6l30 -290q2 -13 -3 -24t-14 -18.5t-20.5 -11.5t-23.5 -4h-97l-40 443h185l45 370q-63 -75 -144.5 -117.5t-178.5 -42.5q-66 0 -113.5 24.5t-76 69t-35.5 91.5t-7 82q0 33 4 69l46 375h195l-46 -375q-3 -21 -3 -40q0 -15 3 -38t16.5 -46t38 -36t60.5 -13 q42 0 82 14.5t74.5 41.5t62.5 66t47 87l41 339h195l-122 -1016h-195z"/>
<glyph glyph-name="uni04CD" horiz-adv-x="1800" unicode="Ӎ" d="M1714 161l-205 -509h-200l147 348h-145l127 1028q3 22 8 48t11 53l-543 -881q-30 -47 -79 -47h-29q-24 0 -42 12t-26 35l-334 882q-1 -27 -2.5 -52.5t-3.5 -46.5l-125 -1031h-181l177 1436h152q27 0 39.5 -6t27.5 -28l335 -881q7 -21 13 -43t11 -45q10 23 21 45t24 43 l548 881q10 11 17.5 17.5t15.5 10.5t17.5 5t23.5 1h154l-157 -1275h203z"/>
<glyph glyph-name="uni04CE" horiz-adv-x="1470" unicode="ӎ" d="M1385 143l-105 -433q-4 -27 -21 -42.5t-41 -15.5h-117l95 348h-175l85 680q3 21 8 46.5t11 51.5l-422 -716q-11 -16 -25.5 -25.5t-33.5 -9.5h-27q-17 0 -30 9.5t-19 25.5l-214 711q-4 -28 -9 -59t-10 -54q-15 -76 -28.5 -148.5t-30 -145.5t-37 -148.5t-47.5 -156.5 q-9 -29 -29 -45t-50 -16h-116q75 238 140.5 491t112.5 528h154q20 0 39.5 -8.5t27.5 -34.5l193 -588q8 -26 14 -50t11 -45q6 17 14 34t18 35l359 614q17 26 37 34.5t40 8.5h165l-107 -876h170z"/>
<glyph glyph-name="uni04CF" horiz-adv-x="541" unicode="ӏ" d="M299 0h-206l175 1436h207z"/>
<glyph glyph-name="uni04D0" horiz-adv-x="1279" unicode="Ӑ" d="M1198 0h-159q-27 0 -42 13.5t-21 35.5l-73 337h-574l-156 -337q-9 -20 -29 -34.5t-46 -14.5h-160l702 1436h208zM870 534l-123 567q-5 29 -12 66.5t-14 81.5q-16 -44 -32 -82t-28 -67l-263 -566h472zM763 1629q37 0 63.5 8.5t44 28t28 51t15.5 78.5h105q19 0 27 -18 q6 -14 6 -31v-9q-6 -50 -29.5 -88.5t-62.5 -65t-91.5 -40.5t-116.5 -14q-129 0 -196 54q-57 46 -57 125q0 14 2 29q2 22 13 40t31 18h105q-3 -29 -3 -53q0 -14 1 -26q3 -32 16.5 -51t37.5 -27.5t61 -8.5z"/>
<glyph glyph-name="uni04D1" horiz-adv-x="1027" unicode="ӑ" d="M677 254q-35 -61 -75.5 -110.5t-86 -84.5t-96 -54t-104.5 -19q-60 0 -109.5 23.5t-85 69t-55 112.5t-19.5 154q0 90 22.5 176.5t64.5 162.5t100.5 140t130.5 110t155.5 71.5t174.5 25.5q66 0 129.5 -10.5t125.5 -36.5l-122 -984h-102q-38 0 -51 19.5t-13 47.5zM745 883 q-39 6 -77 6q-89 0 -167 -41.5t-135.5 -111.5t-91 -162.5t-33.5 -193.5q0 -117 38 -174.5t110 -57.5q47 0 92.5 30.5t86 84t75 126.5t60.5 159zM687 1266q37 0 63.5 9t44 29t28 52.5t16.5 79.5h105q19 0 27 -18q6 -14 5 -31v-9q-6 -50 -29.5 -90t-62.5 -68.5t-92 -44 t-117 -15.5t-113.5 15.5t-81.5 44.5q-33 28 -47 68q-11 30 -10 65q0 12 1 25q3 22 15 40t30 18h106q-3 -29 -3 -53q0 -15 1 -27q3 -32 16 -52t37 -29t61 -9z"/>
<glyph glyph-name="uni04D2" horiz-adv-x="1279" unicode="Ӓ" d="M1198 0h-159q-27 0 -42 13.5t-21 35.5l-73 337h-574l-156 -337q-9 -20 -29 -34.5t-46 -14.5h-160l702 1436h208zM870 534l-123 567q-5 29 -12 66.5t-14 81.5q-16 -44 -32 -82t-28 -67l-263 -566h472zM1076 1664q0 -24 -9.5 -45.5t-26 -37.5t-38 -25t-46.5 -9 q-24 0 -45.5 9t-37.5 25t-25.5 37.5t-9.5 45.5q0 25 9.5 47t25.5 38.5t37.5 26t45.5 9.5q25 0 46.5 -9.5t38 -26t26 -38.5t9.5 -47zM691 1664q0 -24 -9.5 -45.5t-26 -37.5t-38.5 -25t-47 -9q-23 0 -44.5 9t-37.5 25t-25.5 37.5t-9.5 45.5q0 25 9.5 47t25.5 38.5t37.5 26 t44.5 9.5q25 0 47 -9.5t38.5 -26t26 -38.5t9.5 -47z"/>
</font>
</defs>
</svg>
